<?xml version="1.0" standalone="no"?>
<!DOCTYPE svg PUBLIC "-//W3C//DTD SVG 1.1//EN" "http://www.w3.org/Graphics/SVG/1.1/DTD/svg11.dtd" >
<svg xmlns="http://www.w3.org/2000/svg">
<metadata>Generated by IcoMoon</metadata>
<defs>
<font id="icomoon" horiz-adv-x="1024">
<font-face units-per-em="1024" ascent="960" descent="-64" />
<missing-glyph horiz-adv-x="1024" />
<glyph unicode="&#x20;" horiz-adv-x="512" d="" />
<glyph unicode="&#xe900;" glyph-name="chevron-right" horiz-adv-x="695" d="M632.571 449.714l-424-424c-14.286-14.286-37.143-14.286-51.429 0l-94.857 94.857c-14.286 14.286-14.286 37.143 0 51.429l303.429 303.429-303.429 303.429c-14.286 14.286-14.286 37.143 0 51.429l94.857 94.857c14.286 14.286 37.143 14.286 51.429 0l424-424c14.286-14.286 14.286-37.143 0-51.429z" />
<glyph unicode="&#xe901;" glyph-name="chevron-down" d="M961.714 489.143l-424-423.429c-14.286-14.286-37.143-14.286-51.429 0l-424 423.429c-14.286 14.286-14.286 37.714 0 52l94.857 94.286c14.286 14.286 37.143 14.286 51.429 0l303.429-303.429 303.429 303.429c14.286 14.286 37.143 14.286 51.429 0l94.857-94.286c14.286-14.286 14.286-37.714 0-52z" />
<glyph unicode="&#xe902;" glyph-name="chevron-up" d="M961.714 190.286l-94.857-94.286c-14.286-14.286-37.143-14.286-51.429 0l-303.429 303.429-303.429-303.429c-14.286-14.286-37.143-14.286-51.429 0l-94.857 94.286c-14.286 14.286-14.286 37.714 0 52l424 423.429c14.286 14.286 37.143 14.286 51.429 0l424-423.429c14.286-14.286 14.286-37.714 0-52z" />
<glyph unicode="&#xe903;" glyph-name="rollback" d="M559.639 917.333c256.018 0 464.312-208.294 464.361-464.312 0-256.018-208.294-464.312-464.312-464.312-13.413 0-24.299 10.886-24.299 24.299s10.886 24.299 24.299 24.299c229.24 0 415.713 186.473 415.713 415.713s-186.473 415.713-415.713 415.713c-210.821 0-385.048-159.841-411.242-365.851l76.349 61.283c10.497 8.408 25.806 6.707 34.116-3.694 8.408-10.449 6.707-25.757-3.742-34.165l-119.65-96.031c-0.389-0.34-0.923-0.194-1.361-0.486-3.985-2.819-8.553-4.86-13.802-4.86-0.049 0-0.049 0-0.049 0-3.548 0-6.852 0.826-9.914 2.187-0.778 0.34-1.409 0.972-2.138 1.409-2.236 1.312-4.277 2.77-5.978 4.714-0.243 0.292-0.68 0.389-0.923 0.729l-96.031 119.65c-8.359 10.449-6.707 25.757 3.791 34.165 10.4 8.408 25.709 6.707 34.165-3.742l57.492-71.634c30.714 228.268 224.526 404.924 458.869 404.924zM631.41 328.761l-76.683 76.808-76.803-76.808c-5.88-5.821-13.561-8.761-21.241-8.761s-15.361 2.88-21.241 8.761c-11.7 11.701-11.7 30.723 0 42.424l76.803 76.808-76.803 76.808c-11.7 11.701-11.7 30.723 0 42.424s30.721 11.701 42.422 0l76.803-76.807 76.803 76.807c11.7 11.701 30.721 11.701 42.422 0s11.7-30.723 0-42.424l-76.803-76.808 76.803-76.808c11.7-11.701 11.7-30.723 0-42.424-5.88-5.821-13.561-8.761-21.241-8.761s-15.361 2.88-21.241 8.761z" />
<glyph unicode="&#xe904;" glyph-name="addon" horiz-adv-x="896" d="M444.42 960l-444.42-256.597v-512.427l444.42-254.976 444.25 254.976v512.427l-444.25 256.597zM79.915 688.128l364.501 210.432 364.373-210.432-364.373-210.133-364.501 210.133zM470.997 431.787l364.544 210.389v-420.395l-364.544-209.237v419.243zM53.205 221.781v420.395l364.629-210.389v-419.243l-364.629 209.237z" />
<glyph unicode="&#xe905;" glyph-name="addons" d="M1022.417 418.505c0 0.085-0.043 0.128-0.043 0.171-0.043 3.883-1.323 7.509-3.285 10.752-0.64 1.024-1.621 1.749-2.432 2.645-1.237 1.451-2.133 3.072-3.712 4.139-0.725 0.469-1.579 0.469-2.347 0.853-0.555 0.256-0.811 0.896-1.408 1.152l-241.323 98.944v301.739c0 0.043 0 0 0 0 0 0.043-0.043 0.085-0.043 0.213-0.043 3.883-1.28 7.467-3.243 10.667-0.64 1.067-1.621 1.707-2.432 2.688-1.237 1.451-2.219 3.115-3.84 4.224-0.64 0.427-1.451 0.384-2.091 0.725-0.512 0.213-0.768 0.853-1.323 1.109l-235.349 99.797c-5.333 2.261-11.392 2.261-16.725-0.043l-233.131-99.797c-0.555-0.213-0.768-0.853-1.28-1.067-0.683-0.341-1.408-0.299-2.048-0.725-1.664-1.067-2.603-2.773-3.883-4.224-0.811-0.981-1.792-1.621-2.432-2.688-1.963-3.2-3.157-6.784-3.243-10.667 0-0.128-0.085-0.171-0.085-0.213v-301.696l-243.456-98.987c-0.597-0.256-0.853-0.896-1.408-1.152-0.768-0.384-1.707-0.384-2.432-0.853-1.579-1.067-2.475-2.688-3.712-4.139-0.811-0.896-1.749-1.579-2.389-2.603-2.005-3.243-3.243-6.869-3.285-10.752 0-0.085-0.043-0.128-0.043-0.171v-334.336c0-8.661 5.248-16.512 13.227-19.712l256.725-105.643c2.645-1.067 5.376-1.664 8.107-1.664 2.987 0 6.016 0.683 8.832 1.92l224.384 101.632 226.517-101.675c2.773-1.195 5.803-1.877 8.747-1.877 2.731 0 5.547 0.597 8.149 1.664l254.549 105.643c7.979 3.243 13.184 11.093 13.184 19.712v334.293c0-0.043 0-0.043 0 0zM454.353 739.273l35.541-15.445v-272.427l-190.464 85.333v269.653l154.923-67.115zM725.201 536.777l-192.64-85.461v272.512l192.64 82.688v-269.739zM746.876 336.030l-183.339 82.347 183.339 81.323 198.272-81.323-198.272-82.347zM511.27 915.443l180.907-76.672-180.907-77.611-179.2 77.611 179.2 76.672zM277.67 499.699l181.589-81.323-181.632-82.347-199.979 82.347 200.021 81.323zM42.662 386.59l214.059-88.107v-288.128l-214.059 88.064v288.171zM299.43 299.038l190.464 86.315v-287.488l-190.464-86.229v287.403zM532.561 385.481l192.64-86.528v-287.488l-192.64 86.4v287.616zM979.75 98.419l-211.883-87.936v288.043l211.883 88.021v-288.128z" />
<glyph unicode="&#xe906;" glyph-name="book" d="M1001.942 893.98c-4.193 3.902-9.797 5.687-15.526 5.563 0 0-24.41-1.578-62.519-5.687v21.67c0 5.729-2.366 11.209-6.518 15.111s-9.507 5.812-15.485 5.604c-57.123-3.487-312.97-23.746-390.393-111.505-74.973 87.427-334.557 107.977-392.095 111.505-5.604 0.291-11.292-1.661-15.485-5.604-4.151-3.944-6.518-9.382-6.518-15.111v-21.961c-38.898 4.317-62.436 5.978-62.436 5.978-5.687 0.249-11.375-1.619-15.609-5.521-4.193-3.944-6.559-9.424-6.559-15.194v-803.453c0-5.853 2.449-11.375 6.767-15.318 4.276-3.902 10.046-5.895 15.858-5.355 169.085 14.986 442.16 6.476 454.698-80.868 0.083-0.415 0.332-0.789 0.415-1.204 0.249-1.162 0.664-2.159 1.079-3.238 0.54-1.37 1.079-2.657 1.868-3.819 0.623-0.955 1.328-1.744 2.117-2.574 0.955-1.038 1.951-1.993 3.114-2.823 0.913-0.664 1.868-1.204 2.906-1.744 1.328-0.664 2.74-1.121 4.193-1.494 0.664-0.166 1.245-0.581 1.951-0.706 0.996-0.125 1.951-0.208 2.906-0.208 0 0 0 0 0.042 0 0 0 0 0 0.042 0 0 0 0 0 0 0s0 0 0 0c0.498 0 0.955 0 1.453 0.042 0.955 0.083 1.744 0.54 2.657 0.706 1.37 0.291 2.74 0.54 3.985 1.079 1.121 0.498 2.034 1.162 3.030 1.827 1.079 0.706 2.159 1.37 3.072 2.283 0.872 0.83 1.494 1.744 2.2 2.698 0.789 1.079 1.536 2.117 2.117 3.321 0.498 1.079 0.83 2.2 1.121 3.363 0.249 0.872 0.706 1.619 0.83 2.532 12.579 87.344 285.696 95.938 454.698 80.868 6.061-0.374 11.582 1.453 15.9 5.355 4.317 3.944 6.725 9.507 6.725 15.318v803.411c-0.042 5.729-2.449 11.209-6.601 15.152zM882.384 893.232v-689.124c-77.381 5.397-266.475 12.039-350.997-41.43l-0.208 615.313c9.216 62.312 203.873 103.576 351.204 115.242zM138.918 893.232c147.331-11.665 341.988-52.805 350.997-112.211v-618.302c-57.745 36.449-164.269 44.918-250.617 44.918-40.061 0-75.845-1.827-100.338-3.529v689.124h-0.042zM54.314 97.834v758.41c10.877-0.996 25.489-2.449 43.091-4.442v-670.111c0-5.812 2.449-11.333 6.725-15.277s9.797-5.687 15.817-5.397c147.539 12.869 359.216 2.408 369.927-60.61v-58.202c-100.629 72.524-352.408 61.565-435.56 55.628zM966.988 97.834c-83.276 5.895-335.097 16.813-435.601-55.794v58.41c10.752 62.934 222.263 73.437 369.968 60.61 5.48-0.415 11.499 1.453 15.817 5.397s6.725 9.507 6.725 15.277v670.36c17.394 1.91 32.090 3.321 43.091 4.276v-758.535z" />
<glyph unicode="&#xe907;" glyph-name="cdn" d="M999.667 194.295c-15.061 33.451-53.973 56.661-99.285 36.395l-165.291-74.496c-9.045 10.411-21.376 18.133-36.139 22.4l-234.496 68.011c-105.429 30.507-288.597-0.171-376.619-14.976l-25.941-4.309c-30.933-4.907-54.912-27.947-61.099-58.667-3.456-17.067 4.523-49.28 20.437-102.656l3.84-13.056c10.667-38.315 50.944-61.611 89.557-51.627 18.432 4.608 36.224 9.472 53.12 14.165 56.107 15.317 109.184 29.781 132.224 19.669 99.627-44.075 194.005-65.451 288.469-65.451 95.659 0 98.645 1.408 254.293 72.747 32.512 14.933 71.893 32.939 120.405 54.869 43.307 19.584 51.115 64.597 36.523 96.981zM945.609 136.269c-48.683-21.973-88.064-40.064-120.661-54.955-150.144-68.907-150.144-68.907-236.501-68.907-88.405 0-177.109 20.224-271.232 61.781-11.136 4.864-23.851 6.997-38.059 6.997-33.067 0-74.325-11.349-122.667-24.576-16.64-4.523-34.133-9.344-52.309-13.952-16.213-4.011-33.493 5.547-38.016 21.803l-4.053 13.739c-5.163 17.408-20.907 70.144-19.499 82.091 2.645 13.099 12.8 22.827 25.899 24.917l26.368 4.437c84.907 14.251 261.547 43.819 357.675 16.043l234.453-68.096c8.661-2.517 14.891-6.869 18.56-13.056 0.299-1.493 0.811-2.987 1.408-4.437 0.427-0.939 0.896-1.835 1.451-2.688 0-0.043 0-0.085 0.043-0.171 2.773-11.349-1.195-24.96-9.728-33.109-7.637-7.381-17.493-9.387-29.397-5.845l-246.357 71.467c-11.349 3.328-23.168-3.243-26.411-14.549-3.285-11.307 3.243-23.168 14.549-26.453l246.315-71.467c26.453-7.637 52.267-1.877 70.869 16.043 16.939 16.299 25.6 40.363 23.381 63.573l166.187 74.795c28.416 12.8 40.704-10.155 42.923-14.976 5.803-12.885 5.333-31.232-15.189-40.448zM651.379 314.786c171.989 0 311.936 139.904 311.936 311.936s-139.904 311.936-311.936 311.936c-172.032 0-311.936-139.989-311.936-311.979s139.904-311.893 311.936-311.893zM651.379 895.949c148.437 0 269.269-120.789 269.269-269.269s-120.789-269.269-269.269-269.269c-148.48 0-269.269 120.789-269.269 269.269s120.789 269.269 269.269 269.269zM486.387 696.866c16.171 5.717 27.136 12.288 34.56 18.56 0.768-2.091 1.408-3.243 1.92-4.139 2.56-4.523 16.939-26.795 38.101-23.509 9.429 1.451 21.675 7.979 26.539 30.592l1.877 8.832c4.011 18.773 7.765 36.48 8.192 38.4 4.096 0 8.96 0.512 14.208 1.152 6.4 0.811 18.347 2.219 21.461-0.299 1.152-0.939 2.773-4.523 3.371-11.435 0.128-1.493 0.256-2.816 0.341-4.053-4.821-0.64-10.411-2.091-16.427-4.992-25.088-11.989-35.968-40.875-33.493-61.909 2.133-18.261 13.781-31.829 30.379-35.456 15.232-3.328 48.555-15.915 64.853-22.315l18.432-20.565c10.837-42.24 10.837-45.653 10.709-75.392l-0.043-12.672c0.384-24.576 4.949-56.021 24.533-66.432 4.309-2.261 8.917-3.413 13.568-3.413 6.144 0 12.331 1.92 18.176 5.717 25.387 16.555 96.896 120.747 79.317 170.624-2.773 7.936-6.144 17.493-7.253 22.528 1.365 0.896 3.541 2.176 6.997 4.053 34.517 18.688 51.328 40.789 49.963 65.579-0.64 11.733-10.325 20.949-22.443 20.139-11.733-0.64-20.779-10.667-20.139-22.443 0.213-3.84-5.376-13.611-27.691-25.728-39.637-21.461-32.128-42.837-19.669-78.251 6.272-17.92-28.331-82.133-51.115-109.611-0.896 5.589-1.493 11.989-1.579 17.664l0.043 12.16c0.128 34.475-0.341 40.832-13.312 91.264-0.896 3.328-2.517 6.357-4.779 8.917l-25.259 28.16c-2.176 2.432-4.864 4.309-7.893 5.547-5.376 2.133-52.864 21.205-73.173 23.893-1.451 3.541 1.664 15.915 9.387 19.584 3.2 1.579 4.736 1.408 8.448 0.939 4.651-0.555 15.488-1.792 24.192 6.656 9.856 9.643 9.301 22.827 7.467 43.563-1.579 18.133-7.979 31.915-18.987 40.875-17.024 13.867-38.827 11.264-53.419 9.557-3.371-0.427-6.485-0.853-9.131-0.853-24.021 0-34.176-13.141-41.344-36.267-0.128 1.877-0.256 3.755-0.384 5.589-0.597 9.429-7.253 17.323-16.469 19.456-9.173 2.133-18.688-2.005-23.339-10.197l-20.523-36.523c0-0.043-2.944-4.395-16.256-10.112 1.792 10.027 6.272 24.619 11.776 37.291 4.693 10.795-0.256 23.339-11.051 28.075s-23.381-0.213-28.075-11.051c-13.227-30.336-25.045-70.656-6.443-90.667 5.589-6.144 18.304-14.976 40.875-7.083zM503.539 562.295c1.451-0.555 3.115-1.195 4.864-1.877-14.336-13.611-24.789-30.507-45.397-90.923-3.797-11.179 2.133-23.296 13.312-27.093 2.304-0.811 4.608-1.152 6.912-1.152 8.875 0 17.152 5.589 20.181 14.421 21.504 63.019 28.288 68.779 40.619 79.232l6.869 5.973c11.648 10.496 11.605 21.845 10.539 27.605-3.456 18.688-22.485 25.899-42.624 33.621-6.357 2.432-17.024 6.485-19.541 8.533-9.685 9.685-17.152 14.165-23.765 18.091-3.968 2.389-8.32 4.949-14.037 9.472-7.851 6.229-17.835 7.68-26.624 3.84-7.125-3.072-23.723-10.24-30.208-83.456-1.024-11.733 7.637-22.101 19.371-23.125 11.947-1.408 22.101 7.637 23.125 19.371 1.152 13.099 3.371 27.264 5.675 37.717 0.256-0.128 0.512-0.299 0.768-0.469 5.76-3.456 9.557-5.717 15.488-11.648 8.192-8.107 20.949-12.971 34.475-18.133z" />
<glyph unicode="&#xe908;" glyph-name="database" d="M935.522 830.851c0.045 0.178 0.134 0.356 0.134 0.534 0.445 3.517-0.223 6.901-1.336 10.151-15.36 86.995-173.19 118.472-309.649 118.472-136.37 0-294.2-31.477-309.649-118.428-0.89-2.36-1.514-4.897-1.514-7.524 0-0.846 0.267-1.914 0.401-2.938-0.045-1.202-0.401-2.315-0.401-3.517v-9.261c-124.883-9.261-246.739-46.614-246.739-129.959v-618.362c0-5.654 1.024-11.219 2.271-14.202 20.703-84.057 179.378-113.931 308.936-113.931s288.189 29.919 308.090 111.482c2.003 5.298 3.027 10.908 3.027 16.696v13.401c70.879 5.343 223.455 26.579 243.801 109.301 1.959 5.432 2.938 10.908 2.938 16.429v618.407c0.045 1.113-0.267 2.137-0.312 3.25zM376.507 579.927c122.791 0 217.311 28.761 268.911 61.752l-0.223-152.531c-8.771-16.429-95.588-74.396-268.644-74.396-171.453 0-256.757 56.543-266.062 75.286v150.083c49.864-32.056 141.267-60.193 266.017-60.193zM892.158 782.011l-0.223-155.114c-7.435-13.223-71.591-57.299-202.797-69.498v130.983c0 1.113-0.312 2.093-0.356 3.206 0.045 0.178 0.134 0.401 0.178 0.623 0.445 3.517-0.223 6.945-1.336 10.24-1.336 7.302-3.473 14.336-6.678 20.836 90.379 7.613 166.333 31.076 211.211 58.724zM110.445 431.402c49.909-32.1 141.312-60.238 266.062-60.238 122.524 0 216.91 28.672 268.6 61.574l-0.223-152.754c-9.795-16.874-96.479-73.995-268.377-73.995-171.542 0-256.89 56.676-266.106 75.42l0.045 149.994zM689.139 513.634c88.153 7.747 159.878 30.319 202.707 57.077l-0.267-153.11c-8.326-13.713-72.348-57.077-202.44-69.053v165.087zM624.671 916.378c141.267 0 253.462-34.593 266.195-80.228-12.021-16.384-93.273-66.426-248.877-71.324-59.971 40.114-167.357 55.964-263.969 55.964-6.901 0-13.891-0.178-20.881-0.312v5.209c0.045 0.534 0.045 1.069 0.045 1.603 0 0.49 0 0.89-0.045 1.38 1.736 49.286 118.65 87.708 267.531 87.708zM377.976 777.203c141.446 0 253.863-34.727 266.24-80.451-11.754-17.72-98.126-73.238-267.709-73.238-167.046 0-251.904 53.515-264.726 73.55 12.778 45.546 125.017 80.139 266.195 80.139zM377.976-14.527c-140.644 0-255.243 34.727-267.576 84.547v152.576c49.909-32.056 141.312-60.238 266.106-60.238 122.257 0 216.509 28.494 268.288 61.395l-0.267-157.518c-11.309-46.035-125.907-80.762-266.552-80.762zM689.139 127.408v177.419c87.93 7.702 159.521 30.141 202.351 56.81l-0.267-156.138c-9.617-39.135-89.978-69.498-202.084-78.091z" />
<glyph unicode="&#xe909;" glyph-name="export" d="M1002.101 804.352l-141.312 139.477c-6.912 6.827-16.427 16.171-34.261 16.171h-521.131c-30.293 0-54.912-24.96-54.912-55.68v-327.936c0-11.776 9.557-21.333 21.333-21.333s21.333 9.557 21.333 21.333v327.936c0 7.083 5.589 13.013 12.245 13.013l499.755 0.299v-149.632c0-11.776 9.557-21.333 21.333-21.333h149.333v-755.2c0-6.912-5.717-12.8-12.459-12.8h-657.963c-6.656 0-12.245 5.888-12.245 12.8v284.203c0 11.776-9.557 21.333-21.333 21.333s-21.333-9.557-21.333-21.333v-284.203c0-30.592 24.619-55.467 54.912-55.467h657.963c30.379 0 55.125 24.875 55.125 55.467v776.533c0 17.835-8.789 28.8-16.384 36.352zM847.819 896.597l108.715-107.264h-108.715v107.264zM71.285 404.053l95.616-99.712c8.149-8.491 7.851-22.016-0.64-30.165-4.139-3.968-9.429-5.931-14.763-5.931-5.632 0-11.221 2.176-15.403 6.571l-130.219 135.808c-0.853 0.853-1.237 1.963-1.877 2.901-0.853 1.237-1.835 2.347-2.432 3.797-2.091 5.163-2.091 10.923 0 16.085 0.597 1.408 1.579 2.56 2.432 3.797 0.64 0.981 1.024 2.091 1.877 2.944l130.219 135.808c8.149 8.533 21.632 8.747 30.165 0.64 8.533-8.149 8.789-21.675 0.64-30.165l-95.616-99.712h501.973c11.776 0 21.333-9.557 21.333-21.333s-9.557-21.333-21.333-21.333h-501.973z" />
<glyph unicode="&#xe90a;" glyph-name="files" horiz-adv-x="811" d="M778.935 796.523c0 3.328-0.981 6.315-2.389 9.088-2.133 8.704-5.845 17.024-12.416 23.339l-119.893 116.821c-5.76 5.632-14.507 14.251-30.635 14.251h-442.325c-27.008 0-48.981-22.144-48.981-49.28v-764.885c0-27.093 21.973-49.109 48.981-49.109h558.507c27.093 0 49.152 22.016 49.152 49.109v648.149c0 0.427-0.256 0.853-0.256 1.237 0 0.469 0.256 0.853 0.256 1.28zM717.751 817.003h-83.712v81.536l83.712-81.536zM729.783 137.664h-558.507c-4.309 0-8.021 3.755-8.021 8.149v764.928c0 4.437 3.712 8.32 8.021 8.32l421.845 0.555v-123.093c0-11.307 9.131-20.48 20.48-20.48h124.373v-630.187c0-4.437-3.755-8.192-8.192-8.192zM614.669 304.619h-327.68c-11.264 0-20.48-9.173-20.48-20.437 0-11.349 9.216-20.523 20.48-20.523h327.68c11.349 0 20.48 9.173 20.48 20.523 0 11.264-9.131 20.437-20.48 20.437zM614.669 427.499h-327.68c-11.264 0-20.48-9.173-20.48-20.437 0-11.307 9.216-20.523 20.48-20.523h327.68c11.349 0 20.48 9.216 20.48 20.523 0 11.264-9.131 20.437-20.48 20.437zM614.669 550.379h-327.68c-11.264 0-20.48-9.173-20.48-20.48 0-11.264 9.216-20.48 20.48-20.48h327.68c11.349 0 20.48 9.216 20.48 20.48 0 11.307-9.131 20.48-20.48 20.48zM286.989 632.341h204.843c11.264 0 20.437 9.173 20.437 20.437 0 11.307-9.173 20.523-20.437 20.523h-204.843c-11.264 0-20.48-9.216-20.48-20.523 0-11.264 9.216-20.437 20.48-20.437zM677.773 46.571c11.307 0 20.48-9.131 20.48-20.437 0-27.733-22.528-50.261-50.219-50.261h-597.845c-27.691 0-50.176 22.528-50.176 50.261v761.6c0 27.691 22.485 50.219 50.176 50.219 11.349 0 20.48-9.216 20.48-20.48 0-11.307-9.131-20.48-20.48-20.48-5.077 0-9.216-4.139-9.216-9.259v-761.6c0-5.077 4.139-9.301 9.216-9.301h597.845c5.077 0 9.259 4.224 9.259 9.301 0 11.264 9.173 20.437 20.48 20.437z" />
<glyph unicode="&#xe90b;" glyph-name="help" d="M887.475 101.089c84.426 91.337 136.525 212.989 136.525 346.889s-52.055 255.552-136.525 346.889c-0.831 1.225-1.356 2.625-2.45 3.718-0.656 0.656-1.531 0.962-2.275 1.531-93.349 98.249-224.843 159.884-370.729 159.884-133.812 0-255.42-52.011-346.758-136.393-1.312-0.919-2.712-1.487-3.849-2.625-0.7-0.7-1.006-1.575-1.575-2.362-98.205-93.349-159.84-224.8-159.84-370.685 0-145.842 61.591-277.292 159.753-370.598 0.612-0.787 0.919-1.75 1.619-2.45 1.181-1.181 2.625-1.793 3.981-2.668 91.293-84.251 212.814-136.218 346.583-136.218 145.886 0 277.38 61.635 370.729 159.884 0.744 0.569 1.619 0.831 2.275 1.531 1.137 1.050 1.706 2.406 2.537 3.674zM868.316 144.964l-154.897 154.897c30.621 41.557 48.949 92.649 48.949 148.073s-18.329 106.56-48.949 148.073l154.853 154.897c69.596-81.757 111.897-187.442 111.897-302.97s-42.213-221.213-111.853-302.97zM305.288 447.934c0 113.953 92.737 206.69 206.69 206.69s206.69-92.737 206.69-206.69c0-113.953-92.693-206.69-206.69-206.69-113.953 0-206.69 92.737-206.69 206.69zM838.482 782.925l-153.935-153.935c-44.969 42.869-105.685 69.422-172.57 69.422-55.423 0-106.56-18.329-148.073-48.949l-154.853 154.897c81.757 69.596 187.442 111.853 302.97 111.853 126.901-0.044 242.035-51.005 326.46-133.288zM43.744 447.934c0 126.945 50.962 242.079 133.288 326.504l153.935-153.935c-42.869-44.969-69.378-105.641-69.378-172.57 0-66.884 26.509-127.601 69.422-172.57l-153.935-153.935c-82.37 84.426-133.331 199.559-133.331 326.504zM209.052 91.597l154.853 154.897c41.513-30.621 92.649-48.949 148.073-48.949 66.884 0 127.601 26.509 172.57 69.422l153.935-153.935c-84.426-82.282-199.559-133.244-326.504-133.244-115.528-0.044-221.213 42.213-302.926 111.809z" />
<glyph unicode="&#xe90c;" glyph-name="home" d="M992.166 544.546l-433.963 375.936c-1.451 1.237-3.2 2.304-5.163 3.115-27.776 21.035-66.133 20.053-92.928-3.115l-433.963-375.893c-31.104-26.965-35.029-74.709-8.704-106.539 16.64-20.181 44.245-19.883 65.408-15.616v-404.096c0-30.549 24.491-55.381 54.613-55.381h261.419c11.776 0 21.333 9.6 21.333 21.333v352.469h177.92v-352.469c0-11.733 9.557-21.333 21.333-21.333h261.419c30.123 0 54.613 24.832 54.613 55.381v404.096c21.248-4.181 48.768-4.523 65.408 15.616 26.283 31.829 22.357 79.659-8.747 106.496zM968.017 465.271c-4.395-5.163-27.136-2.347-45.312 5.547-6.613 2.944-14.293 2.219-20.224-1.707-6.016-3.883-9.685-10.667-9.685-17.835v-432.896c0-6.997-5.376-12.672-11.947-12.672h-240.085v352.427c0 11.733-9.557 21.333-21.333 21.333h-220.587c-11.776 0-21.333-9.6-21.333-21.333v-352.427h-240.085c-6.571 0-11.947 5.675-11.947 12.672v432.896c0 7.211-3.627 13.995-9.685 17.877-6.016 3.883-13.653 4.523-20.267 1.664-16.128-7.125-40.661-11.093-45.269-5.504-11.648 14.080-9.984 35.157 3.755 47.061l433.963 375.936c11.861 10.197 29.056 10.197 40.917 0 1.536-1.408 3.285-2.475 5.12-3.328l430.208-372.736c13.781-11.819 15.445-32.896 3.797-46.976z" />
<glyph unicode="&#xe90d;" glyph-name="import" d="M1012.736 804.352l-141.312 139.477c-6.912 6.827-16.427 16.171-34.261 16.171h-521.088c-30.293 0-54.912-24.96-54.912-55.68v-327.936c0-11.776 9.557-21.333 21.333-21.333s21.333 9.557 21.333 21.333v327.936c0 7.083 5.589 13.013 12.245 13.013l499.755 0.299v-149.632c0-11.776 9.557-21.333 21.333-21.333h149.333v-755.2c0-6.912-5.717-12.8-12.459-12.8h-657.963c-6.656 0-12.245 5.888-12.245 12.8v284.203c0 11.776-9.557 21.333-21.333 21.333s-21.333-9.557-21.333-21.333v-284.203c0-30.592 24.619-55.467 54.912-55.467h657.963c30.379 0 55.125 24.875 55.125 55.467v776.533c-0.043 17.835-8.832 28.8-16.427 36.352zM858.453 896.597l108.715-107.264h-108.715v107.264zM433.109 298.88l100.736 105.173h-512.512c-11.776 0-21.333 9.557-21.333 21.333s9.557 21.333 21.333 21.333h512.555l-100.779 105.088c-8.192 8.491-7.893 22.016 0.683 30.208 8.533 8.107 22.016 7.808 30.165-0.64l135.424-141.227c0.896-0.981 1.323-2.176 2.048-3.243 0.768-1.152 1.707-2.176 2.219-3.499 0.939-2.347 1.365-4.779 1.451-7.253 0.043-0.299 0.171-0.512 0.171-0.811s-0.171-0.512-0.171-0.811c-0.085-2.475-0.512-4.949-1.451-7.253-0.555-1.28-1.493-2.347-2.261-3.499-0.683-1.067-1.152-2.261-2.048-3.2l-135.424-141.227c-4.181-4.352-9.813-6.571-15.403-6.571-5.291 0-10.624 1.963-14.763 5.931-8.533 8.149-8.789 21.675-0.64 30.165z" />
<glyph unicode="&#xe90e;" glyph-name="important" d="M512-64c-282.77 0-512 229.23-512 512s229.23 512 512 512c282.77 0 512-229.23 512-512s-229.23-512-512-512zM438.857 740.571h146.286l-12.343-365.714h-122.057l-11.886 365.714zM512 155.429c-45.011 0-73.143 27.884-73.143 72.928 0 45.473 28.132 73.357 73.143 73.357 45.413 0 73.143-27.884 73.143-73.357 0-45.044-27.73-72.928-73.143-72.928zM512-3.765c249.503 0 451.765 202.262 451.765 451.765s-202.262 451.765-451.765 451.765c-249.503 0-451.765-202.262-451.765-451.765s202.262-451.765 451.765-451.765z" />
<glyph unicode="&#xe90f;" glyph-name="information" d="M512-64c-282.77 0-512 229.23-512 512s229.23 512 512 512c282.77 0 512-229.23 512-512s-229.23-512-512-512zM512-3.765c249.503 0 451.765 202.262 451.765 451.765s-202.262 451.765-451.765 451.765c-249.503 0-451.765-202.262-451.765-451.765s202.262-451.765 451.765-451.765zM558.439 294.75c-11.43-20.574-34.29-48.768-47.244-48.768-3.81 0-9.906 3.048-9.906 9.144 0 4.572 6.096 19.812 10.668 32.766l41.91 115.823c7.62 22.098 16.002 41.91 16.002 60.959 0 32.766-21.336 56.387-65.531 56.387-16.002 0-87.629 0-135.635-102.869h35.814c11.43 19.812 30.48 48.006 44.196 48.006 3.048 0 9.144-2.286 9.144-9.144 0-3.81-2.286-9.906-6.096-21.336l-43.434-125.729c-9.906-28.194-15.24-42.672-15.24-58.673 0-57.149 55.625-57.911 70.103-57.911 81.533 0 122.681 77.723 133.349 101.345h-38.1zM620.923 662.031c0 32.004-25.908 57.911-57.911 57.911s-57.911-25.908-57.911-57.911c0-32.004 25.908-57.911 57.911-57.911s57.911 25.908 57.911 57.911z" />
<glyph unicode="&#xe910;" glyph-name="information2" d="M628.209 159.639c-21.515-38.727-64.545-91.798-88.929-91.798-7.172 0-18.646 5.737-18.646 17.212 0 8.606 11.475 37.293 20.081 61.677l78.889 218.019c14.343 41.596 30.121 78.889 30.121 114.747 0 61.677-40.161 106.141-123.353 106.141-30.121 0-164.949 0-255.312-193.636h67.414c21.515 37.293 57.374 90.363 83.192 90.363 5.737 0 17.212-4.303 17.212-17.212 0-7.172-4.303-18.646-11.475-40.161l-81.757-236.666c-18.646-53.071-28.687-80.323-28.687-110.444 0-107.575 104.707-109.010 131.959-109.010 153.474 0 230.929 146.303 251.009 190.767h-71.717zM745.825 850.99c0 60.242-48.768 109.010-109.010 109.010s-109.010-48.768-109.010-109.010c0-60.242 48.768-109.010 109.010-109.010s109.010 48.768 109.010 109.010z" />
<glyph unicode="&#xe911;" glyph-name="interrogation" d="M512-64c-282.77 0-512 229.23-512 512s229.23 512 512 512c282.77 0 512-229.23 512-512s-229.23-512-512-512zM512-3.765c249.503 0 451.765 202.262 451.765 451.765s-202.262 451.765-451.765 451.765c-249.503 0-451.765-202.262-451.765-451.765s202.262-451.765 451.765-451.765zM439.979 342.869c-2.418 25.145-1.209 46.542 3.627 64.192s11.484 32.882 19.947 45.696c8.462 12.814 18.133 23.936 29.013 33.365s21.035 18.496 30.464 27.2c9.429 8.704 17.287 17.771 23.573 27.2s9.429 20.672 9.429 33.728c0 16.925-4.715 30.464-14.144 40.619s-26.233 15.232-50.411 15.232c-7.737 0-15.957-0.846-24.661-2.539s-17.408-4.11-26.112-7.253c-8.704-3.143-17.045-6.77-25.024-10.88s-15.111-8.341-21.397-12.693l-36.267 69.632c18.375 12.573 39.531 22.969 63.467 31.189s52.828 12.331 86.677 12.331c45.454 0 80.995-11.001 106.624-33.003s38.443-51.619 38.443-88.853c0-24.661-3.264-45.091-9.792-61.291s-14.628-29.98-24.299-41.344c-9.671-11.364-20.309-21.397-31.915-30.101s-22.244-18.012-31.915-27.925c-9.671-9.913-17.892-21.397-24.661-34.453s-10.155-29.739-10.155-50.048h-80.512zM425.472 239.872c0 16.925 5.319 30.343 15.957 40.256s24.661 14.869 42.069 14.869c18.375 0 32.882-4.956 43.52-14.869s15.957-23.331 15.957-40.256c0-16.925-5.319-30.464-15.957-40.619s-25.145-15.232-43.52-15.232c-17.408 0-31.431 5.077-42.069 15.232s-15.957 23.694-15.957 40.619z" />
<glyph unicode="&#xe912;" glyph-name="media" d="M1009.062 673.877c-7.168 10.368-17.877 17.365-30.293 19.712l-199.765 37.291-29.312 89.301c-7.765 24.832-34.133 38.741-59.051 31.019l-211.029-64.469-177.92 33.152c-12.459 2.304-25.003-0.384-35.456-7.467-10.368-7.125-17.408-17.92-19.755-30.336l-14.037-75.477-199.296-61.141c-24.917-7.808-38.784-34.389-30.976-59.264l147.157-470.101c6.315-20.181 25.003-33.195 45.184-33.195 4.651 0 9.387 0.725 14.037 2.176l309.248 97.195 353.28-65.877c2.901-0.555 5.888-0.896 8.747-0.896 9.429 0 18.688 2.859 26.624 8.277 10.411 7.168 17.408 17.877 19.755 30.293l90.325 484.352c2.304 12.459-0.341 25.045-7.467 35.456zM703.356 810.027c2.261 0.683 4.48-0.597 5.248-3.029l21.973-67.115-159.445 29.739 132.224 40.405zM195.75 126.208c-2.219-0.725-4.565 0.512-5.291 2.731l-147.157 470.144c-0.683 2.219 0.555 4.565 2.645 5.205l177.579 54.485-67.328-361.003c-4.779-25.6 12.16-50.347 37.803-55.083l233.6-43.563-231.851-72.917zM883.836 162.048c-0.384-1.92-2.859-3.285-4.821-3.328l-510.72 95.232 231.808 217.984 55.211-113.365c3.115-6.357 9.173-10.795 16.171-11.819 7.040-1.024 14.165 1.365 18.944 6.571l129.109 138.368 88.917-197.504-24.619-132.139zM922.364 368.427l-76.757 170.496c-2.987 6.571-9.003 11.264-16.128 12.416-7.083 1.109-14.379-1.28-19.285-6.528l-129.835-139.179-54.315 111.445c-2.944 6.187-8.747 10.539-15.445 11.776-6.571 1.237-13.653-0.811-18.688-5.504l-276.096-259.584-113.877 21.248c-2.261 0.427-3.755 2.603-3.328 4.821l90.325 484.309c0.299 1.792 2.475 3.413 4.309 3.413 0.171 0 0.341 0 0.512-0.043l677.077-126.293c0 0 3.285-4.821 3.328-4.821l-51.797-277.973zM418.257 660.565c-50.005 0-90.624-40.661-90.624-90.624 0-49.92 40.619-90.624 90.624-90.624 49.963 0 90.624 40.704 90.624 90.624 0 49.963-40.661 90.624-90.624 90.624zM418.257 522.496c-26.197 0-47.488 21.291-47.488 47.488s21.291 47.488 47.488 47.488c26.155 0 47.488-21.291 47.488-47.488s-21.291-47.488-47.488-47.488z" />
<glyph unicode="&#xe913;" glyph-name="plus" d="M548.571 137.681v620.638c0 20.198-16.374 36.571-36.571 36.571s-36.571-16.374-36.571-36.571v-620.638c0-20.198 16.374-36.571 36.571-36.571s36.571 16.374 36.571 36.571zM822.319 484.571h-620.638c-20.198 0-36.571-16.374-36.571-36.571s16.374-36.571 36.571-36.571h620.638c20.198 0 36.571 16.374 36.571 36.571s-16.374 36.571-36.571 36.571z" />
<glyph unicode="&#xe914;" glyph-name="refresh" d="M1002.021 751.141c12.009-4.655 17.92-18.153 13.359-30.161l-61.021-157.044c-0.14-0.372-0.512-0.512-0.652-0.838-1.676-3.77-4.143-6.935-7.54-9.449-0.698-0.512-1.443-0.745-2.188-1.164-1.583-0.884-3.025-2.001-4.841-2.513-2.141-0.652-4.375-0.931-6.516-0.931-2.839 0-5.632 0.512-8.425 1.583l-151.599 58.88c-12.009 4.655-17.967 18.153-13.265 30.161 4.608 12.009 18.060 17.873 30.068 13.265l103.657-40.262c-65.164 151.738-217.321 254.231-386.281 254.231-184.599 0-349.603-123.811-401.315-301.009-3.584-12.381-16.337-19.456-28.858-15.825-12.335 3.537-19.409 16.477-15.825 28.812 57.437 196.98 240.873 334.569 445.999 334.569 185.158 0 352.163-110.871 426.17-275.875l39.005 100.305c4.608 12.009 18.060 17.92 30.068 13.265zM940.395 347.266c12.335-3.631 19.456-16.57 15.732-28.951-57.484-196.98-240.873-334.522-446.045-334.522-185.158 0-352.209 110.871-426.17 275.828l-38.959-100.259c-3.584-9.216-12.381-14.848-21.69-14.848-2.793 0-5.632 0.559-8.425 1.583-11.962 4.655-17.92 18.153-13.265 30.068l61.021 157.091c0.186 0.512 0.605 0.838 0.838 1.303 0.652 1.443 1.583 2.7 2.513 3.956 0.931 1.21 1.769 2.42 2.839 3.398 1.024 0.977 2.234 1.629 3.398 2.374 1.396 0.884 2.793 1.722 4.329 2.327 0.465 0.14 0.791 0.512 1.303 0.652 0.931 0.233 1.815 0.047 2.7 0.186 1.676 0.279 3.305 0.465 5.027 0.372 1.536-0.093 2.886-0.372 4.329-0.745 0.977-0.233 1.955-0.14 2.932-0.465l151.599-58.927c11.962-4.608 17.92-18.106 13.265-30.068s-18.199-17.92-30.115-13.265l-103.61 40.262c65.21-151.785 217.367-254.231 386.281-254.231 184.599 0 349.649 123.764 401.315 301.009 3.631 12.335 16.291 19.316 28.858 15.872z" />
<glyph unicode="&#xe915;" glyph-name="rules" d="M299.284 945.375c-0.757 1.87-2.003 3.473-3.206 5.12-0.534 0.712-0.846 1.603-1.469 2.315-0.045 0.045-0.134 0.089-0.178 0.134-1.647 1.692-3.695 2.849-5.743 4.007-0.579 0.312-1.113 0.89-1.736 1.202-0.801 0.312-1.781 0.267-2.627 0.534-2.093 0.623-4.141 1.291-6.278 1.291-0.089 0-0.178 0.045-0.267 0.045h-232.27c-3.027 0-6.055-0.623-8.904-1.781-5.654-2.36-10.195-6.901-12.6-12.6-1.113-2.849-1.736-5.832-1.736-8.86v-232.314c0-12.822 10.418-23.196 23.24-23.196h232.27c3.027 0 6.055 0.579 8.86 1.736 5.699 2.404 10.24 6.901 12.6 12.6 1.158 2.849 1.781 5.832 1.781 8.86v232.314c0 1.202-0.534 2.226-0.712 3.339-0.223 1.781-0.312 3.562-1.024 5.254zM68.706 880.685l56.943-56.899-56.943-54.227v111.126zM101.563 913.542h118.205l-60.505-57.656-57.7 57.656zM158.462 790.973l63.221-63.265h-129.647l66.426 63.265zM192.12 823.029l62.464 59.57v-122.034l-62.464 62.464zM277.78 216.554c12.867 0 23.24-10.329 23.24-23.196v-232.27c0-12.822-10.418-23.24-23.24-23.24h-232.27c-12.822 0-23.24 10.418-23.24 23.24v232.27c0 12.822 10.418 23.196 23.24 23.196h232.27zM68.706-15.672h185.834v185.834h-185.834v-185.834zM277.78 588.266c12.867 0 23.24-10.329 23.24-23.196v-232.27c0-12.822-10.418-23.24-23.24-23.24h-232.27c-12.822 0-23.24 10.418-23.24 23.24v232.27c0 12.822 10.418 23.196 23.24 23.196h232.27zM68.706 355.996h185.834v185.834h-185.834v-185.834zM971.874 123.77c12.867 0 23.24-10.418 23.24-23.24s-10.374-23.24-23.24-23.24h-554.296c-12.822 0-23.24 10.418-23.24 23.24s10.418 23.24 23.24 23.24h554.296zM971.874 495.482c12.867 0 23.24-10.418 23.24-23.24s-10.374-23.24-23.24-23.24h-554.296c-12.822 0-23.24 10.418-23.24 23.24s10.418 23.24 23.24 23.24h554.296zM417.578 820.714c-12.822 0-23.24 10.418-23.24 23.24s10.418 23.24 23.24 23.24h554.296c12.867 0 23.24-10.418 23.24-23.24s-10.374-23.24-23.24-23.24h-554.296z" />
<glyph unicode="&#xe916;" glyph-name="stack" horiz-adv-x="981" d="M480.977 395.085c3.285-1.92 6.997-2.816 10.667-2.816s7.381 0.896 10.667 2.816l470.4 272.469c6.656 3.883 10.752 11.051 10.624 18.773-0.128 7.765-4.437 14.805-11.264 18.475l-470.315 252.672c-6.315 3.371-13.867 3.371-20.224 0l-470.272-252.672c-6.827-3.669-11.093-10.709-11.221-18.475-0.128-7.723 3.925-14.891 10.624-18.773l470.315-272.469zM491.686 914.466l426.581-229.205-426.581-247.125-426.539 247.168 426.539 229.163zM855.334 554.871l117.291-68.011c6.571-3.84 10.624-10.88 10.624-18.475 0-7.637-4.053-14.677-10.624-18.475l-470.315-272.469c-3.285-1.92-6.997-2.816-10.667-2.816s-7.381 0.896-10.667 2.816l-470.315 272.469c-6.613 3.84-10.667 10.837-10.667 18.475 0 7.595 4.096 14.677 10.667 18.475l117.376 68.011c10.197 5.888 23.253 2.432 29.141-7.765 5.931-10.197 2.432-23.211-7.765-29.141l-85.504-49.579 427.776-247.765 427.776 247.765-85.547 49.579c-10.197 5.931-13.696 18.944-7.765 29.141 5.931 10.283 19.072 13.653 29.184 7.765zM855.334 330.317l117.291-67.925c6.571-3.84 10.624-10.837 10.624-18.475s-4.053-14.635-10.624-18.517l-470.315-272.427c-3.285-1.92-6.997-2.859-10.667-2.859s-7.381 0.939-10.667 2.859l-470.315 272.427c-6.613 3.883-10.667 10.88-10.667 18.517s4.096 14.635 10.667 18.475l117.376 67.968c10.197 5.931 23.253 2.475 29.141-7.723 5.931-10.24 2.432-23.253-7.765-29.184l-85.504-49.536 427.776-247.893 427.776 247.851-85.547 49.536c-10.197 5.931-13.696 18.987-7.765 29.184 5.931 10.325 19.072 13.696 29.184 7.723z" />
<glyph unicode="&#xe917;" glyph-name="tools" horiz-adv-x="896" d="M874.044 810.586l-135.68 133.888c-6.613 6.571-15.744 15.531-32.896 15.531h-500.224c-29.056 0-52.736-23.979-52.736-53.461v-110.037c0-11.264 9.216-20.48 20.48-20.48 11.307 0 20.48 9.216 20.48 20.48v110.037c0 6.784 5.376 12.501 11.776 12.501l479.744 0.256v-143.616c0-11.307 9.216-20.48 20.48-20.48h143.403v-724.992c0-6.613-5.504-12.288-11.989-12.288h-631.637c-6.4 0-11.776 5.675-11.776 12.288v109.013c0 11.264-9.173 20.437-20.48 20.437-11.264 0-20.48-9.173-20.48-20.437v-109.013c0-29.397 23.68-53.248 52.736-53.248h631.637c29.184 0 52.949 23.851 52.949 53.248v745.472c0 17.109-8.448 27.648-15.787 34.901zM725.948 899.119l104.405-102.955h-104.405v102.955zM339.046 463.962c0 50.219-40.789 91.008-90.923 91.008-50.176 0-90.965-40.789-90.965-91.008 0-50.176 40.789-90.965 90.965-90.965 50.133-0.043 90.923 40.747 90.923 90.965zM198.118 463.962c0 27.563 22.4 50.048 50.005 50.048 27.563 0 49.963-22.443 49.963-50.048s-22.4-50.005-49.963-50.005c-27.605-0.043-50.005 22.4-50.005 50.005zM190.097 215.855c7.211 0 14.080 3.797 17.749 10.325l25.131 44.032c10.581-0.896 21.248-0.896 32 0.128l25.472-43.776c4.608-7.979 14.037-11.776 22.912-9.472 22.784 5.973 44.672 15.147 65.067 27.264 7.936 4.693 11.733 14.165 9.344 23.083l-13.355 48.811c8.107 6.955 15.573 14.507 22.485 22.699l48.939-12.928c8.875-2.304 18.304 1.536 22.912 9.472 12.075 20.736 20.821 42.069 26.752 65.323 2.304 8.917-1.664 18.304-9.643 22.869l-43.989 25.131c0.853 10.624 0.811 21.333-0.128 31.915l43.819 25.515c7.979 4.651 11.904 13.995 9.515 22.912-6.016 22.827-15.189 44.715-27.264 65.067-4.736 7.936-14.165 11.861-23.040 9.344l-48.853-13.397c-6.955 8.149-14.549 15.701-22.699 22.528l12.928 48.981c2.389 8.917-1.536 18.304-9.472 22.997-20.736 11.947-42.112 20.736-65.28 26.709-8.96 2.304-18.304-1.707-22.869-9.728l-25.131-43.947c-10.709 0.811-21.333 0.811-32.043-0.128l-25.557 43.819c-4.651 7.979-13.952 11.904-22.912 9.515-22.4-5.973-44.885-15.403-65.024-27.264-7.893-4.693-11.691-14.165-9.259-23.040l13.312-48.853c-8.192-6.955-15.701-14.592-22.656-22.741l-48.939 12.885c-8.917 2.389-18.347-1.536-22.955-9.515-11.861-20.437-20.821-42.325-26.709-65.237-2.304-8.917 1.664-18.261 9.643-22.869l43.989-25.131c-0.853-10.709-0.811-21.419 0.128-32.128l-43.691-25.429c-7.979-4.651-11.904-13.995-9.515-22.955 5.973-22.443 15.36-44.928 27.264-65.024 4.736-7.893 14.123-11.733 22.997-9.344l48.896 13.355c6.997-8.149 14.549-15.701 22.784-22.571l-12.928-48.981c-2.389-8.917 1.536-18.304 9.515-22.955 21.077-12.16 41.813-20.651 65.237-26.667 1.707-0.427 3.371-0.597 5.12-0.597zM153.958 271.279l12.245 46.421c2.176 8.192-0.939 16.896-7.808 21.845-12.971 9.387-24.405 20.608-33.835 33.536-5.077 6.827-13.696 9.813-21.931 7.68l-46.293-12.672c-4.224 8.448-7.893 17.323-11.008 26.24l41.472 24.149c7.339 4.224 11.264 12.587 9.899 20.992-2.56 15.829-2.645 31.829-0.213 47.701 1.323 8.363-2.688 16.725-10.069 20.864l-41.685 23.808c3.029 9.003 6.613 17.835 10.795 26.325l46.379-12.245c8.277-2.219 16.896 0.939 21.888 7.808 9.301 12.971 20.608 24.363 33.579 33.835 6.827 5.035 9.899 13.739 7.637 21.931l-12.672 46.293c8.533 4.224 17.365 7.893 26.283 11.008l24.192-41.472c4.224-7.339 12.416-11.264 20.949-9.941 15.744 2.56 31.872 2.645 47.616 0.213 8.533-1.323 16.725 2.731 20.907 10.112l23.808 41.685c9.088-3.029 17.749-6.571 26.368-10.837l-12.288-46.379c-2.176-8.235 0.939-16.939 7.851-21.888 12.843-9.344 24.192-20.608 33.707-33.579 4.992-6.827 13.653-9.899 21.888-7.68l46.336 12.672c4.267-8.533 7.893-17.28 11.008-26.283l-41.557-24.149c-7.339-4.309-11.221-12.629-9.899-21.035 2.56-15.744 2.603-31.744 0.213-47.531-1.28-8.405 2.688-16.683 10.069-20.864l41.728-23.851c-3.029-9.131-6.571-17.792-10.837-26.411l-46.421 12.288c-8.192 2.048-16.896-0.896-21.803-7.765-9.344-12.928-20.608-24.32-33.536-33.749-6.784-4.992-9.813-13.739-7.595-21.845l12.672-46.336c-8.533-4.309-17.323-7.936-26.325-11.093l-24.107 41.515c-4.267 7.381-12.587 11.477-20.992 9.899-15.872-2.517-31.957-2.56-47.573-0.213-8.32 1.237-16.683-2.688-20.907-10.069l-23.851-41.728c-9.003 3.029-17.707 6.613-26.283 10.795z" />
<glyph unicode="&#xe918;" glyph-name="trash" d="M565.895 151.579h107.789v323.368h-107.789v-323.368zM350.316 151.579h107.789v323.368h-107.789v-323.368zM673.684 852.211h323.368v-107.789h-970.105v107.789h323.368v107.789h323.368v-107.789zM242.526 582.737h538.947l0.054-538.947h-539.001v538.947zM134.737 43.789c0-59.446 48.344-107.789 107.789-107.789h538.947c59.446 0 107.789 48.344 107.789 107.789v646.737h-754.526v-646.737z" />
<glyph unicode="&#xe919;" glyph-name="user" d="M512 384c301.504 0 512-157.888 512-384v-64h-1024v64c0 226.112 210.56 384 512 384zM512 448c-141.12 0-256 114.88-256 256s114.816 256 256 256c141.184 0 256-114.88 256-256s-114.816-256-256-256z" />
<glyph unicode="&#xe920;" glyph-name="check" d="M0 409.6l102.4 102.4 256-256 563.2 563.2 102.4-102.4-665.6-665.6z" />
<glyph unicode="&#xe921;" glyph-name="check2" d="M424.653 89.702c-22.272 0-43.366 10.394-56.883 28.314l-182.938 241.715c-9.027 11.815-14.464 26.793-14.464 43.041 0 23.14 11.027 43.704 28.114 56.723l0.174 0.127c11.827 9.057 26.829 14.513 43.106 14.513 23.161 0 43.742-11.048 56.76-28.162l0.128-0.175 120.371-158.925 302.643 485.99c12.843 20.293 35.169 33.571 60.597 33.571 13.987 0 27.035-4.017 38.054-10.961l-0.296 0.174c33.434-20.787 43.725-64.819 22.835-98.304l-357.581-573.952c-12.217-19.466-33.149-32.488-57.189-33.582l-0.155-0.006c-1.126-0.102-2.15-0.102-3.277-0.102z" />
<glyph unicode="&#xe922;" glyph-name="close" d="M626.784 447.968l195.072-195.072c12.672-12.672 12.672-33.248 0-45.92l-68.832-68.832c-12.672-12.672-33.216-12.672-45.92 0l-195.104 195.072-195.104-195.072c-12.672-12.672-33.216-12.672-45.888 0l-68.864 68.832c-12.672 12.672-12.672 33.216 0 45.92l195.104 195.072-195.104 195.104c-12.672 12.672-12.672 33.248 0 45.92l68.896 68.832c12.672 12.672 33.216 12.672 45.888 0l195.072-195.104 195.104 195.104c12.672 12.672 33.216 12.672 45.92 0l68.832-68.864c12.672-12.672 12.672-33.216 0-45.92l-195.072-195.072z" />
</font>
</defs>
</svg>
