<svg width="42" height="33" viewBox="0 0 42 33" fill="none" xmlns="http://www.w3.org/2000/svg">
<rect width="22.1094" height="4" rx="2" transform="matrix(-0.707107 0.707107 0.707107 0.707107 23.2783 13.0117)" fill="#172153"/>
<rect width="10.1496" height="4" rx="2" transform="matrix(-0.707107 0.707107 0.707107 0.707107 27.5952 8.69043)" fill="#F26B32"/>
<path fill-rule="evenodd" clip-rule="evenodd" d="M25.5983 16.3442C26.3011 15.5589 26.2753 14.3519 25.521 13.5975C24.7399 12.8165 23.4736 12.8165 22.6925 13.5975L21.7248 14.5653C21.022 15.3506 21.0477 16.5576 21.8021 17.312C22.5831 18.093 23.8495 18.093 24.6305 17.312L25.5983 16.3442Z" fill="#FFD147"/>
<rect x="21.1978" y="3.41895" width="5.92515" height="2" rx="1" transform="rotate(75 21.1978 3.41895)" fill="#172153"/>
<rect x="17.8779" y="6.34082" width="5.92514" height="2" rx="1" transform="rotate(-15 17.8779 6.34082)" fill="#172153"/>
<rect width="5.92514" height="2" rx="1" transform="matrix(-0.991692 -0.128634 -0.128634 0.991692 37.3389 11.8994)" fill="#172153"/>
<rect width="5.92514" height="2" rx="0.999999" transform="matrix(0.106286 -0.994336 -0.994336 -0.106286 34.9521 15.5615)" fill="#172153"/>
<rect x="36.4912" y="3.05176" width="5.92514" height="2" rx="1" transform="rotate(135 36.4912 3.05176)" fill="#172153"/>
<rect x="35.0771" y="7.24121" width="5.92514" height="2" rx="1" transform="rotate(-135 35.0771 7.24121)" fill="#172153"/>
</svg>
