<svg height="20" viewBox="0 0 24 20" width="24" xmlns="http://www.w3.org/2000/svg"><g fill="none" fill-rule="evenodd" stroke-linecap="round" stroke-linejoin="round" stroke-width="1.5" transform="translate(0 1)"><path d="m8.25 6c-.828-.829-.828-2.171 0-3" stroke="#121116"/><path d="m22.005 13.754c-4.78 5.62-15.913 4.2459925-20.413 1.2459925-1.741-1.1609925-.433-5.8379925.8-9.1899925.628-1.717 1.544-3.315 2.708-4.725.571-.689 1.42-1.087 2.315-1.0850075h3.085c1.657 0 3 1.3430075 3 3 0 1.6570075-1.343 3-3 3h-2.25c-1.12 1.2170075-1.666 2.8550075-1.5 4.5 1.781-1.8519925 4.109-2.7499925 6.75 0-.003-2.6919925 2.177-4.8779925 4.869-4.8809925s4.878 2.177 4.8810017 4.869c.0009983 1.206-.4440017 2.369-1.2500017 3.265h.005z" stroke="#121116"/><g stroke="#f56640"><path d="m18.75 9v3"/><path d="m17.25 10.5h3"/></g></g></svg>