<?xml version="1.0" encoding="UTF-8"?>
<svg width="26px" height="25px" viewBox="0 0 26 25" version="1.1" xmlns="http://www.w3.org/2000/svg" xmlns:xlink="http://www.w3.org/1999/xlink">
    <!-- Generator: Sketch 59 (86127) - https://sketch.com -->
    <title>streamline-icon-space-rocket-earth@24x24</title>
    <desc>Created with Sketch.</desc>
    <g id="CDN" stroke="none" stroke-width="1" fill="none" fill-rule="evenodd" stroke-linecap="round" stroke-linejoin="round">
        <g id="CDN-(promo)Rocket-CDN-(full)-Copy" transform="translate(-468.000000, -371.000000)" stroke-width="1.5">
            <g id="streamline-icon-space-rocket-earth@24x24" transform="translate(469.000000, 372.000000)">
                <path d="M5.28225948,18 C1.18062941,14.1524984 0.88284559,7.60773459 4.6161918,3.38187911 C7.7760674,-0.193511179 12.9183625,-1.03803181 17,1.34809131" id="Path" stroke="#121116"></path>
                <path d="M1.35734283,18 C0.0567615773,20.2171445 -0.37855251,21.9376487 0.355905987,22.6533951 C1.47099626,23.7374483 4.95994217,22.2047494 9,19.0871833" id="Path" stroke="#121116"></path>
                <path d="M13.0060426,19 L9,14.9944247 L17.9039333,6.09153004 C18.6301684,5.36537966 19.5399206,4.85069679 20.5369552,4.60342525 L22.8275611,4.02832309 C23.333352,3.90189013 23.8458569,4.21069984 23.9723046,4.7164317 C24.0092318,4.86636106 24.0092318,5.02300367 23.9723046,5.17293302 L23.3993734,7.46439063 C23.150954,8.46019008 22.635092,9.3698361 21.9088569,10.0959865 L13.0060426,19 Z" id="Path" stroke="#F56640"></path>
                <path d="M9.63213116,15 L6.3262753,13.9408186 C6.07709585,13.8616781 5.94179479,13.6025744 6.02410294,13.3629847 C6.04778062,13.2946854 6.08724343,13.2328908 6.14023635,13.1819373 L7.29255036,12.0739707 C8.31407335,11.0917615 9.82493517,10.7491809 11.1959859,11.1882479 L13,11.7649976 L9.63213116,15 Z" id="Path" stroke="#F56640"></path>
                <path d="M14,18.3667413 L15.0591814,21.6737247 C15.1383219,21.9229041 15.3974256,22.0582052 15.6370153,21.9758971 C15.7053146,21.9522194 15.7671092,21.9127566 15.8180627,21.8597637 L16.9260293,20.7074496 C17.9082385,19.6859267 18.2508191,18.1750648 17.8117521,16.8040141 L17.2350024,15 L14,18.3667413 Z" id="Path" stroke="#F56640"></path>
            </g>
        </g>
    </g>
</svg>