<svg width="42" height="33" viewBox="0 0 42 33" fill="none" xmlns="http://www.w3.org/2000/svg">
<mask id="mask0_779_15959" style="mask-type:alpha" maskUnits="userSpaceOnUse" x="5" y="1" width="31" height="31">
<path d="M20.3764 31.2271C12.2864 31.2271 5.72824 24.6616 5.72824 16.5627C5.72824 8.46386 12.2864 1.89844 20.3764 1.89844C28.4663 1.89844 35.0244 8.46386 35.0244 16.5627C35.0244 24.6616 28.4663 31.2271 20.3764 31.2271Z" fill="#FFC401"/>
</mask>
<g mask="url(#mask0_779_15959)">
<path d="M20.4135 31.2271C12.3235 31.2271 5.76535 24.6616 5.76535 16.5627C5.76535 8.46386 12.3235 1.89844 20.4135 1.89844C28.5034 1.89844 35.0615 8.46386 35.0615 16.5627C35.0615 24.6616 28.5034 31.2271 20.4135 31.2271Z" fill="#FFD147"/>
<path fill-rule="evenodd" clip-rule="evenodd" d="M9.65186 26.5117C12.328 29.4113 16.1588 31.2271 20.4132 31.2271C24.6486 31.2271 28.4641 29.4275 31.1385 26.5506C28.4018 23.7602 24.5909 22.0293 20.376 22.0293C16.1808 22.0293 12.3857 23.7441 9.65186 26.5117Z" fill="#F26B32"/>
</g>
<path d="M8.2666 17.8044C8.2666 17.4362 8.56508 17.1377 8.93327 17.1377H10.1361C10.5043 17.1377 10.8028 17.4362 10.8028 17.8044C10.8028 18.1726 10.5043 18.471 10.1361 18.471H8.93327C8.56508 18.471 8.2666 18.1726 8.2666 17.8044Z" fill="white"/>
<path d="M11.596 8.81418C11.8563 8.55383 12.2784 8.55383 12.5388 8.81418L13.3893 9.66472C13.6497 9.92506 13.6497 10.3472 13.3893 10.6075C13.129 10.8679 12.7069 10.8679 12.4465 10.6075L11.596 9.75699C11.3356 9.49664 11.3356 9.07453 11.596 8.81418Z" fill="white"/>
<path d="M29.3894 8.81418C29.129 8.55383 28.7069 8.55383 28.4466 8.81418L27.596 9.66472C27.3357 9.92506 27.3357 10.3472 27.596 10.6075C27.8564 10.8679 28.2785 10.8679 28.5388 10.6075L29.3894 9.75699C29.6497 9.49664 29.6497 9.07453 29.3894 8.81418Z" fill="white"/>
<path d="M32.9199 17.8044C32.9199 17.4362 32.6214 17.1377 32.2533 17.1377H31.0504C30.6822 17.1377 30.3837 17.4362 30.3837 17.8044C30.3837 18.1726 30.6822 18.471 31.0504 18.471H32.2533C32.6214 18.471 32.9199 18.1726 32.9199 17.8044Z" fill="white"/>
<path d="M20.597 5.0918C20.9652 5.0918 21.2637 5.39027 21.2637 5.75846L21.2637 6.9613C21.2637 7.32949 20.9652 7.62797 20.597 7.62797C20.2288 7.62797 19.9303 7.32949 19.9303 6.9613L19.9303 5.75846C19.9303 5.39027 20.2288 5.0918 20.597 5.0918Z" fill="white"/>
<path fill-rule="evenodd" clip-rule="evenodd" d="M28.2584 9.82966C28.6433 10.2257 28.6342 10.8588 28.2381 11.2437L22.0915 17.2165C21.6954 17.6014 21.0623 17.5923 20.6774 17.1962C20.2925 16.8002 20.3016 16.1671 20.6977 15.7822L26.8443 9.80937C27.2404 9.42449 27.8735 9.43357 28.2584 9.82966Z" fill="#172153"/>
<path d="M23.5208 16.996C23.5208 18.5843 22.2332 19.8719 20.6449 19.8719C19.0566 19.8719 17.769 18.5843 17.769 16.996C17.769 15.4077 19.0566 14.1201 20.6449 14.1201C22.2332 14.1201 23.5208 15.4077 23.5208 16.996Z" fill="#172153"/>
<path fill-rule="evenodd" clip-rule="evenodd" d="M20.6449 19.1529C21.8362 19.1529 22.8019 18.1872 22.8019 16.996C22.8019 15.8048 21.8362 14.8391 20.6449 14.8391C19.4537 14.8391 18.488 15.8048 18.488 16.996C18.488 18.1872 19.4537 19.1529 20.6449 19.1529ZM20.6449 19.8719C22.2332 19.8719 23.5208 18.5843 23.5208 16.996C23.5208 15.4077 22.2332 14.1201 20.6449 14.1201C19.0566 14.1201 17.769 15.4077 17.769 16.996C17.769 18.5843 19.0566 19.8719 20.6449 19.8719Z" fill="#172153"/>
</svg>
