<svg height="25" viewBox="0 0 26 25" width="26" xmlns="http://www.w3.org/2000/svg"><g fill="none" fill-rule="evenodd" stroke-linecap="round" stroke-linejoin="round" stroke-width="1.5" transform="translate(1 1)"><path d="m5.28225948 18c-4.10163007-3.8475016-4.39941389-10.39226541-.66606768-14.61812089 3.1598756-3.57539029 8.3021707-4.41991092 12.3838082-2.0337878" stroke="#121116"/><path d="m1.35734283 18c-1.30058125 2.2171445-1.73589534 3.9376487-1.00143684 4.6533951 1.11509027 1.0840532 4.60403618-.4486457 8.64409401-3.5662118" stroke="#121116"/><g stroke="#f56640"><path d="m13.0060426 19-4.0060426-4.0055753 8.9039333-8.90289466c.7262351-.72615038 1.6359873-1.24083325 2.6330219-1.48810479l2.2906059-.57510216c.5057909-.12643296 1.0182958.18237675 1.1447435.68810861.0369272.14992936.0369272.30657197 0 .45650132l-.5729312 2.29145761c-.2484194.99579945-.7642814 1.90544547-1.4905165 2.63159587z"/><path d="m9.63213116 15-3.30585586-1.0591814c-.24917945-.0791405-.38448051-.3382442-.30217236-.5778339.02367768-.0682993.06314049-.1300939.11613341-.1810474l1.15231401-1.1079666c1.02152299-.9822092 2.53238481-1.3247898 3.90343554-.8857228l1.8040141.5767497z"/><path d="m14 18.3667413 1.0591814 3.3069834c.0791405.2491794.3382442.3844805.5778339.3021724.0682993-.0236777.1300939-.0631405.1810474-.1161334l1.1079666-1.1523141c.9822092-1.0215229 1.3247898-2.5323848.8857228-3.9034355l-.5767497-1.8040141z"/></g></g></svg>