<?xml version="1.0" encoding="UTF-8"?>
<svg version="1.1" viewBox="0 0 329 168" xmlns="http://www.w3.org/2000/svg">
<g transform="translate(-998 -262)" fill="none" fill-rule="evenodd">
<g transform="translate(431 176)" fill="#C6F0DE">
<g transform="translate(567 86)">
<path d="m164.53 23.294c-77.642 0-140.86 63.227-140.86 140.87 0 6.6555-5.1761 11.832-11.831 11.832-6.655 0-11.831-5.1765-11.831-11.832 0-22.185 4.4367-43.63 12.94-63.966 8.1339-19.597 19.965-37.345 35.124-52.134 15.159-15.16 32.536-26.992 52.131-35.126 20.335-8.5042 41.779-12.941 63.962-12.941s43.627 4.437 63.962 12.941c9.2431 3.6975 17.747 8.5042 25.881 14.05l-25.511 12.571c-18.856-10.723-40.67-16.269-63.962-16.269z" fill-rule="nonzero"/>
<path d="m126.05 114.71c4.8089-4.8128 10.358-8.5149 16.276-11.106l141.68-69.6-69.544 141.79c-2.5894 5.9234-6.2886 11.477-11.098 16.289-10.728 10.736-24.415 15.919-38.471 15.919-14.057 0-27.744-5.183-38.471-15.919-21.825-21.472-21.825-56.272-0.36992-77.374zm19.606 57.383c5.1788 5.183 12.207 7.7745 18.866 7.7745 6.6585 0 13.687-2.5915 18.866-7.7745 10.358-10.366 10.358-27.396 0-38.132-5.1788-5.183-12.207-7.7745-18.866-7.7745-7.0284 0-13.687 2.5915-18.866 7.7745-10.358 10.736-10.358 27.766 0 38.132z"/>
<path d="m316.01 99.898c-6.3106-14.408-14.477-28.076-24.129-39.898l-11.879 24.013c15.962 22.904 25.242 50.242 25.242 80.166 0 6.6497 5.197 11.822 11.879 11.822s11.879-5.172 11.879-11.822c0-22.166-4.4545-43.962-12.992-64.28z"/>
</g>
</g>
</g>
</svg>
