<?xml version="1.0" encoding="UTF-8"?>
<svg width="24px" height="26px" viewBox="0 0 24 26" version="1.1" xmlns="http://www.w3.org/2000/svg" xmlns:xlink="http://www.w3.org/1999/xlink">
    <!-- Generator: Sketch 59 (86127) - https://sketch.com -->
    <title>streamline-icon-show-hat-magician@24x24</title>
    <desc>Created with Sketch.</desc>
    <g id="CDN" stroke="none" stroke-width="1" fill="none" fill-rule="evenodd" stroke-linecap="round" stroke-linejoin="round">
        <g id="CDN-(promo)Rocket-CDN-(full)-Copy" transform="translate(-469.000000, -429.000000)" stroke-width="1.5">
            <g id="streamline-icon-show-hat-magician@24x24" transform="translate(470.000000, 430.000000)">
                <path d="M16.3194103,11.1449631 L17.5135135,22.1837838 C17.5718919,23.0615823 16.9085012,23.8194398 16.0307027,23.8788796 C15.9946143,23.8810025 15.9574644,23.8820686 15.9213759,23.8820686 L4.77641278,23.8820686 C3.89755283,23.8841867 3.18321376,23.1730319 3.18109091,22.2931106 C3.18109091,22.2570221 3.18215233,22.2198722 3.18427518,22.1837838 L4.3751941,11.1449631" id="Path" stroke="#121116"></path>
                <line x1="16.748226" y1="15.1253071" x2="3.94956265" y2="15.1253071" id="Path" stroke="#121116"></line>
                <line x1="-1.86517468e-13" y1="11.1449631" x2="20.6977887" y2="11.1449631" id="Path" stroke="#121116"></line>
                <line x1="22.2899263" y1="-2.13162821e-14" x2="11.1449631" y2="7.16461916" id="Path" stroke="#F56640"></line>
                <line x1="0.796068796" y1="1.59213759" x2="3.98034398" y2="1.59213759" id="Path" stroke="#F56640"></line>
                <line x1="2.38820639" y1="-7.23865412e-14" x2="2.38820639" y2="3.18427518" id="Path" stroke="#F56640"></line>
                <line x1="4.77641278" y1="6.36855037" x2="7.96068796" y2="6.36855037" id="Path" stroke="#F56640"></line>
                <line x1="6.36855037" y1="4.77641278" x2="6.36855037" y2="7.96068796" id="Path" stroke="#F56640"></line>
            </g>
        </g>
    </g>
</svg>