<svg width="42" height="33" viewBox="0 0 42 33" fill="none" xmlns="http://www.w3.org/2000/svg">
<g clip-path="url(#clip0_779_15983)">
<path fill-rule="evenodd" clip-rule="evenodd" d="M29.2144 29.3779C22.1533 29.3779 16.4292 23.6538 16.4292 16.5928C16.4292 9.53173 22.1533 3.80762 29.2144 3.80762C36.2754 3.80762 41.9995 9.53173 41.9995 16.5928C41.9995 23.6538 36.2754 29.3779 29.2144 29.3779Z" fill="#D0D3D8"/>
<rect x="12.7578" y="3.67383" width="18.2672" height="18.2672" rx="2" transform="rotate(45 12.7578 3.67383)" fill="#172153"/>
<path fill-rule="evenodd" clip-rule="evenodd" d="M18.5781 9.49414L24.26 15.1761C25.041 15.9571 25.041 17.2234 24.26 18.0045L18.5776 23.6869C17.2205 21.6567 16.4292 19.2162 16.4292 16.5909C16.4292 13.9653 17.2207 11.5245 18.5781 9.49414Z" fill="#F26B32"/>
</g>
<defs>
<clipPath id="clip0_779_15983">
<rect width="42" height="32" fill="white" transform="translate(0 0.5)"/>
</clipPath>
</defs>
</svg>
