<svg height="23" viewBox="0 0 512 512" width="23" xmlns="http://www.w3.org/2000/svg"><path d="m320.2 243.8-49.7 99.4c-6 12.1-23.4 11.7-28.9-.6l-56.9-126.3-30 71.7h-94.1l182.5 186.5c7.1 7.3 18.6 7.3 25.7 0l182.6-186.5h-109.1zm153.5-169.9-2.4-2.5c-51.5-52.6-135.8-52.6-187.4 0l-27.9 28.6-27.9-28.5c-51.5-52.7-135.9-52.7-187.4 0l-2.4 2.4c-48.7 49.8-50.8 129.1-7.3 182.1h102.4l35.9-86.2c5.4-12.9 23.6-13.2 29.4-.4l58.2 129.3 49-97.9c5.9-11.8 22.7-11.8 28.6 0l27.6 55.2h118.9c43.5-53 41.4-132.3-7.3-182.1z" fill="#f56640"/></svg>