<svg width="14" height="15" viewBox="0 0 14 15" fill="none" xmlns="http://www.w3.org/2000/svg">
<path d="M7 0.46875C3.25391 0.46875 0.21875 3.53125 0.21875 7.25C0.21875 10.9961 3.25391 14.0312 7 14.0312C10.7188 14.0312 13.7812 10.9961 13.7812 7.25C13.7812 3.53125 10.7188 0.46875 7 0.46875ZM7 12.7188C3.96484 12.7188 1.53125 10.2852 1.53125 7.25C1.53125 4.24219 3.96484 1.78125 7 1.78125C10.0078 1.78125 12.4688 4.24219 12.4688 7.25C12.4688 10.2852 10.0078 12.7188 7 12.7188ZM7 3.47656C6.34375 3.47656 5.85156 3.99609 5.85156 4.625C5.85156 5.28125 6.34375 5.77344 7 5.77344C7.62891 5.77344 8.14844 5.28125 8.14844 4.625C8.14844 3.99609 7.62891 3.47656 7 3.47656ZM8.53125 10.4219V9.76562C8.53125 9.60156 8.36719 9.4375 8.20312 9.4375H7.875V6.70312C7.875 6.53906 7.71094 6.375 7.54688 6.375H5.79688C5.60547 6.375 5.46875 6.53906 5.46875 6.70312V7.35938C5.46875 7.55078 5.60547 7.6875 5.79688 7.6875H6.125V9.4375H5.79688C5.60547 9.4375 5.46875 9.60156 5.46875 9.76562V10.4219C5.46875 10.6133 5.60547 10.75 5.79688 10.75H8.20312C8.36719 10.75 8.53125 10.6133 8.53125 10.4219Z" fill="#121116"/>
</svg>
