<svg fill="none" height="32" viewBox="0 0 49 32" width="49" xmlns="http://www.w3.org/2000/svg"><g clip-rule="evenodd" fill-rule="evenodd"><path d="m15.6 27.95c-6.82071 0-12.35-5.5293-12.35-12.35 0-6.82071 5.52929-12.35 12.35-12.35 6.8207 0 12.35 5.52929 12.35 12.35 0 6.8207-5.5293 12.35-12.35 12.35z" fill="#ffd147"/><path d="m32.4984 27.95c-6.8207 0-12.35-5.5293-12.35-12.35 0-6.82071 5.5293-12.35 12.35-12.35s12.35 5.52929 12.35 12.35c0 6.8207-5.5293 12.35-12.35 12.35z" fill="#f56f46"/><path d="m24.0484 6.59375c2.4005 2.25302 3.9 5.45475 3.9 9.00675 0 3.5519-1.4995 6.7536-3.9 9.0066-2.4005-2.253-3.9-5.4547-3.9-9.0066 0-3.552 1.4995-6.75373 3.9-9.00675z" fill="#172153"/></g></svg>