<?xml version="1.0" encoding="UTF-8"?>
<svg version="1.1" viewBox="0 0 153 51" xmlns="http://www.w3.org/2000/svg">
<title>Logo cloudflare</title>
<g fill="none" fill-rule="evenodd">
<g fill-rule="nonzero">
<path d="m151.5 42c-0.83607 0-1.5-0.66393-1.5-1.5 0-0.81148 0.66393-1.5 1.5-1.5 0.81148 0 1.5 0.66393 1.5 1.5 0 0.81148-0.68852 1.5-1.5 1.5zm0-2.7049c-0.66393 0-1.2049 0.54098-1.2049 1.2049s0.54098 1.2049 1.2049 1.2049 1.2049-0.54098 1.2049-1.2049-0.54098-1.2049-1.2049-1.2049zm0.7623 1.9918h-0.34426l-0.29508-0.56557h-0.39344v0.56557h-0.31967v-1.6475h0.78688c0.34426 0 0.56557 0.22131 0.56557 0.54098 0 0.2459-0.14754 0.41803-0.34426 0.4918l0.34426 0.61475zm-0.59016-0.86066c0.12295 0 0.2459-0.07377 0.2459-0.2459 0-0.19672-0.098361-0.2459-0.2459-0.2459h-0.4918v0.4918h0.4918z" fill="#404041"/>
<polygon points="17 39 20.288 39 20.288 48.091 26 48.091 26 51 17 51" fill="#404041"/>
<path d="m29 45.041v-0.041096c0-3.3082 2.798-6 6.5215-6 3.7235 0 6.4785 2.6507 6.4785 5.9589v0.041096c0 3.3082-2.798 6-6.5215 6-3.7235 0-6.4785-2.6507-6.4785-5.9589m9.5993 0v-0.041096c0-1.6644-1.2483-3.1027-3.0993-3.1027-1.8295 0-3.0563 1.4178-3.0563 3.0822v0.041096c0 1.6644 1.2483 3.1027 3.0778 3.1027 1.851 0 3.0778-1.4178 3.0778-3.0822" fill="#404041"/>
<path d="m46 45.62v-6.62h3.3295v6.5569c0 1.7023 0.86398 2.5009 2.1705 2.5009s2.1705-0.77758 2.1705-2.4168v-6.641h3.3295v6.5359c0 3.8039-2.1705 5.4641-5.5421 5.4641-3.3506 0-5.4579-1.6813-5.4579-5.38" fill="#404041"/>
<path d="m62 39h4.4578c4.1276 0 6.5422 2.4599 6.5422 5.9251v0.042781c0 3.4652-2.4353 6.0321-6.6041 6.0321h-4.3959v-12zm4.5197 9.0481c1.9193 0 3.1989-1.0909 3.1989-3.0374v-0.042781c0-1.9251-1.2795-3.0374-3.1989-3.0374h-1.3002v6.0963h1.3002v0.02139z" fill="#404041"/>
<polygon points="78 39 88 39 88 41.909 81.452 41.909 81.452 43.963 87.376 43.963 87.376 46.722 81.452 46.722 81.452 51 78 51" fill="#404041"/>
<polygon points="92 39 95.267 39 95.267 48.091 101 48.091 101 51 92 51" fill="#404041"/>
<path d="m109.93 39h3.11l4.9553 12h-3.4625l-0.85008-2.1239h-4.4785l-0.82935 2.1239h-3.3796l4.9346-12zm2.8405 7.3062l-1.2855-3.377-1.3062 3.377h2.5917z" fill="#404041"/>
<path d="m122 39h5.6383c1.8298 0 3.0851 0.46975 3.8936 1.3025 0.70213 0.68327 1.0638 1.6014 1.0638 2.7972v0.042705c0 1.8363-0.97872 3.0534-2.4468 3.6726l2.8511 4.1851h-3.8298l-2.4043-3.6299h-1.4468v3.6299h-3.3191v-12zm5.4894 5.7438c1.1277 0 1.766-0.55516 1.766-1.4093v-0.042705c0-0.9395-0.68085-1.4093-1.7872-1.4093h-2.1702v2.8612h2.1915z" fill="#404041"/>
<polygon points="138 39 147.91 39 147.91 41.824 141.38 41.824 141.38 43.642 147.3 43.642 147.3 46.273 141.38 46.273 141.38 48.176 148 48.176 148 51 138 51" fill="#404041"/>
<path d="m9.3539 46.377c-0.47746 1.0068-1.4758 1.726-2.778 1.726-1.8447 0-3.1035-1.4589-3.1035-3.1027v-0.041096c0-1.6644 1.2371-3.0822 3.0818-3.0822 1.389 0 2.4524 0.80137 2.8865 1.911h3.5593c-0.56427-2.7534-3.1252-4.7877-6.424-4.7877-3.7546 0-6.576 2.6918-6.576 6v0.041096c0 3.3082 2.778 5.9589 6.5326 5.9589 3.212 0 5.7295-1.9726 6.3806-4.6027l-3.5593-0.020548z" fill="#404041"/>
<g transform="translate(77)">
<polygon points="66.789 19.588 57.632 14.385 56.052 13.708 18.592 13.962 18.592 32.81 66.789 32.81" fill="#fff"/>
<path d="m50.118 31.075c0.44825-1.5231 0.27749-2.9192-0.46959-3.9558-0.68304-0.95192-1.8357-1.5019-3.2231-1.5654l-26.276-0.33846c-0.17076 0-0.32018-0.084615-0.40556-0.21154-0.08538-0.12692-0.10673-0.29615-0.064035-0.46538 0.08538-0.25385 0.34152-0.44423 0.61901-0.46538l26.511-0.33846c3.1377-0.14808 6.5529-2.6654 7.7482-5.7538l1.5155-3.9135c0.064035-0.16923 0.08538-0.33846 0.04269-0.50769-1.7076-7.6577-8.602-13.369-16.841-13.369-7.5988 0-14.045 4.8654-16.35 11.613-1.4942-1.1-3.3939-1.6923-5.443-1.5019-3.65 0.35962-6.5743 3.2577-6.9371 6.875-0.08538 0.93077-0.021345 1.8404 0.19211 2.6865-5.9553 0.16923-10.715 4.9923-10.715 10.937 0 0.52885 0.04269 1.0577 0.10673 1.5865 0.04269 0.25385 0.25614 0.44423 0.51228 0.44423h48.496c0.27749 0 0.53363-0.19038 0.61901-0.46538l0.36287-1.2904z" fill="#F38020"/>
<path d="m58.485 14.342c-0.2348 0-0.49094 0-0.72573 0.021154-0.17076 0-0.32018 0.12692-0.38421 0.29615l-1.0246 3.5327c-0.44825 1.5231-0.27749 2.9192 0.46959 3.9558 0.68304 0.95192 1.8357 1.5019 3.2231 1.5654l5.5924 0.33846c0.17076 0 0.32018 0.084615 0.40556 0.21154 0.08538 0.12692 0.10673 0.31731 0.064035 0.46538-0.08538 0.25385-0.34152 0.44423-0.61901 0.46538l-5.8272 0.33846c-3.1591 0.14808-6.5529 2.6654-7.7482 5.7538l-0.4269 1.0788c-0.08538 0.21154 0.064035 0.42308 0.29883 0.42308h20.022c0.2348 0 0.44825-0.14808 0.51228-0.38077 0.34152-1.2269 0.53363-2.5173 0.53363-3.85 0-7.8269-6.4462-14.215-14.365-14.215" fill="#FAAE40"/>
</g>
</g>
</g>
</svg>
