<svg width="880" height="204" viewBox="0 0 880 204" fill="none" xmlns="http://www.w3.org/2000/svg">
<path d="M102.879 16.5303C55.7484 16.5303 17.4105 54.8682 17.4105 101.999C17.4105 149.306 55.7484 187.468 102.879 187.468C150.186 187.468 188.348 149.13 188.348 101.999C188.524 54.8682 150.186 16.5303 102.879 16.5303ZM61.9036 132.248L45.7243 140.689L48.0105 79.1372L100.242 111.848L82.6553 121.168C97.076 153.703 118.883 152.472 118.883 152.472C118.883 152.472 86.7002 180.61 61.9036 132.248ZM160.386 125.389L108.155 92.6786L125.742 83.3579C111.321 50.8234 89.514 52.0544 89.514 52.0544C89.514 52.0544 121.873 23.9165 146.493 72.2785L162.673 63.6613L160.386 125.389Z" fill="#9DC55D"/>
<path d="M196.086 62.2552C190.986 50.1207 183.6 39.2172 174.279 29.8966C164.959 20.5759 154.055 13.1897 141.921 8.08966C129.259 2.63793 115.893 0 102 0C88.1069 0 74.9172 2.63793 62.2552 8.08966C50.1207 13.1897 39.2172 20.5759 29.8966 29.8966C20.5759 39.2172 13.1897 50.1207 8.08965 62.2552C2.63793 74.9172 0 88.2828 0 102C0 115.717 2.63793 129.083 8.08965 141.745C13.1897 153.879 20.5759 164.783 29.8966 174.103C39.2172 183.424 50.1207 190.81 62.2552 195.91C74.9172 201.186 88.2828 204 102 204C115.717 204 129.083 201.362 141.745 195.91C153.879 190.81 164.783 183.424 174.103 174.103C183.424 164.783 190.81 153.879 195.91 141.745C201.186 129.083 204 115.717 204 102C204.176 88.2828 201.362 74.9172 196.086 62.2552ZM102 198.548C48.8897 198.548 5.62759 155.286 5.62759 102C5.62759 48.8897 48.8897 5.62759 102 5.62759C155.286 5.62759 198.548 48.8897 198.548 102.176C198.548 155.286 155.286 198.548 102 198.548Z" fill="#9DC55D"/>
<path d="M260.628 47.8346C263.442 47.4829 266.607 47.1312 270.301 46.7795C273.994 46.4277 278.566 46.4277 284.194 46.4277C288.942 46.4277 293.514 46.7795 297.911 47.6588C302.132 48.3622 306.001 49.7691 309.166 51.7036C312.332 53.6381 314.97 56.1001 316.728 59.2657C318.663 62.4312 319.542 66.3002 319.542 71.0484C319.542 73.8622 319.19 76.5002 318.311 78.9622C317.432 81.4243 316.376 83.5346 314.97 85.2933C313.563 87.0519 311.98 88.6346 310.221 89.6898C308.463 90.9208 306.704 91.6243 304.77 91.8001C306.704 91.976 308.99 92.6795 311.452 93.5588C313.914 94.6139 316.201 96.0208 318.311 97.7795C320.421 99.7139 322.18 102.176 323.587 105.166C324.994 108.155 325.697 111.673 325.697 115.893C325.697 121.697 324.642 126.269 322.532 129.962C320.421 133.655 317.432 136.469 313.914 138.579C310.221 140.69 306.001 142.097 301.252 142.976C296.504 143.679 291.404 144.207 286.128 144.207C282.083 144.207 278.038 144.031 274.17 143.855C270.301 143.679 265.728 143.152 260.804 142.624V47.8346H260.628ZM285.601 86.3484C287.711 86.3484 289.821 86.1726 291.756 85.8208C293.69 85.4691 295.273 84.7657 296.68 83.7105C298.087 82.6553 299.142 81.4243 300.021 79.6657C300.725 77.907 301.252 75.7967 301.252 73.1588C301.252 70.6967 300.725 68.5864 299.845 66.8277C298.966 65.245 297.735 64.0139 296.328 62.9588C294.921 62.0795 293.163 61.376 291.404 61.2001C289.645 60.8484 287.887 60.6726 286.128 60.6726C283.666 60.6726 281.556 60.8484 279.973 61.0243V86.3484H285.601ZM279.797 128.204C281.028 128.379 282.435 128.555 284.018 128.555C285.601 128.731 287.183 128.731 288.414 128.731C290.173 128.731 292.107 128.555 294.218 128.204C296.152 127.852 298.087 127.148 299.845 126.093C301.604 125.038 303.011 123.631 304.242 121.873C305.297 120.114 306.001 117.652 306.001 114.838C306.001 112.2 305.473 109.914 304.77 107.979C303.89 106.221 302.659 104.814 301.076 103.583C299.494 102.528 297.559 101.648 295.273 101.297C292.987 100.945 290.525 100.593 287.887 100.593H279.973V128.204H279.797Z" fill="black"/>
<path d="M374.235 97.9552C374.235 95.8449 373.883 94.0863 373.18 92.8552C372.477 91.4483 371.421 90.569 370.366 89.6897C369.135 88.9863 367.552 88.4587 365.794 88.107C364.035 87.9311 361.925 87.7552 359.814 87.7552C355.066 87.7552 349.966 88.6346 344.69 90.569C343.459 88.2828 342.58 86.1725 341.877 84.0621C341.173 82.1277 340.997 79.6656 340.997 76.8518C344.866 75.4449 348.735 74.5656 352.604 74.038C356.473 73.5104 359.99 73.1587 363.332 73.1587C372.477 73.1587 379.687 75.4449 384.787 79.6656C389.887 84.0621 392.525 91.0966 392.525 100.769V140.338C389.359 141.393 385.666 142.272 381.27 143.152C376.873 144.031 371.949 144.383 366.321 144.383C361.925 144.383 357.704 144.031 354.011 143.152C350.318 142.272 347.152 141.041 344.339 139.107C341.701 137.348 339.59 134.886 338.183 132.072C336.777 129.259 336.073 125.566 336.073 121.345C336.073 117.124 336.952 113.607 338.711 110.793C340.47 107.979 342.756 105.693 345.746 103.935C348.559 102.176 351.725 100.945 355.242 100.241C358.759 99.538 362.277 99.1863 365.794 99.1863C368.256 99.1863 371.07 99.3621 374.235 99.538V97.9552ZM374.235 111.497C373.18 111.321 371.949 111.145 370.894 110.969C369.663 110.793 368.608 110.793 367.552 110.793C363.156 110.793 359.814 111.497 357.352 113.079C354.89 114.662 353.659 117.124 353.659 120.466C353.659 122.752 354.187 124.51 355.066 125.741C355.946 126.972 357.177 127.852 358.583 128.379C359.99 128.907 361.397 129.259 362.98 129.435C364.563 129.61 365.794 129.61 367.025 129.61C368.256 129.61 369.663 129.435 370.894 129.259C372.125 129.083 373.356 128.907 374.235 128.731V111.497Z" fill="black"/>
<path d="M454.78 126.621C455.835 128.379 456.715 130.49 457.418 132.776C458.122 135.062 458.473 137.876 458.473 141.041C454.956 142.448 451.615 143.328 448.625 143.679C445.459 144.031 442.294 144.207 438.953 144.207C433.325 144.207 428.225 143.328 424.004 141.569C419.784 139.81 416.266 137.348 413.453 134.183C410.639 131.017 408.528 127.324 407.122 122.928C405.715 118.531 405.011 113.783 405.011 108.683C405.011 103.759 405.715 99.0104 407.122 94.7897C408.528 90.569 410.463 86.7001 413.277 83.5346C416.09 80.369 419.432 77.7311 423.653 75.9725C427.697 74.2139 432.622 73.1587 438.073 73.1587C440.008 73.1587 441.766 73.1587 443.349 73.3346C444.932 73.5104 446.515 73.5104 448.097 73.8621C449.504 74.038 451.087 74.5656 452.494 74.9173C453.901 75.4449 455.659 75.9725 457.594 76.6759C457.594 78.7863 457.242 80.8966 456.715 83.5346C456.187 85.9966 455.308 88.4587 454.253 90.7449C451.615 89.8656 449.328 89.338 447.394 88.9863C445.459 88.6346 443.173 88.4587 440.535 88.4587C435.084 88.4587 431.039 90.2173 428.225 93.7346C425.411 97.2518 424.004 102.352 424.004 109.035C424.004 116.069 425.587 121.345 428.401 124.51C431.39 127.852 435.435 129.435 440.535 129.435C441.766 129.435 442.997 129.435 444.228 129.435C445.284 129.435 446.339 129.259 447.394 129.083C448.449 128.907 449.504 128.731 450.559 128.379C451.966 127.676 453.373 127.148 454.78 126.621Z" fill="black"/>
<path d="M470.432 46.2508C473.421 45.7232 476.411 45.5474 479.577 45.5474C482.742 45.5474 485.908 45.7232 488.897 46.2508V142.623C485.732 143.151 482.742 143.327 479.577 143.327C476.411 143.327 473.246 143.151 470.432 142.623V46.2508ZM491.711 106.923L508.594 74.5646C511.935 74.037 515.452 73.8612 518.97 73.8612C522.311 73.8612 525.477 74.037 528.642 74.5646L511.232 106.044L531.456 142.623C527.763 143.151 524.421 143.327 521.08 143.327C517.915 143.327 514.749 143.151 511.408 142.623L491.711 106.923Z" fill="black"/>
<path d="M535.149 47.8338C538.315 47.3062 541.832 47.1304 545.877 47.1304C547.459 47.1304 549.042 47.1304 550.625 47.3062C552.208 47.4821 553.79 47.658 555.373 48.0097L568.915 119.41L585.27 48.0097C587.028 47.8338 588.611 47.4821 590.194 47.4821C591.777 47.3062 593.184 47.3062 594.766 47.3062C597.404 47.3062 600.218 47.4821 603.383 48.0097L620.442 121.168L633.983 48.0097C636.621 47.4821 639.435 47.3062 642.425 47.3062C644.183 47.3062 645.942 47.4821 647.525 47.4821C649.108 47.658 650.866 47.8338 652.449 48.0097L629.587 142.799C626.421 143.327 623.08 143.503 619.739 143.503C616.397 143.503 612.704 143.327 608.835 142.799L593.711 79.6649L577.356 142.799C575.246 142.975 573.311 143.151 571.728 143.327C570.146 143.503 568.387 143.503 566.452 143.503C563.639 143.503 560.825 143.327 557.659 142.799L535.149 47.8338Z" fill="black"/>
<path d="M663.704 47.481C667.749 47.1293 671.794 46.7776 676.014 46.6017C680.059 46.4259 684.28 46.25 688.501 46.25C692.897 46.25 697.294 46.7776 701.866 47.6569C706.439 48.5362 710.483 50.119 714.177 52.581C717.87 55.0431 720.859 58.3845 723.146 62.6052C725.432 66.8259 726.487 72.4534 726.487 79.3121C726.487 86.1707 725.432 91.7983 723.146 96.019C720.859 100.24 717.87 103.581 714.352 106.043C710.659 108.505 706.79 110.264 702.218 111.143C697.821 112.022 693.425 112.374 689.028 112.374C687.797 112.374 686.742 112.374 685.863 112.374C684.808 112.374 683.928 112.198 683.049 112.198V142.622C681.29 142.798 679.708 142.974 678.125 143.15C676.542 143.15 674.959 143.326 673.552 143.326C672.145 143.326 670.563 143.326 668.98 143.15C667.397 142.974 665.639 142.974 663.88 142.622V47.481H663.704ZM682.873 96.3707C683.928 96.5466 684.983 96.5466 685.863 96.5466C686.742 96.5466 687.973 96.5466 689.204 96.5466C691.314 96.5466 693.601 96.1948 695.711 95.6673C697.821 95.1397 699.756 94.0845 701.339 92.8535C702.921 91.4466 704.328 89.8638 705.208 87.5776C706.087 85.4672 706.614 82.8293 706.614 79.6638C706.614 76.4983 706.087 73.6845 705.208 71.3983C704.152 69.1121 702.921 67.3535 701.339 65.9466C699.756 64.5397 697.821 63.6604 695.711 63.1328C693.601 62.6052 691.49 62.2535 689.204 62.2535C688.149 62.2535 687.27 62.2535 686.566 62.2535C685.687 62.2535 684.456 62.4293 682.873 62.6052V96.3707Z" fill="black"/>
<path d="M739.325 74.5648C742.49 74.0372 745.656 73.8613 748.646 73.8613C751.635 73.8613 754.801 74.0372 757.966 74.5648V110.617C757.966 114.31 758.318 117.123 758.846 119.585C759.373 121.872 760.253 123.806 761.484 125.037C762.715 126.444 764.122 127.323 765.88 127.851C767.639 128.379 769.749 128.73 772.035 128.73C775.201 128.73 778.015 128.379 780.301 127.851V74.5648C783.466 74.0372 786.456 73.8613 789.446 73.8613C792.435 73.8613 795.601 74.0372 798.766 74.5648V140.161C795.953 141.216 792.259 142.096 787.687 142.975C783.115 143.854 778.19 144.382 773.266 144.382C768.87 144.382 764.473 144.03 760.428 143.327C756.208 142.623 752.69 141.217 749.525 138.93C746.359 136.644 743.897 133.303 742.139 128.906C740.204 124.51 739.325 118.706 739.325 111.32V74.5648Z" fill="black"/>
<path d="M815.649 74.3881C816.88 74.2122 818.111 74.0364 819.342 73.8605C820.573 73.8605 821.804 73.6846 823.387 73.6846C825.849 73.6846 828.311 73.8605 830.949 74.3881C831.125 74.9157 831.477 75.4433 831.653 76.3226C831.828 77.2019 832.004 78.0812 832.356 78.9605C832.532 80.0157 832.708 80.895 832.884 81.7743C833.06 82.6536 833.06 83.5329 833.235 84.0605C833.939 82.6536 834.994 81.2467 836.049 79.8398C837.104 78.4329 838.511 77.2019 840.27 76.1467C841.853 75.0915 843.787 74.2122 845.722 73.5088C847.656 72.8053 849.942 72.4536 852.404 72.4536C856.097 72.4536 859.791 73.1571 862.956 74.564C866.297 75.9709 869.111 78.0812 871.573 80.895C874.035 83.7088 875.97 87.4019 877.377 91.6226C878.784 96.0191 879.487 101.119 879.487 106.923C879.487 112.55 878.608 117.826 877.025 122.223C875.266 126.795 872.98 130.664 869.815 133.829C866.649 136.995 862.78 139.457 858.208 141.216C853.635 142.974 848.535 143.854 842.732 143.854C841.149 143.854 839.742 143.854 838.335 143.678C836.929 143.502 835.697 143.326 834.642 143.15V173.398C833.06 173.574 831.301 173.75 829.894 173.926C828.311 173.926 826.904 174.102 825.322 174.102C823.739 174.102 822.332 174.102 820.749 173.926C819.166 173.75 817.584 173.574 816.001 173.398V74.3881H815.649ZM834.291 128.202C836.753 128.905 839.391 129.257 842.38 129.257C847.832 129.257 852.053 127.498 854.866 123.981C857.68 120.464 859.263 115.188 859.263 107.978C859.263 105.34 859.087 102.702 858.56 100.416C858.032 98.1295 857.328 96.0191 856.273 94.4364C855.218 92.8536 853.811 91.4467 852.229 90.3915C850.646 89.5122 848.535 88.9846 846.249 88.9846C844.139 88.9846 842.204 89.3364 840.622 90.2157C839.039 91.095 837.808 92.1502 836.928 93.5571C835.873 94.964 835.346 96.7226 834.818 98.6571C834.291 100.592 834.115 102.702 834.115 104.812V128.202H834.291Z" fill="black"/>
</svg>
