<?xml version="1.0" encoding="UTF-8"?>
<svg version="1.1" viewBox="0 0 163 44" xmlns="http://www.w3.org/2000/svg">
<defs>
<linearGradient id="d" x1="50.138%" x2="50.138%" y1="100%" y2="32.535%">
<stop stop-color="#F56640" offset="0"/>
<stop stop-color="#F57840" offset=".24386"/>
<stop stop-color="#FFBE54" offset="1"/>
</linearGradient>
<linearGradient id="c" x1="50.003%" x2="50.003%" y1="98.321%" y2="18.977%">
<stop stop-color="#F56640" offset="0"/>
<stop stop-color="#F57840" offset=".18109"/>
<stop stop-color="#FFBE54" offset="1"/>
</linearGradient>
<linearGradient id="b" x1="50%" x2="50%" y1="110.43%" y2="-25.444%">
<stop stop-color="#F56640" offset="0"/>
<stop stop-color="#F57840" offset=".083788"/>
<stop stop-color="#FFBE54" offset="1"/>
</linearGradient>
<linearGradient id="a" x1="50%" x2="50%" y1="84.378%">
<stop stop-color="#F56640" offset="0"/>
<stop stop-color="#F57840" offset=".39108"/>
<stop stop-color="#FFBE54" offset="1"/>
</linearGradient>
</defs>
<g transform="translate(-29 -17)" fill="none" fill-rule="evenodd">
<g transform="translate(29 17)">
<path d="m18.445 22.699c-0.82358 0-1.5957-0.47752-1.9732-1.2279l-0.652-1.4496h-6.4685l-0.652 1.4496c-0.37747 0.75039-1.1496 1.2279-1.9732 1.2279h-0.34316l2.7624 20.926c0.13726 0.39225 0.39463 0.39225 0.54905 0l2.7453-6.6853 2.3849 6.6682c0.13726 0.39225 0.39463 0.39225 0.54905 0l3.1914-20.891-0.12011-0.017054z" fill="url(#d)"/>
<path d="m15.562 19.442h-5.9366l-0.90937 2.0295c-0.30884 0.61395-0.90937 1.0574-1.5614 1.1767l2.0933 12.91c0.13726 0.23876 0.39463 0.23876 0.54905 0l2.6766-4.0419 2.4536 4.0248c0.15442 0.23876 0.39463 0.23876 0.54905 0l2.3678-12.927c-0.58337-0.17054-1.0981-0.57984-1.3726-1.1426l-0.90937-2.0295z" fill="url(#c)"/>
<path d="m16.472 21.471l-3.8948-8.6465-3.8777 8.6465c-0.13726 0.25581-0.30884 0.47752-0.51474 0.66512l1.6128 8.5783c0.085789 0.11938 0.30884 0.15349 0.46326 0l2.1619-2.8481 2.1619 2.831c0.13726 0.17054 0.37747 0.13643 0.46326 0l1.7844-8.6806c-0.13726-0.17054-0.25737-0.34109-0.36032-0.54574" fill="url(#b)"/>
<path d="m16.472 21.471l-3.8948-8.6465-3.8777 8.6465c-0.13726 0.25581-0.30884 0.47752-0.51474 0.66512l1.6128 8.5783c0.085789 0.11938 0.30884 0.15349 0.46326 0l2.1619-2.8481 2.1619 2.831c0.13726 0.17054 0.37747 0.13643 0.46326 0l1.7844-8.6806c-0.13726-0.17054-0.25737-0.34109-0.36032-0.54574" fill="url(#a)" opacity=".5"/>
<path d="m0.15442 1.0574c-0.12011-0.4093 0.12011-0.69922 0.53189-0.69922h3.4144c0.24021 0 0.46326 0.20465 0.53189 0.4093l2.5051 9.8062h0.12011l4.5125-10.181c0.08579-0.17054 0.25737-0.32403 0.49758-0.32403h0.53189c0.25737 0 0.42895 0.13643 0.49758 0.32403l4.5125 10.181h0.12011l2.5051-9.8062c0.051474-0.20465 0.29168-0.4093 0.53189-0.4093h3.4144c0.41179 0 0.63484 0.28992 0.53189 0.69922l-5.5077 19.442c-0.051474 0.23876-0.29168 0.4093-0.53189 0.4093h-0.46326c-0.20589 0-0.41179-0.13643-0.49758-0.32403l-5.3361-11.836h-0.085789l-5.3018 11.836c-0.085789 0.17054-0.29168 0.32403-0.49758 0.32403h-0.46326c-0.24021 0-0.46326-0.17054-0.53189-0.4093l-5.542-19.442" fill="#fff"/>
<path d="m27.95 0.90388c0-0.28992 0.24021-0.54574 0.54905-0.54574h7.0176c3.586 0 6.52 2.8992 6.52 6.3953 0 3.5814-2.934 6.5147-6.4857 6.5147h-3.0541v6.8047c0 0.28992-0.25737 0.54574-0.54905 0.54574h-3.4316c-0.326 0-0.54905-0.25581-0.54905-0.54574v-19.169h-0.017158zm7.3093 8.1349c1.2525 0 2.2992-0.98915 2.2992-2.2853 0-1.2109-1.0466-2.1488-2.2992-2.1488h-2.7624v4.4341h2.7624z" fill="#fff"/>
<path d="m51.525 0.90388c0-0.28992 0.24021-0.54574 0.54905-0.54574h8.6991c3.5002 0 6.3484 2.814 6.3484 6.2589 0 2.6605-1.7673 4.8093-4.3066 5.8155l3.9806 7.3504c0.20589 0.37519 0 0.83566-0.49758 0.83566h-3.8777c-0.24021 0-0.41179-0.13643-0.46326-0.25581l-3.8777-7.6744h-2.0075v7.3845c0 0.28992-0.25737 0.54574-0.54905 0.54574h-3.4659c-0.326 0-0.54905-0.25581-0.54905-0.54574l0.017158-19.169zm8.8878 8.1008c1.2011 0 2.2134-1.0915 2.2134-2.3194 0-1.2109-1.0123-2.2-2.2134-2.2h-4.3066v4.5194h4.3066z" fill="#fff"/>
<path d="m80.007 0.068217c5.8165 0 10.483 4.6558 10.483 10.454 0 5.7984-4.6498 10.386-10.483 10.386-5.8165 0-10.449-4.6047-10.449-10.386 0-5.7814 4.6326-10.454 10.449-10.454m0 16.202c3.2085 0 5.8165-2.6093 5.8165-5.7643 0-3.1891-2.6252-5.8155-5.8165-5.8155-3.1742 0-5.7994 2.6264-5.7994 5.8155 0 3.155 2.6252 5.7643 5.7994 5.7643" fill="#fff"/>
<path d="m103.03 0.068217c2.9168 0 5.0616 0.90388 7.0519 2.6946 0.25737 0.23876 0.25737 0.57984 0.034315 0.80155l-2.2648 2.3364c-0.20589 0.20465-0.53189 0.20465-0.72063 0-1.0809-0.95504-2.5051-1.4837-3.9292-1.4837-3.2943 0-5.7136 2.7287-5.7136 5.969 0 3.2062 2.4536 5.8837 5.7307 5.8837 1.3726 0 2.8482-0.49457 3.8948-1.3814 0.2059-0.17054 0.58337-0.17054 0.75495 0.034108l2.2648 2.4047c0.2059 0.20465 0.17158 0.57984-0.034315 0.7845-1.9732 1.9101-4.4782 2.814-7.0691 2.814-5.8165 0-10.518-4.6047-10.518-10.386 0-5.7814 4.7013-10.471 10.518-10.471" fill="#fff"/>
<path d="m113.6 1.0574c0-0.37519 0.29168-0.69922 0.70347-0.69922h3.4144c0.37747 0 0.70347 0.32403 0.70347 0.69922v7.6062l6.4685-8.0155c0.1201-0.13643 0.37747-0.28992 0.54905-0.28992h3.6718c0.54905 0 0.84074 0.63101 0.5319 1.0744l-6.8117 8.476 7.4294 9.6016c0.326 0.42636 0 1.0744-0.54905 1.0744h-4.0149c-0.2059 0-0.46326-0.11938-0.5319-0.20465l-6.7602-9.0899v8.6295c0 0.37519-0.326 0.69922-0.70347 0.69922h-3.4144c-0.41179 0-0.70347-0.32403-0.70347-0.69922l0.017158-18.862z" fill="#fff"/>
<path d="m133.2 0.90388c0-0.28992 0.24021-0.54574 0.54905-0.54574h12.062c0.326 0 0.54905 0.25581 0.54905 0.54574v3.155c0 0.28992-0.24021 0.54574-0.54905 0.54574h-8.0642v3.5814h6.6401c0.29168 0 0.54905 0.25581 0.54905 0.54574v3.155c0 0.32403-0.25737 0.54574-0.54905 0.54574h-6.6401v3.9225h8.0642c0.326 0 0.54905 0.25581 0.54905 0.54574v3.155c0 0.28992-0.24021 0.54574-0.54905 0.54574h-12.062c-0.326 0-0.54905-0.25581-0.54905-0.54574v-19.152" fill="#fff"/>
<path d="m152.88 4.6047h-4.1694c-0.326 0-0.54905-0.25581-0.54905-0.54574v-3.155c0-0.28992 0.24021-0.54574 0.54905-0.54574h12.92c0.326 0 0.54905 0.25581 0.54905 0.54574v3.155c0 0.28992-0.24021 0.54574-0.54905 0.54574h-4.1694v15.451c0 0.28992-0.25737 0.54574-0.54905 0.54574h-3.5002c-0.29168 0-0.54905-0.25581-0.54905-0.54574l0.017158-15.451z" fill="#fff"/>
<path d="m24.221 35.491c1.2448 0 2.117-0.65653 2.117-1.7592v-0.016834c0-0.97637-0.64358-1.4225-1.8969-1.7255-1.1432-0.26934-1.4142-0.47135-1.4142-0.92587v-0.016834c0-0.38718 0.35566-0.69861 0.96537-0.69861 0.46575 0 0.90609 0.15151 1.3634 0.4461 0.084682 0.050502 0.16936 0.075753 0.27098 0.075753 0.27098 0 0.49115-0.21043 0.49115-0.47977 0-0.20201-0.11009-0.3451-0.22864-0.41243-0.53349-0.35351-1.1347-0.54711-1.8799-0.54711-1.1771 0-2.0239 0.69861-2.0239 1.7087v0.016834c0 1.0858 0.71133 1.4561 1.9731 1.7592 1.1009 0.25251 1.338 0.47977 1.338 0.90062v0.016834c0 0.43768-0.40647 0.7407-1.0501 0.7407s-1.1686-0.21884-1.6598-0.60603c-0.067745-0.050502-0.1609-0.092587-0.30485-0.092587-0.27098 0-0.49115 0.21043-0.49115 0.47977 0 0.16834 0.084682 0.31143 0.20324 0.3956 0.66052 0.48819 1.4227 0.7407 2.2271 0.7407zm7.1979-4.0654c0-0.28618-0.23711-0.51344-0.51656-0.51344-0.28792 0-0.51656 0.22726-0.51656 0.51344v2.0453c0 0.6902-0.41494 1.0942-1.0077 1.0942-0.60971 0-0.9569-0.38718-0.9569-1.0774v-2.0622c0-0.28618-0.22864-0.51344-0.51656-0.51344-0.27945 0-0.50809 0.22726-0.50809 0.51344v2.3652c0 1.0353 0.5843 1.7087 1.592 1.7087 0.69439 0 1.1093-0.36193 1.3972-0.78278v0.22726c0 0.28618 0.23711 0.50502 0.51656 0.50502 0.28792 0 0.51656-0.22726 0.51656-0.50502v-3.5183zm1.2787 4.865v-4.865c0-0.28618 0.22017-0.51344 0.50809-0.51344s0.51656 0.22726 0.51656 0.51344v0.27776c0.33026-0.46294 0.79601-0.83328 1.5243-0.83328 1.0501 0 2.0747 0.82487 2.0747 2.3063v0.016834c0 1.473-1.0162 2.3063-2.0747 2.3063-0.7452 0-1.2109-0.37035-1.5243-0.78278v1.574c0 0.28618-0.22864 0.50502-0.51656 0.50502-0.27945 0-0.50809-0.21884-0.50809-0.50502zm2.3033-1.675c0.70286 0 1.2787-0.54711 1.2787-1.4225v-0.016834c0-0.85854-0.5843-1.4225-1.2787-1.4225-0.69439 0-1.3041 0.57236-1.3041 1.4225v0.016834c0 0.85012 0.60971 1.4225 1.3041 1.4225zm4.1494-1.7423h2.2949c-0.067745-0.65653-0.45728-1.17-1.1347-1.17-0.62664 0-1.067 0.47977-1.1601 1.17zm2.8876 2.0453c-0.40647 0.36193-0.91456 0.58919-1.609 0.58919-1.2956 0-2.2949-0.93429-2.2949-2.3063v-0.016834c0-1.271 0.90609-2.3147 2.1848-2.3147 1.4227 0 2.1255 1.1615 2.1255 2.1884 0 0.28618-0.22017 0.48819-0.48269 0.48819h-2.803c0.11009 0.72386 0.62664 1.1279 1.2872 1.1279 0.43188 0 0.7706-0.15151 1.0585-0.38718 0.076214-0.058919 0.14396-0.092587 0.26251-0.092587 0.22864 0 0.40647 0.17676 0.40647 0.41243 0 0.12626-0.059277 0.23568-0.13549 0.31143zm1.4565 0.025251c0 0.28618 0.22864 0.50502 0.50809 0.50502 0.28792 0 0.51656-0.22726 0.51656-0.50502v-1.3131c0-1.0521 0.49962-1.6077 1.2279-1.7339 0.22864-0.042085 0.40647-0.21884 0.40647-0.48819 0-0.2946-0.1863-0.50502-0.50809-0.50502-0.44881 0-0.88916 0.42085-1.1263 0.97637v-0.45452c0-0.28618-0.22864-0.51344-0.51656-0.51344s-0.50809 0.22726-0.50809 0.51344v3.5183zm3.4804-5.126c0 0.30301 0.25404 0.50502 0.5843 0.50502 0.33026 0 0.5843-0.20201 0.5843-0.50502v-0.050502c0-0.30301-0.25404-0.4966-0.5843-0.4966-0.33026 0-0.5843 0.19359-0.5843 0.4966v0.050502zm0.076214 5.126c0 0.28618 0.22864 0.50502 0.50809 0.50502 0.28792 0 0.51656-0.21884 0.51656-0.50502v-3.5183c0-0.28618-0.22864-0.51344-0.51656-0.51344-0.28792 0-0.50809 0.22726-0.50809 0.51344v3.5183zm4.4881 0.56394c-1.3634 0-2.3711-1.0353-2.3711-2.2978v-0.016834c0-1.271 1.0162-2.3231 2.388-2.3231s2.3796 1.0353 2.3796 2.3063v0.016834c0 1.2626-1.0162 2.3147-2.3965 2.3147zm0.016936-0.8922c0.82988 0 1.3549-0.63969 1.3549-1.4056v-0.016834c0-0.78278-0.56737-1.4309-1.3718-1.4309-0.82141 0-1.3464 0.63969-1.3464 1.4141v0.016834c0 0.77437 0.56737 1.4225 1.3634 1.4225zm3.4211 0.32826c0 0.28618 0.22864 0.50502 0.50809 0.50502 0.28792 0 0.51656-0.22726 0.51656-0.50502v-1.3131c0-1.0521 0.49962-1.6077 1.2279-1.7339 0.22864-0.042085 0.40647-0.21884 0.40647-0.48819 0-0.2946-0.1863-0.50502-0.50809-0.50502-0.44881 0-0.88916 0.42085-1.1263 0.97637v-0.45452c0-0.28618-0.22864-0.51344-0.51656-0.51344s-0.50809 0.22726-0.50809 0.51344v3.5183zm7.5451 0.11784c0.10162 0.26934 0.28792 0.42927 0.54196 0.42927h0.10162c0.25404 0 0.44881-0.15992 0.54196-0.42927l1.321-3.8466 1.321 3.8466c0.09315 0.26934 0.27945 0.42927 0.53349 0.42927h0.10162c0.25404 0 0.44881-0.16834 0.54196-0.42927l1.7529-4.8819c0.025404-0.058919 0.050809-0.14309 0.050809-0.21043 0-0.27776-0.23711-0.4966-0.51656-0.4966-0.25404 0-0.43188 0.15992-0.50809 0.37035l-1.3634 4.057-1.338-4.0318c-0.076214-0.24409-0.26251-0.41243-0.52503-0.41243h-0.076214c-0.26251 0-0.44034 0.16834-0.52503 0.41243l-1.338 4.0318-1.3634-4.0486c-0.067745-0.21884-0.26251-0.37877-0.51656-0.37877-0.28792 0-0.53349 0.21884-0.53349 0.50502 0 0.067336 0.016936 0.14309 0.042341 0.20201l1.7529 4.8819zm9.4928 0.4461c-1.3634 0-2.3711-1.0353-2.3711-2.2978v-0.016834c0-1.271 1.0162-2.3231 2.388-2.3231s2.3796 1.0353 2.3796 2.3063v0.016834c0 1.2626-1.0162 2.3147-2.3965 2.3147zm0.016936-0.8922c0.82988 0 1.3549-0.63969 1.3549-1.4056v-0.016834c0-0.78278-0.56737-1.4309-1.3718-1.4309-0.82141 0-1.3464 0.63969-1.3464 1.4141v0.016834c0 0.77437 0.56737 1.4225 1.3634 1.4225zm3.4211 0.32826c0 0.28618 0.22864 0.50502 0.50809 0.50502 0.28792 0 0.51656-0.22726 0.51656-0.50502v-1.3131c0-1.0521 0.49962-1.6077 1.2279-1.7339 0.22864-0.042085 0.40647-0.21884 0.40647-0.48819 0-0.2946-0.1863-0.50502-0.50809-0.50502-0.44881 0-0.88916 0.42085-1.1263 0.97637v-0.45452c0-0.28618-0.22864-0.51344-0.51656-0.51344-0.28792 0-0.50809 0.22726-0.50809 0.51344v3.5183zm7.7653-5.2186v5.2186c0 0.28618-0.22864 0.50502-0.50809 0.50502-0.28792 0-0.51656-0.21884-0.51656-0.50502v-0.27776c-0.33026 0.46294-0.79601 0.83328-1.5243 0.83328-1.0501 0-2.0747-0.83328-2.0747-2.3063v-0.016834c0-1.473 1.0077-2.3063 2.0747-2.3063 0.73673 0 1.2025 0.36193 1.5243 0.78278v-1.9275c0-0.28618 0.22864-0.50502 0.50809-0.50502 0.28792 0 0.51656 0.21884 0.51656 0.50502zm-2.3033 2.0285c-0.70286 0-1.2872 0.53869-1.2872 1.4225v0.016834c0 0.85854 0.59277 1.4225 1.2872 1.4225 0.68592 0 1.2956-0.57236 1.2956-1.4225v-0.016834c0-0.85854-0.60971-1.4225-1.2956-1.4225zm3.7091 3.1816v-4.8987c0-0.2946 0.22864-0.52186 0.52503-0.52186h1.8122c1.3888 0 2.2525 0.78278 2.2525 1.9696v0.016834c0 1.3215-1.067 2.0117-2.3711 2.0117h-1.1771v1.4225c0 0.28618-0.22864 0.51344-0.51656 0.51344-0.29639 0-0.52503-0.22726-0.52503-0.51344zm1.0416-2.3568h1.2109c0.78754 0 1.2787-0.43768 1.2787-1.0521v-0.016834c0-0.6902-0.49962-1.0521-1.2787-1.0521h-1.2109v2.1211zm4.4966 2.3652c0 0.28618 0.22864 0.50502 0.50809 0.50502 0.28792 0 0.51656-0.22726 0.51656-0.50502v-1.3131c0-1.0521 0.49962-1.6077 1.2279-1.7339 0.22864-0.042085 0.40647-0.21884 0.40647-0.48819 0-0.2946-0.1863-0.50502-0.50809-0.50502-0.44881 0-0.88916 0.42085-1.1263 0.97637v-0.45452c0-0.28618-0.22864-0.51344-0.51656-0.51344-0.28792 0-0.50809 0.22726-0.50809 0.51344v3.5183zm4.1155-2.0706h2.2949c-0.067745-0.65653-0.45728-1.17-1.1347-1.17-0.62664 0-1.067 0.47977-1.1601 1.17zm2.8876 2.0453c-0.40647 0.36193-0.91456 0.58919-1.609 0.58919-1.2956 0-2.2949-0.93429-2.2949-2.3063v-0.016834c0-1.271 0.90609-2.3147 2.1848-2.3147 1.4227 0 2.1255 1.1615 2.1255 2.1884 0 0.28618-0.22017 0.48819-0.48269 0.48819h-2.803c0.11009 0.72386 0.62664 1.1279 1.2872 1.1279 0.43188 0 0.7706-0.15151 1.0585-0.38718 0.076214-0.058919 0.14396-0.092587 0.26251-0.092587 0.22864 0 0.40647 0.17676 0.40647 0.41243 0 0.12626-0.059277 0.23568-0.13549 0.31143zm2.9893 0.57236c0.9315 0 1.6598-0.46294 1.6598-1.3972v-0.016834c0-0.79962-0.73673-1.0942-1.3888-1.2962-0.52503-0.16834-1.0077-0.30301-1.0077-0.63128v-0.016834c0-0.25251 0.22864-0.43768 0.62664-0.43768 0.31332 0 0.68592 0.11784 1.0501 0.30301 0.067745 0.033668 0.11855 0.050502 0.20324 0.050502 0.23711 0 0.42341-0.17676 0.42341-0.41243 0-0.17676-0.10162-0.31143-0.24558-0.38718-0.43188-0.22726-0.9315-0.36193-1.4057-0.36193-0.88916 0-1.592 0.51344-1.592 1.3551v0.016834c0 0.85012 0.73673 1.1195 1.3972 1.3046 0.52503 0.15992 0.99924 0.27776 0.99924 0.62286v0.016834c0 0.2946-0.25404 0.47977-0.69439 0.47977-0.40647 0-0.85528-0.14309-1.2872-0.42927-0.059277-0.033668-0.13549-0.058919-0.22017-0.058919-0.23711 0-0.41494 0.18517-0.41494 0.41243 0 0.16834 0.084682 0.2946 0.19477 0.35351 0.51656 0.35351 1.1347 0.53027 1.7021 0.53027zm4.1579 0c0.9315 0 1.6598-0.46294 1.6598-1.3972v-0.016834c0-0.79962-0.73673-1.0942-1.3888-1.2962-0.52503-0.16834-1.0077-0.30301-1.0077-0.63128v-0.016834c0-0.25251 0.22864-0.43768 0.62664-0.43768 0.31332 0 0.68592 0.11784 1.0501 0.30301 0.067745 0.033668 0.11855 0.050502 0.20324 0.050502 0.23711 0 0.42341-0.17676 0.42341-0.41243 0-0.17676-0.10162-0.31143-0.24558-0.38718-0.43188-0.22726-0.9315-0.36193-1.4057-0.36193-0.88916 0-1.592 0.51344-1.592 1.3551v0.016834c0 0.85012 0.73673 1.1195 1.3972 1.3046 0.52503 0.15992 0.99924 0.27776 0.99924 0.62286v0.016834c0 0.2946-0.25404 0.47977-0.69439 0.47977-0.40647 0-0.85528-0.14309-1.2872-0.42927-0.059277-0.033668-0.13549-0.058919-0.22017-0.058919-0.23711 0-0.41494 0.18517-0.41494 0.41243 0 0.16834 0.084682 0.2946 0.19477 0.35351 0.51656 0.35351 1.1347 0.53027 1.7021 0.53027zm5.3688-0.55552v-4.8987c0-0.2946 0.22864-0.52186 0.52503-0.52186h1.8122c1.3888 0 2.2525 0.78278 2.2525 1.9696v0.016834c0 1.3215-1.067 2.0117-2.3711 2.0117h-1.1771v1.4225c0 0.28618-0.22864 0.51344-0.51656 0.51344-0.29639 0-0.52503-0.22726-0.52503-0.51344zm1.0416-2.3568h1.2109c0.78754 0 1.2787-0.43768 1.2787-1.0521v-0.016834c0-0.6902-0.49962-1.0521-1.2787-1.0521h-1.2109v2.1211zm5.2249 0.2946h2.2949c-0.067746-0.65653-0.45728-1.17-1.1347-1.17-0.62664 0-1.067 0.47977-1.1601 1.17zm2.8876 2.0453c-0.40647 0.36193-0.91456 0.58919-1.609 0.58919-1.2956 0-2.2949-0.93429-2.2949-2.3063v-0.016834c0-1.271 0.90609-2.3147 2.1848-2.3147 1.4227 0 2.1255 1.1615 2.1255 2.1884 0 0.28618-0.22017 0.48819-0.48268 0.48819h-2.803c0.11009 0.72386 0.62664 1.1279 1.2872 1.1279 0.43188 0 0.7706-0.15151 1.0585-0.38718 0.076213-0.058919 0.14396-0.092587 0.26251-0.092587 0.22864 0 0.40647 0.17676 0.40647 0.41243 0 0.12626-0.059278 0.23568-0.13549 0.31143zm1.4565 0.025251c0 0.28618 0.22864 0.50502 0.50809 0.50502 0.28792 0 0.51656-0.22726 0.51656-0.50502v-1.3131c0-1.0521 0.49962-1.6077 1.2279-1.7339 0.22864-0.042085 0.40647-0.21884 0.40647-0.48819 0-0.2946-0.1863-0.50502-0.50809-0.50502-0.44881 0-0.88916 0.42085-1.1263 0.97637v-0.45452c0-0.28618-0.22864-0.51344-0.51656-0.51344-0.28792 0-0.50809 0.22726-0.50809 0.51344v3.5183zm3.726 0c0 0.27776 0.22864 0.50502 0.50809 0.50502 0.28792 0 0.51656-0.22726 0.51656-0.50502v-3.1059h0.77907c0.23711 0 0.43188-0.18517 0.43188-0.42085s-0.1863-0.42085-0.43188-0.42085h-0.79601v-0.24409c0-0.46294 0.20324-0.67336 0.59277-0.67336 0.067745 0 0.15243 0.008417 0.2117 0.016834 0.23711 0.008417 0.43188-0.18517 0.43188-0.42085 0-0.22726-0.16936-0.3956-0.35566-0.42085-0.14396-0.025251-0.31332-0.042085-0.51656-0.042085-0.44034 0-0.7706 0.11784-1.0077 0.35351-0.23711 0.23568-0.36413 0.60603-0.36413 1.0942v0.32826h-0.17783c-0.23711 0-0.43188 0.19359-0.43188 0.42927s0.19477 0.42085 0.43188 0.42085h0.17783v3.1059zm4.9962 0.56394c-1.3634 0-2.3711-1.0353-2.3711-2.2978v-0.016834c0-1.271 1.0162-2.3231 2.388-2.3231 1.3718 0 2.3796 1.0353 2.3796 2.3063v0.016834c0 1.2626-1.0162 2.3147-2.3965 2.3147zm0.016936-0.8922c0.82988 0 1.3549-0.63969 1.3549-1.4056v-0.016834c0-0.78278-0.56737-1.4309-1.3718-1.4309-0.82141 0-1.3464 0.63969-1.3464 1.4141v0.016834c0 0.77437 0.56737 1.4225 1.3634 1.4225zm3.4211 0.32826c0 0.28618 0.22864 0.50502 0.50809 0.50502 0.28792 0 0.51656-0.22726 0.51656-0.50502v-1.3131c0-1.0521 0.49962-1.6077 1.2279-1.7339 0.22864-0.042085 0.40647-0.21884 0.40647-0.48819 0-0.2946-0.1863-0.50502-0.50809-0.50502-0.44881 0-0.88916 0.42085-1.1263 0.97637v-0.45452c0-0.28618-0.22864-0.51344-0.51656-0.51344-0.28792 0-0.50809 0.22726-0.50809 0.51344v3.5183zm3.4974 0c0 0.28618 0.22864 0.50502 0.50809 0.50502 0.28792 0 0.51656-0.21884 0.51656-0.50502v-2.0453c0-0.68178 0.38954-1.1026 0.9569-1.1026 0.56737 0 0.90609 0.38718 0.90609 1.0774v2.0706c0 0.28618 0.22864 0.50502 0.51656 0.50502 0.27945 0 0.50809-0.21884 0.50809-0.50502v-2.0453c0-0.71545 0.398-1.1026 0.9569-1.1026 0.57584 0 0.90609 0.37877 0.90609 1.0858v2.0622c0 0.28618 0.22864 0.50502 0.51656 0.50502 0.28792 0 0.50809-0.21884 0.50809-0.50502v-2.3736c0-1.0858-0.59277-1.7002-1.5666-1.7002-0.67745 0-1.1517 0.31143-1.5073 0.78278-0.23711-0.47135-0.69439-0.78278-1.338-0.78278-0.68592 0-1.0755 0.37035-1.3634 0.76595v-0.21043c0-0.28618-0.22864-0.51344-0.51656-0.51344-0.28792 0-0.50809 0.22726-0.50809 0.51344v3.5183zm9.3319 0.55552c-0.83835 0-1.5835-0.47977-1.5835-1.372v-0.016834c0-0.95954 0.75367-1.4309 1.8461-1.4309 0.49962 0 0.85528 0.075753 1.2025 0.18517v-0.10942c0-0.63128-0.38954-0.96796-1.1093-0.96796-0.38954 0-0.71133 0.067336-0.99078 0.17676-0.059277 0.016834-0.11009 0.025251-0.1609 0.025251-0.23711 0-0.43188-0.18517-0.43188-0.42085 0-0.18517 0.12702-0.3451 0.27945-0.40402 0.42341-0.15992 0.85528-0.26093 1.4396-0.26093 0.66898 0 1.1686 0.17676 1.4819 0.4966 0.33026 0.31985 0.48268 0.7912 0.48268 1.372v2.1884c0 0.27776-0.22017 0.48819-0.49962 0.48819-0.29639 0-0.49962-0.20201-0.49962-0.42927v-0.16834c-0.30485 0.36193-0.7706 0.64811-1.4565 0.64811zm0.28792-0.7407c0.67745 0 1.194-0.38718 1.194-0.95112v-0.30301c-0.26251-0.101-0.60971-0.17676-1.0162-0.17676-0.66052 0-1.0501 0.27776-1.0501 0.7407v0.016834c0 0.42927 0.38107 0.67336 0.87222 0.67336zm3.3957 0.18517c0 0.28618 0.22864 0.50502 0.50809 0.50502 0.28792 0 0.51656-0.21884 0.51656-0.50502v-2.0453c0-0.6902 0.41494-1.1026 1.0077-1.1026 0.60971 0 0.9569 0.3956 0.9569 1.0858v2.0622c0 0.28618 0.22864 0.50502 0.51656 0.50502 0.28792 0 0.50809-0.21884 0.50809-0.50502v-2.3736c0-1.0269-0.5843-1.7002-1.592-1.7002-0.69439 0-1.1093 0.36193-1.3972 0.77437v-0.21884c0-0.28618-0.22864-0.51344-0.51656-0.51344-0.28792 0-0.50809 0.22726-0.50809 0.51344v3.5183zm7.3165 0.56394c0.7452 0 1.2279-0.25251 1.6259-0.63128 0.09315-0.075753 0.14396-0.18517 0.14396-0.31985 0-0.24409-0.19477-0.4461-0.44034-0.4461-0.11855 0-0.22017 0.058919-0.27945 0.10942-0.27945 0.23568-0.59277 0.3956-0.99924 0.3956-0.78754 0-1.338-0.63128-1.338-1.4225v-0.016834c0-0.77437 0.55043-1.4141 1.2956-1.4141 0.40647 0 0.69439 0.15992 0.9569 0.37877 0.067746 0.050502 0.17783 0.101 0.30485 0.101 0.26251 0 0.47422-0.20201 0.47422-0.46294 0-0.16834-0.09315-0.2946-0.1609-0.35351-0.38107-0.32826-0.86375-0.55552-1.5666-0.55552-1.3464 0-2.3287 1.0605-2.3287 2.3231v0.016834c0 1.2626 0.98231 2.2978 2.3118 2.2978zm3.4127-2.6345h2.2949c-0.067746-0.65653-0.45728-1.17-1.1347-1.17-0.62664 0-1.067 0.47977-1.1601 1.17zm2.8876 2.0453c-0.40647 0.36193-0.91456 0.58919-1.609 0.58919-1.2956 0-2.2949-0.93429-2.2949-2.3063v-0.016834c0-1.271 0.90609-2.3147 2.1848-2.3147 1.4227 0 2.1255 1.1615 2.1255 2.1884 0 0.28618-0.22017 0.48819-0.48269 0.48819h-2.803c0.11009 0.72386 0.62664 1.1279 1.2872 1.1279 0.43188 0 0.7706-0.15151 1.0585-0.38718 0.076213-0.058919 0.14396-0.092587 0.26251-0.092587 0.22864 0 0.40647 0.17676 0.40647 0.41243 0 0.12626-0.059278 0.23568-0.13549 0.31143z" fill="#fff"/>
</g>
</g>
</svg>
