<svg viewBox="0 0 250 30" xmlns="http://www.w3.org/2000/svg"><g fill="#fff" fill-rule="evenodd" transform="translate(0 .528)"><path d="m8.249 25.362l-5.789-10.06 2.098-1.23-.615-1.52-3.726 2.135 7.417 12.88 5.789-3.329c.036-.579.109-1.158.181-1.737l-1.375.543-3.98 2.315"/><path d="m5.897 10.564l1.737-.651-.398-1.556-3.401 1.302 5.21 13.712 4.776-1.809c.181-.687.47-1.375.796-2.026l-4.631 1.773-4.088-10.745"/><path d="m15.01 5.933l-2.352 9.841 7.236-1.483c.434-.217.868-.398 1.339-.543.543-.181 1.085-.326 1.628-.434.651-.109 1.339-.181 2.026-.181h.036.543l1.556-.326-4.559-4.052-1.809 2.243-5.644-5.065"/><ellipse cx="23.734" cy="5.825" rx="1.411" ry="1.411"/><path d="m15.449 18.13c.507-.76 1.122-1.411 1.773-2.026l-5.535 1.122-2.352-11.36 16.751-3.437 2.315 11.252c.615.217 1.23.47 1.809.76l-2.858-13.929-19.899 4.052 3 14.58 4.993-1.013"/><ellipse cx="24.783" cy="24.674" rx=".868" ry=".868"/><path d="m24.964 14.182c-5.68 0-10.311 4.631-10.311 10.347 0 1.266.217 2.46.651 3.582h3.473c-.507-.904-.832-1.918-.941-3h-1.122c-.326 0-.543-.253-.543-.579 0-.326.253-.579.543-.579h1.122c.109-1.556.724-2.931 1.664-4.052l-.796-.796c-.217-.217-.217-.579 0-.796.217-.217.579-.217.796 0l.796.796c1.122-.941 2.496-1.556 4.052-1.664v-1.158c0-.326.253-.579.543-.579.326 0 .579.253.579.579v1.158c1.411.109 2.713.651 3.799 1.483l.615-.434c.326-.253.76-.217 1.049.072.289.289.326.76.072 1.049l-4.595 6.512c-.832.832-2.135.868-3 .072l-.072-.072c-.832-.832-.832-2.243 0-3.075.109-.109.181-.181.289-.253l4.559-3.111c-.941-.651-2.062-1.013-3.292-1.013-3.256 0-5.861 2.641-5.861 5.897 0 1.339.434 2.569 1.194 3.546h9.37c.76-.977 1.194-2.207 1.194-3.546 0-.76-.145-1.447-.398-2.098l.832-1.158c.434.832.687 1.737.76 2.713h1.122c.326 0 .543.253.543.579 0 .326-.253.579-.543.579h-1.122c-.072 1.085-.398 2.098-.941 3h3.582c.398-1.122.651-2.315.651-3.582-.036-5.789-4.631-10.42-10.311-10.42"/><path d="m50.29.507h-3.69c-.398 0-.76.362-.76.76v26.23c0 .398.362.76.76.76h3.69c.398 0 .76-.362.76-.76v-26.23c-.036-.398-.398-.76-.76-.76"/><path d="m90.63.687c-.036-.326-.289-.579-.724-.579h-.651c-.362 0-.543.145-.687.398l-8.719 18.705h-.109l-8.719-18.705c-.109-.253-.362-.398-.687-.398h-.651c-.434 0-.687.289-.724.579l-4.703 26.628c-.072.543.253.904.76.904h3.582c.362 0 .687-.326.724-.579l2.315-15.01h.109l7.02 15.557c.109.253.326.434.687.434h.724c.362 0 .579-.181.687-.434l6.946-15.557h.109l2.352 15.01c.072.289.398.579.76.579h3.618c.507 0 .832-.362.724-.904l-4.74-26.628"/><path d="m119.1.543c-.109-.253-.289-.434-.687-.434h-.398c-.362 0-.543.181-.687.434l-12.337 26.664c-.253.507.072 1.013.687 1.013h3.437c.651 0 .977-.398 1.158-.796l1.954-4.269h11.867l1.954 4.269c.289.543.543.796 1.158.796h3.437c.579 0 .904-.507.687-1.013l-12.229-26.664m-4.884 18.198l3.871-8.719h.109l3.944 8.719h-7.923"/><path d="m164.33 14.472h-7.598c-.434 0-.76.326-.76.76v3.111c0 .398.326.724.76.724h3.184v3.365c-.796.326-2.496.977-4.703.977-4.993 0-8.9-4.161-8.9-9.08 0-4.957 3.907-9.19 8.864-9.19 2.171 0 4.269.796 5.97 2.315.362.326.724.326 1.013 0l2.46-2.569c.326-.326.289-.796-.036-1.122-2.677-2.315-6.114-3.69-9.66-3.69-7.887 0-14.219 6.368-14.219 14.291 0 7.923 6.331 14.182 14.219 14.182 5.753 0 9.841-2.569 9.841-2.569.145-.109.326-.326.326-.651v-10.13c-.072-.362-.362-.724-.76-.724"/><path d="m183.21.507h-3.69c-.398 0-.76.362-.76.76v26.23c0 .398.362.76.76.76h3.69c.398 0 .76-.362.76-.76v-26.23c0-.398-.362-.76-.76-.76"/><path d="m215.96.507h-16.14c-.434 0-.76.362-.76.76v26.23c0 .398.326.76.76.76h3.654c.398 0 .76-.362.76-.76v-10.02h9.768c.398 0 .76-.362.76-.76v-3.256c0-.398-.362-.76-.76-.76h-9.768v-7.453h11.722c.434 0 .76-.362.76-.76v-3.256c0-.362-.289-.724-.76-.724"/><path d="m249.06.507h-4.088c-.326 0-.507.181-.651.362l-6.331 9.117-6.331-9.117c-.109-.145-.326-.362-.651-.362h-4.052c-.651 0-.941.651-.651 1.158l9.04 13.242v12.59c0 .398.326.76.76.76h3.654c.398 0 .76-.362.76-.76v-12.663l9.153-13.205c.326-.507 0-1.122-.615-1.122"/></g></svg>