<svg viewBox="0 0 246 35" xmlns="http://www.w3.org/2000/svg"><g fill="none"><g fill="#404041" transform="translate(83 21)"><path d="m161.53 3.43c-.76972 0-1.381-.63-1.381-1.4233 0-.77.61125-1.4233 1.381-1.4233.74708 0 1.381.63 1.381 1.4233 0 .79333-.63389 1.4233-1.381 1.4233zm0-2.5667c-.61125 0-1.1093.51333-1.1093 1.1433s.49806 1.1433 1.1093 1.1433 1.1093-.51333 1.1093-1.1433-.49806-1.1433-1.1093-1.1433zm.70181 1.89h-.31694l-.27167-.53667h-.36222v.53667h-.2943v-1.5633h.72444c.31694 0 .5207.21.5207.51333 0 .23333-.13583.39667-.31694.46667l.31694.58333zm-.54333-.81667c.1132 0 .22639-.07.22639-.23333 0-.18667-.090555-.23333-.22639-.23333h-.45278v.46667h.45278z"/><path d="m17.658.44333h3.532v9.91667h6.135v3.173h-9.667z"/><path d="m30.97 7.0233v-.023333c0-3.7567 2.9431-6.8133 6.8596-6.8133s6.8143 3.01 6.8143 6.7667v.046667c0 3.7567-2.9431 6.8133-6.8596 6.8133-3.8939-.023333-6.8143-3.0333-6.8143-6.79m10.097 0v-.023333c0-1.89-1.3131-3.5233-3.26-3.5233-1.9243 0-3.2147 1.61-3.2147 3.5v.046667c0 1.89 1.3131 3.5233 3.2374 3.5233 1.9469-.023333 3.2374-1.6333 3.2374-3.5233"/><path d="m48.968 7.7933v-7.35h3.5769v7.28c0 1.89.92819 2.7767 2.3318 2.7767s2.3318-.86333 2.3318-2.6833v-7.3733h3.5769v7.2567c0 4.2233-2.3318 6.0667-5.954 6.0667-3.5996.023333-5.8635-1.8667-5.8635-5.9733"/><path d="m66.173.44333h4.9126c4.5278 0 7.1765 2.6833 7.1765 6.4633v.046667c0 3.78-2.6714 6.58-7.2444 6.58h-4.8221l-.022639-13.09zm4.9579 9.87c2.1054 0 3.509-1.19 3.509-3.3133v-.046667c0-2.1-1.4036-3.3133-3.509-3.3133h-1.4262v6.65l1.4262.023333z"/><path d="m83.356.44333h10.165v3.19667h-6.656v2.2167h6.022v3.01h-6.022v4.6663h-3.509z"/><path d="m98.411.44333h3.509v9.91667h6.16v3.173h-9.669z"/><path d="m117.27.35h3.3958l5.4107 13.183h-3.7807l-.9282-2.3333h-4.89l-.90556 2.3333h-3.6901l5.3881-13.183zm3.1015 8.0267-1.4036-3.71-1.4262 3.71h2.8299z"/><path d="m130.6.44333h5.9993c1.9469 0 3.2826.51333 4.1429 1.4233.74708.74667 1.1319 1.75 1.1319 3.0567v.046667c0 2.0067-1.0414 3.3367-2.6035 4.0133l3.0336 4.5733h-4.075l-2.5582-3.9667h-1.5394v3.9667h-3.509l-.022639-13.113zm5.8408 6.3c1.1999 0 1.879-.60667 1.879-1.54v-.07c0-1.0267-.72444-1.54-1.9017-1.54h-2.3092v3.15h2.3318z"/><path d="m146.95.44333h10.21v3.10337h-6.72v1.96h6.09v2.87h-6.09v2.0763h6.81v3.08h-10.3z"/><path d="m9.9611 8.5633c-.49806 1.1433-1.5394 1.96-2.8978 1.96-1.9243 0-3.2374-1.6567-3.2374-3.5233v-.046667c0-1.89 1.2904-3.5 3.2147-3.5 1.4489 0 2.5582.91 3.011 2.17h3.7128c-.58861-3.1267-3.26-5.4367-6.7011-5.4367-3.9165 0-6.8596 3.0567-6.8596 6.8133v.046667c0 3.7567 2.8978 6.7667 6.8143 6.7667 3.3506 0 5.9767-2.24 6.6558-5.2267l-3.7128-.023333z"/></g><path d="m70.493 20.684-9.658-5.555-1.667-.723-39.513.294v20.097l50.838.022z" fill="#fff"/><path d="m52.909 32.968c.47281-1.6258.29269-3.1161-.49532-4.2226-.72047-1.0161-1.9363-1.6032-3.3997-1.671l-27.715-.36129c-.18012 0-.33772-.090323-.42778-.22581-.090058-.13548-.11257-.31613-.067544-.49677.090058-.27097.36023-.47419.65292-.49677l27.963-.36129c3.3096-.15806 6.912-2.8452 8.1728-6.1419l1.5985-4.1774c.067544-.18065.090058-.36129.045029-.54194-1.8012-8.1742-9.0734-14.271-17.764-14.271-8.0152 0-14.815 5.1935-17.246 12.397-1.576-1.1742-3.5798-1.8065-5.7412-1.6032-3.85.38387-6.9345 3.4774-7.3173 7.3387-.090058.99355-.022515 1.9645.20263 2.8677-6.2816.18065-11.302 5.329-11.302 11.674 0 .56452.045029 1.129.11257 1.6935.045029.27097.27018.47419.54035.47419h51.153c.29269 0 .56287-.20323.65292-.49677l.38275-1.3774z" fill="#f38020"/><path d="m61.735 15.106c-.24766 0-.51784 0-.7655.022581-.18012 0-.33772.13548-.40526.31613l-1.0807 3.771c-.47281 1.6258-.29269 3.1161.49532 4.2226.72047 1.0161 1.9363 1.6032 3.3997 1.671l5.8988.36129c.18012 0 .33772.090323.42778.22581.090058.13548.11257.33871.067544.49677-.090058.27097-.36023.47419-.65292.49677l-6.1465.36129c-3.3322.15806-6.912 2.8452-8.1728 6.1419l-.45029 1.1516c-.090058.22581.067544.45161.3152.45161h21.119c.24766 0 .47281-.15806.54035-.40645.36023-1.3097.56287-2.6871.56287-4.1097 0-8.3774-6.7769-15.174-15.152-15.174" fill="#faae40"/></g></svg>