<svg viewBox="0 0 153 51" xmlns="http://www.w3.org/2000/svg"><g fill="none"><g fill="#404041"><path d="m151.5 42c-.83607 0-1.5-.66393-1.5-1.5 0-.81148.66393-1.5 1.5-1.5.81148 0 1.5.66393 1.5 1.5 0 .81148-.68852 1.5-1.5 1.5zm0-2.7049c-.66393 0-1.2049.54098-1.2049 1.2049s.54098 1.2049 1.2049 1.2049 1.2049-.54098 1.2049-1.2049-.54098-1.2049-1.2049-1.2049zm.7623 1.9918h-.34426l-.29508-.56557h-.39344v.56557h-.31967v-1.6475h.78688c.34426 0 .56557.22131.56557.54098 0 .2459-.14754.41803-.34426.4918l.34426.61475zm-.59016-.86066c.12295 0 .2459-.07377.2459-.2459 0-.19672-.098361-.2459-.2459-.2459h-.4918v.4918z"/><path d="m17 39h3.288v9.091h5.712v2.909h-9z"/><path d="m29 45.041v-.041096c0-3.3082 2.798-6 6.5215-6s6.4785 2.6507 6.4785 5.9589v.041096c0 3.3082-2.798 6-6.5215 6s-6.4785-2.6507-6.4785-5.9589m9.5993 0v-.041096c0-1.6644-1.2483-3.1027-3.0993-3.1027-1.8295 0-3.0563 1.4178-3.0563 3.0822v.041096c0 1.6644 1.2483 3.1027 3.0778 3.1027 1.851 0 3.0778-1.4178 3.0778-3.0822"/><path d="m46 45.62v-6.62h3.3295v6.5569c0 1.7023.86398 2.5009 2.1705 2.5009s2.1705-.77758 2.1705-2.4168v-6.641h3.3295v6.5359c0 3.8039-2.1705 5.4641-5.5421 5.4641-3.3506 0-5.4579-1.6813-5.4579-5.38"/><path d="m62 39h4.4578c4.1276 0 6.5422 2.4599 6.5422 5.9251v.042781c0 3.4652-2.4353 6.0321-6.6041 6.0321h-4.3959v-12zm4.5197 9.0481c1.9193 0 3.1989-1.0909 3.1989-3.0374v-.042781c0-1.9251-1.2795-3.0374-3.1989-3.0374h-1.3002v6.0963h1.3002v.02139z"/><path d="m78 39h10v2.909h-6.548v2.054h5.924v2.759h-5.924v4.278h-3.452z"/><path d="m92 39h3.267v9.091h5.733v2.909h-9z"/><path d="m109.93 39h3.11l4.9553 12h-3.4625l-.85008-2.1239h-4.4785l-.82935 2.1239h-3.3796l4.9346-12zm2.8405 7.3062-1.2855-3.377-1.3062 3.377z"/><path d="m122 39h5.6383c1.8298 0 3.0851.46975 3.8936 1.3025.70213.68327 1.0638 1.6014 1.0638 2.7972v.042705c0 1.8363-.97872 3.0534-2.4468 3.6726l2.8511 4.1851h-3.8298l-2.4043-3.6299h-1.4468v3.6299h-3.3191v-12zm5.4894 5.7438c1.1277 0 1.766-.55516 1.766-1.4093v-.042705c0-.9395-.68085-1.4093-1.7872-1.4093h-2.1702v2.8612h2.1915z"/><path d="m138 39h9.91v2.824h-6.53v1.818h5.92v2.631h-5.92v1.903h6.62v2.824h-10z"/><path d="m9.3539 46.377c-.47746 1.0068-1.4758 1.726-2.778 1.726-1.8447 0-3.1035-1.4589-3.1035-3.1027v-.041096c0-1.6644 1.2371-3.0822 3.0818-3.0822 1.389 0 2.4524.80137 2.8865 1.911h3.5593c-.56427-2.7534-3.1252-4.7877-6.424-4.7877-3.7546 0-6.576 2.6918-6.576 6v.041096c0 3.3082 2.778 5.9589 6.5326 5.9589 3.212 0 5.7295-1.9726 6.3806-4.6027l-3.5593-.020548z"/></g><g transform="translate(77)"><path d="m66.789 19.588-9.157-5.203-1.58-.677-37.46.254v18.848h48.197z" fill="#fff"/><path d="m50.118 31.075c.44825-1.5231.27749-2.9192-.46959-3.9558-.68304-.95192-1.8357-1.5019-3.2231-1.5654l-26.276-.33846c-.17076 0-.32018-.084615-.40556-.21154-.08538-.12692-.10673-.29615-.064035-.46538.08538-.25385.34152-.44423.61901-.46538l26.511-.33846c3.1377-.14808 6.5529-2.6654 7.7482-5.7538l1.5155-3.9135c.064035-.16923.08538-.33846.04269-.50769-1.7076-7.6577-8.602-13.369-16.841-13.369-7.5988 0-14.045 4.8654-16.35 11.613-1.4942-1.1-3.3939-1.6923-5.443-1.5019-3.65.35962-6.5743 3.2577-6.9371 6.875-.08538.93077-.021345 1.8404.19211 2.6865-5.9553.16923-10.715 4.9923-10.715 10.937 0 .52885.04269 1.0577.10673 1.5865.04269.25385.25614.44423.51228.44423h48.496c.27749 0 .53363-.19038.61901-.46538l.36287-1.2904z" fill="#f38020"/><path d="m58.485 14.342c-.2348 0-.49094 0-.72573.021154-.17076 0-.32018.12692-.38421.29615l-1.0246 3.5327c-.44825 1.5231-.27749 2.9192.46959 3.9558.68304.95192 1.8357 1.5019 3.2231 1.5654l5.5924.33846c.17076 0 .32018.084615.40556.21154.08538.12692.10673.31731.064035.46538-.08538.25385-.34152.44423-.61901.46538l-5.8272.33846c-3.1591.14808-6.5529 2.6654-7.7482 5.7538l-.4269 1.0788c-.08538.21154.064035.42308.29883.42308h20.022c.2348 0 .44825-.14808.51228-.38077.34152-1.2269.53363-2.5173.53363-3.85 0-7.8269-6.4462-14.215-14.365-14.215" fill="#faae40"/></g></g></svg>