<svg height="52" viewBox="0 0 51 52" width="51" xmlns="http://www.w3.org/2000/svg" xmlns:xlink="http://www.w3.org/1999/xlink"><filter id="a" height="112.5%" width="112.8%" x="-6.4%" y="-6.2%"><feOffset dx="0" dy="0" in="SourceAlpha" result="shadowOffsetOuter1"/><feGaussianBlur in="shadowOffsetOuter1" result="shadowBlurOuter1" stdDeviation="1"/><feColorMatrix in="shadowBlurOuter1" result="shadowMatrixOuter1" type="matrix" values="0 0 0 0 0.0549019608   0 0 0 0 0.105882353   0 0 0 0 0.137254902  0 0 0 0.2 0"/><feMerge><feMergeNode in="shadowMatrixOuter1"/><feMergeNode in="SourceGraphic"/></feMerge></filter><g fill="none" fill-rule="evenodd" filter="url(#a)" transform="translate(2 2)"><path d="m.80798368 14.5211701 13.38247112-14.36186349h18.0372438l13.9643177 14.36186349v18.9576598l-13.9643177 14.3618635h-18.0372438l-13.38247112-14.3618635z" fill="#e2001e" fill-rule="evenodd"/><path d="m1.61925129 14.8405591v18.3188818l12.92413571 13.8699849h17.3415848l13.4957769-13.879984v-18.2988836l-13.4957769-13.87998398h-17.3415848z" stroke="#fff" stroke-width="1.622535"/><path d="m1.56666667 13.56c-.60256411 0-.96410257.36-.96410257.96v6.84c0 3.24 1.32564103 6.24 3.73589744 8.52l2.65128205 2.52c.84358974.72 1.92820513 1.2 3.01282051 1.2h6.025641c4.0974359 0 7.4717949-3.12 7.4717949-6.96v-18.96c0-.84-.8435897-1.68-1.8076923-1.68s-1.8076923.72-1.8076923 1.68v7.32c0 .36-.2410257.6-.6025641.6-.3615385 0-.6025641-.24-.6025641-.6v-10.32c0-.96-.8435898-1.68-1.8076923-1.68-.9641026 0-1.8076923.72-1.8076923 1.68v10.32c0 .36-.2410257.6-.6025641.6-.3615385 0-.6025641-.24-.6025641-.6v-13.32c0-.96-.8435898-1.68-1.8076923-1.68-.9641026 0-1.8076924.72-1.8076924 1.68v13.32c0 .36-.2410256.6-.60256406.6s-.6025641-.24-.6025641-.6v-10.32c0-.96-.84358975-1.68-1.80769231-1.68s-1.80769231.72-1.80769231 1.68v15.84c0 .36-.24102564.6-.6025641.6s-.6025641-.24-.6025641-.6v-4.56c0-1.2-1.20512821-2.4-2.65128205-2.4z" fill="#fff" fill-rule="nonzero" transform="matrix(-1 0 0 1 36.153846 7.2)"/></g></svg>