<svg viewBox="0 0 950 258" xmlns="http://www.w3.org/2000/svg" xmlns:xlink="http://www.w3.org/1999/xlink"><linearGradient id="a" x1="50.138%" x2="50.138%" y1="100%" y2="32.535%"><stop offset="0" stop-color="#f56640"/><stop offset=".24386" stop-color="#f57840"/><stop offset="1" stop-color="#ffbe54"/></linearGradient><linearGradient id="b" x1="50.003%" x2="50.003%" y1="98.321%" y2="18.977%"><stop offset="0" stop-color="#f56640"/><stop offset=".18109" stop-color="#f57840"/><stop offset="1" stop-color="#ffbe54"/></linearGradient><linearGradient id="c" x1="50%" x2="50%" y1="110.43%" y2="-25.444%"><stop offset="0" stop-color="#f56640"/><stop offset=".083788" stop-color="#f57840"/><stop offset="1" stop-color="#ffbe54"/></linearGradient><linearGradient id="d" x1="50%" x2="50%" y1="84.378%"><stop offset="0" stop-color="#f56640"/><stop offset=".39108" stop-color="#f57840"/><stop offset="1" stop-color="#ffbe54"/></linearGradient><g fill="none" fill-rule="evenodd"><path d="m107.5 133.1c-4.8 0-9.3-2.8-11.5-7.2l-3.8-8.5h-37.7l-3.8 8.5c-2.2 4.4-6.7 7.2-11.5 7.2h-2l16.1 122.7c.8 2.3 2.3 2.3 3.2 0l16-39.2 13.9 39.1c.8 2.3 2.3 2.3 3.2 0l18.6-122.5z" fill="url(#a)"/><path d="m90.7 114h-34.6l-5.3 11.9c-1.8 3.6-5.3 6.2-9.1 6.9l12.2 75.7c.8 1.4 2.3 1.4 3.2 0l15.6-23.7 14.3 23.6c.9 1.4 2.3 1.4 3.2 0l13.8-75.8c-3.4-1-6.4-3.4-8-6.7z" fill="url(#b)"/><path d="m96 125.9-22.7-50.7-22.6 50.7c-.8 1.5-1.8 2.8-3 3.9l9.4 50.3c.5.7 1.8.9 2.7 0l12.6-16.7 12.6 16.6c.8 1 2.2.8 2.7 0l10.4-50.9c-.8-1-1.5-2-2.1-3.2" fill="url(#c)"/><path d="m96 125.9-22.7-50.7-22.6 50.7c-.8 1.5-1.8 2.8-3 3.9l9.4 50.3c.5.7 1.8.9 2.7 0l12.6-16.7 12.6 16.6c.8 1 2.2.8 2.7 0l10.4-50.9c-.8-1-1.5-2-2.1-3.2" fill="url(#d)" opacity=".5"/><path d="m.9 6.2c-.7-2.4.7-4.1 3.1-4.1h19.9c1.4 0 2.7 1.2 3.1 2.4l14.6 57.5h.7l26.3-59.7c.5-1 1.5-1.9 2.9-1.9h3.1c1.5 0 2.5.8 2.9 1.9l26.3 59.7h.7l14.6-57.5c.3-1.2 1.7-2.4 3.1-2.4h19.9c2.4 0 3.7 1.7 3.1 4.1l-32.1 114c-.3 1.4-1.7 2.4-3.1 2.4h-2.7c-1.2 0-2.4-.8-2.9-1.9l-31.1-69.4h-.5l-30.9 69.4c-.5 1-1.7 1.9-2.9 1.9h-2.7c-1.4 0-2.7-1-3.1-2.4l-32.3-114" fill="#f56640"/><path d="m162.9 5.3c0-1.7 1.4-3.2 3.2-3.2h40.9c20.9 0 38 17 38 37.5 0 21-17.1 38.2-37.8 38.2h-17.8v39.9c0 1.7-1.5 3.2-3.2 3.2h-20c-1.9 0-3.2-1.5-3.2-3.2v-112.4h-.1zm42.6 47.7c7.3 0 13.4-5.8 13.4-13.4 0-7.1-6.1-12.6-13.4-12.6h-16.1v26z" fill="#f56640"/><g fill="#0e1b23"><path d="m300.3 5.3c0-1.7 1.4-3.2 3.2-3.2h50.7c20.4 0 37 16.5 37 36.7 0 15.6-10.3 28.2-25.1 34.1l23.2 43.1c1.2 2.2 0 4.9-2.9 4.9h-22.6c-1.4 0-2.4-.8-2.7-1.5l-22.6-45h-11.7v43.3c0 1.7-1.5 3.2-3.2 3.2h-20.2c-1.9 0-3.2-1.5-3.2-3.2zm51.8 47.5c7 0 12.9-6.4 12.9-13.6 0-7.1-5.9-12.9-12.9-12.9h-25.1v26.5z"/><path d="m466.3.4c33.9 0 61.1 27.3 61.1 61.3s-27.1 60.9-61.1 60.9c-33.9 0-60.9-27-60.9-60.9s27-61.3 60.9-61.3m0 95c18.7 0 33.9-15.3 33.9-33.8 0-18.7-15.3-34.1-33.9-34.1-18.5 0-33.8 15.4-33.8 34.1 0 18.5 15.3 33.8 33.8 33.8"/><path d="m600.5.4c17 0 29.5 5.3 41.1 15.8 1.5 1.4 1.5 3.4.2 4.7l-13.2 13.7c-1.2 1.2-3.1 1.2-4.2 0-6.3-5.6-14.6-8.7-22.9-8.7-19.2 0-33.3 16-33.3 35 0 18.8 14.3 34.5 33.4 34.5 8 0 16.6-2.9 22.7-8.1 1.2-1 3.4-1 4.4.2l13.2 14.1c1.2 1.2 1 3.4-.2 4.6-11.5 11.2-26.1 16.5-41.2 16.5-33.9 0-61.3-27-61.3-60.9s27.4-61.4 61.3-61.4"/><path d="m662.1 6.2c0-2.2 1.7-4.1 4.1-4.1h19.9c2.2 0 4.1 1.9 4.1 4.1v44.6l37.7-47c.7-.8 2.2-1.7 3.2-1.7h21.4c3.2 0 4.9 3.7 3.1 6.3l-39.7 49.7 43.3 56.3c1.9 2.5 0 6.3-3.2 6.3h-23.4c-1.2 0-2.7-.7-3.1-1.2l-39.4-53.3v50.6c0 2.2-1.9 4.1-4.1 4.1h-19.9c-2.4 0-4.1-1.9-4.1-4.1l.1-110.6z"/><path d="m776.3 5.3c0-1.7 1.4-3.2 3.2-3.2h70.3c1.9 0 3.2 1.5 3.2 3.2v18.5c0 1.7-1.4 3.2-3.2 3.2h-47v21h38.7c1.7 0 3.2 1.5 3.2 3.2v18.5c0 1.9-1.5 3.2-3.2 3.2h-38.7v23h47c1.9 0 3.2 1.5 3.2 3.2v18.5c0 1.7-1.4 3.2-3.2 3.2h-70.3c-1.9 0-3.2-1.5-3.2-3.2v-112.3"/><path d="m891 27h-24.3c-1.9 0-3.2-1.5-3.2-3.2v-18.5c0-1.7 1.4-3.2 3.2-3.2h75.3c1.9 0 3.2 1.5 3.2 3.2v18.5c0 1.7-1.4 3.2-3.2 3.2h-24.3v90.6c0 1.7-1.5 3.2-3.2 3.2h-20.4c-1.7 0-3.2-1.5-3.2-3.2z"/></g><path d="m141.16 208.11c7.2551 0 12.339-3.8496 12.339-10.315v-.098709c0-5.7251-3.7509-8.3409-11.055-10.118-6.6628-1.5793-8.2422-2.7638-8.2422-5.429v-.098708c0-2.2703 2.0729-4.0964 5.6264-4.0964 2.7145 0 5.2809.88838 7.946 2.6158.49354.29613.98709.44419 1.5793.44419 1.5793 0 2.8626-1.2339 2.8626-2.8132 0-1.1845-.64161-2.0235-1.3326-2.4184-3.1093-2.0729-6.6135-3.208-10.957-3.208-6.8603 0-11.796 4.0964-11.796 10.019v.098709c0 6.3667 4.1458 8.5383 11.5 10.315 6.4161 1.4806 7.798 2.8132 7.798 5.2809v.098709c0 2.5664-2.369 4.3432-6.1199 4.3432s-6.8109-1.2832-9.6734-3.5535c-.39483-.29613-.93773-.5429-1.7768-.5429-1.5793 0-2.8626 1.2339-2.8626 2.8132 0 .98709.49354 1.8261 1.1845 2.3197 3.8496 2.8626 8.2915 4.3432 12.98 4.3432zm41.951-23.838c0-1.678-1.3819-3.0106-3.0106-3.0106-1.678 0-3.0106 1.3326-3.0106 3.0106v11.993c0 4.0471-2.4184 6.4161-5.8732 6.4161-3.5535 0-5.577-2.2703-5.577-6.3174v-12.092c0-1.678-1.3326-3.0106-3.0106-3.0106-1.6287 0-2.9613 1.3326-2.9613 3.0106v13.869c0 6.0706 3.4054 10.019 9.2786 10.019 4.0471 0 6.4654-2.1222 8.1435-4.59v1.3326c0 1.678 1.3819 2.9613 3.0106 2.9613 1.678 0 3.0106-1.3326 3.0106-2.9613v-20.63zm7.4525 28.527v-28.527c0-1.678 1.2832-3.0106 2.9613-3.0106s3.0106 1.3326 3.0106 3.0106v1.6287c1.9248-2.7145 4.6393-4.8861 8.8838-4.8861 6.1199 0 12.092 4.8367 12.092 13.523v.098708c0 8.637-5.9225 13.523-12.092 13.523-4.3432 0-7.0577-2.1716-8.8838-4.59v9.2293c0 1.678-1.3326 2.9613-3.0106 2.9613-1.6287 0-2.9613-1.2832-2.9613-2.9613zm13.424-9.8215c4.0964 0 7.4525-3.208 7.4525-8.3409v-.098708c0-5.0341-3.4054-8.3409-7.4525-8.3409s-7.6006 3.3561-7.6006 8.3409v.098708c0 4.9848 3.5535 8.3409 7.6006 8.3409zm24.184-10.216h13.375c-.39483-3.8496-2.6651-6.8603-6.6135-6.8603-3.6522 0-6.2186 2.8132-6.7615 6.8603zm16.83 11.993c-2.369 2.1222-5.3303 3.4548-9.3773 3.4548-7.5512 0-13.375-5.4783-13.375-13.523v-.098709c0-7.4525 5.2809-13.572 12.733-13.572 8.2915 0 12.388 6.8109 12.388 12.832 0 1.678-1.2832 2.8626-2.8132 2.8626h-16.336c.64161 4.2445 3.6522 6.6135 7.5019 6.6135 2.5171 0 4.4912-.88838 6.1693-2.2703.44419-.34548.83902-.5429 1.53-.5429 1.3326 0 2.369 1.0364 2.369 2.4184 0 .74032-.34548 1.3819-.78967 1.8261zm8.4889.14806c0 1.678 1.3326 2.9613 2.9613 2.9613 1.678 0 3.0106-1.3326 3.0106-2.9613v-7.6993c0-6.1693 2.9119-9.4267 7.1564-10.167 1.3326-.24677 2.369-1.2832 2.369-2.8626 0-1.7274-1.0858-2.9613-2.9613-2.9613-2.6158 0-5.1822 2.4677-6.5641 5.7251v-2.6651c0-1.678-1.3326-3.0106-3.0106-3.0106s-2.9613 1.3326-2.9613 3.0106v20.63zm20.285-30.057c0 1.7768 1.4806 2.9613 3.4054 2.9613s3.4054-1.1845 3.4054-2.9613v-.29613c0-1.7768-1.4806-2.9119-3.4054-2.9119s-3.4054 1.1352-3.4054 2.9119zm.44419 30.057c0 1.678 1.3326 2.9613 2.9613 2.9613 1.678 0 3.0106-1.2832 3.0106-2.9613v-20.63c0-1.678-1.3326-3.0106-3.0106-3.0106s-2.9613 1.3326-2.9613 3.0106zm26.158 3.3067c-7.946 0-13.819-6.0706-13.819-13.474v-.098709c0-7.4525 5.9225-13.622 13.918-13.622 7.9954 0 13.869 6.0706 13.869 13.523v.098708c0 7.4031-5.9225 13.572-13.967 13.572zm.098708-5.2316c4.8367 0 7.8967-3.7509 7.8967-8.2422v-.098709c0-4.59-3.3067-8.3902-7.9954-8.3902-4.7874 0-7.8473 3.7509-7.8473 8.2915v.098708c0 4.5406 3.3067 8.3409 7.946 8.3409zm19.939 1.9248c0 1.678 1.3326 2.9613 2.9613 2.9613 1.678 0 3.0106-1.3326 3.0106-2.9613v-7.6993c0-6.1693 2.9119-9.4267 7.1564-10.167 1.3326-.24677 2.369-1.2832 2.369-2.8626 0-1.7274-1.0858-2.9613-2.9613-2.9613-2.6158 0-5.1822 2.4677-6.5641 5.7251v-2.6651c0-1.678-1.3326-3.0106-3.0106-3.0106s-2.9613 1.3326-2.9613 3.0106v20.63zm43.975.69096c.59225 1.5793 1.678 2.5171 3.1587 2.5171h.59225c1.4806 0 2.6158-.93773 3.1587-2.5171l7.6993-22.555 7.6993 22.555c.5429 1.5793 1.6287 2.5171 3.1093 2.5171h.59225c1.4806 0 2.6158-.98709 3.1587-2.5171l10.216-28.626c.14806-.34548.29612-.83902.29612-1.2339 0-1.6287-1.3819-2.9119-3.0106-2.9119-1.4806 0-2.5171.93773-2.9613 2.1716l-7.946 23.789-7.798-23.641c-.44419-1.4313-1.53-2.4184-3.06-2.4184h-.44419c-1.53 0-2.5664.98709-3.06 2.4184l-7.798 23.641-7.946-23.739c-.39483-1.2832-1.53-2.2209-3.0106-2.2209-1.678 0-3.1093 1.2832-3.1093 2.9613 0 .39484.098709.83902.24677 1.1845l10.216 28.626zm55.326 2.6158c-7.946 0-13.819-6.0706-13.819-13.474v-.098709c0-7.4525 5.9225-13.622 13.918-13.622 7.9954 0 13.869 6.0706 13.869 13.523v.098708c0 7.4031-5.9225 13.572-13.967 13.572zm.098709-5.2316c4.8367 0 7.8967-3.7509 7.8967-8.2422v-.098709c0-4.59-3.3067-8.3902-7.9954-8.3902-4.7874 0-7.8473 3.7509-7.8473 8.2915v.098708c0 4.5406 3.3067 8.3409 7.946 8.3409zm19.939 1.9248c0 1.678 1.3326 2.9613 2.9613 2.9613 1.678 0 3.0106-1.3326 3.0106-2.9613v-7.6993c0-6.1693 2.9119-9.4267 7.1564-10.167 1.3326-.24677 2.369-1.2832 2.369-2.8626 0-1.7274-1.0858-2.9613-2.9613-2.9613-2.6158 0-5.1822 2.4677-6.5641 5.7251v-2.6651c0-1.678-1.3326-3.0106-3.0106-3.0106s-2.9613 1.3326-2.9613 3.0106v20.63zm45.258-30.6v30.6c0 1.678-1.3326 2.9613-2.9613 2.9613-1.678 0-3.0106-1.2832-3.0106-2.9613v-1.6287c-1.9248 2.7145-4.6393 4.8861-8.8838 4.8861-6.1199 0-12.092-4.8861-12.092-13.523v-.098708c0-8.637 5.8732-13.523 12.092-13.523 4.2938 0 7.0083 2.1222 8.8838 4.59v-11.302c0-1.678 1.3326-2.9613 2.9613-2.9613 1.678 0 3.0106 1.2832 3.0106 2.9613zm-13.424 11.894c-4.0964 0-7.5019 3.1587-7.5019 8.3409v.098708c0 5.0341 3.4548 8.3409 7.5019 8.3409 3.9977 0 7.5512-3.3561 7.5512-8.3409v-.098708c0-5.0341-3.5535-8.3409-7.5512-8.3409zm21.617 18.656v-28.724c0-1.7274 1.3326-3.06 3.06-3.06h10.562c8.0941 0 13.128 4.59 13.128 11.549v.098709c0 7.7486-6.2186 11.796-13.819 11.796h-6.8603v8.3409c0 1.678-1.3326 3.0106-3.0106 3.0106-1.7274 0-3.06-1.3326-3.06-3.0106zm6.0706-13.819h7.0577c4.59 0 7.4525-2.5664 7.4525-6.1693v-.098709c0-4.0471-2.9119-6.1693-7.4525-6.1693h-7.0577v12.437zm26.207 13.869c0 1.678 1.3326 2.9613 2.9613 2.9613 1.678 0 3.0106-1.3326 3.0106-2.9613v-7.6993c0-6.1693 2.9119-9.4267 7.1564-10.167 1.3326-.24677 2.369-1.2832 2.369-2.8626 0-1.7274-1.0858-2.9613-2.9613-2.9613-2.6158 0-5.1822 2.4677-6.5641 5.7251v-2.6651c0-1.678-1.3326-3.0106-3.0106-3.0106s-2.9613 1.3326-2.9613 3.0106v20.63zm23.986-12.141h13.375c-.39483-3.8496-2.6651-6.8603-6.6135-6.8603-3.6522 0-6.2186 2.8132-6.7615 6.8603zm16.83 11.993c-2.369 2.1222-5.3303 3.4548-9.3773 3.4548-7.5512 0-13.375-5.4783-13.375-13.523v-.098709c0-7.4525 5.2809-13.572 12.733-13.572 8.2915 0 12.388 6.8109 12.388 12.832 0 1.678-1.2832 2.8626-2.8132 2.8626h-16.336c.64161 4.2445 3.6522 6.6135 7.5019 6.6135 2.5171 0 4.4912-.88838 6.1693-2.2703.44419-.34548.83902-.5429 1.53-.5429 1.3326 0 2.369 1.0364 2.369 2.4184 0 .74032-.34548 1.3819-.78967 1.8261zm17.422 3.3561c5.429 0 9.6734-2.7145 9.6734-8.1928v-.098709c0-4.6887-4.2938-6.4161-8.0941-7.6006-3.06-.98709-5.8732-1.7768-5.8732-3.7016v-.098709c0-1.4806 1.3326-2.5664 3.6522-2.5664 1.8261 0 3.9977.69096 6.1199 1.7768.39484.19742.69096.29613 1.1845.29613 1.3819 0 2.4677-1.0364 2.4677-2.4184 0-1.0364-.59225-1.8261-1.4313-2.2703-2.5171-1.3326-5.429-2.1222-8.1928-2.1222-5.1822 0-9.2786 3.0106-9.2786 7.946v.098708c0 4.9848 4.2938 6.5641 8.1435 7.6499 3.06.93773 5.8238 1.6287 5.8238 3.6522v.098708c0 1.7274-1.4806 2.8132-4.0471 2.8132-2.369 0-4.9848-.83902-7.5019-2.5171-.34548-.19742-.78967-.34548-1.2832-.34548-1.3819 0-2.4184 1.0858-2.4184 2.4184 0 .98709.49354 1.7274 1.1351 2.0729 3.0106 2.0729 6.6135 3.1093 9.9202 3.1093zm24.233 0c5.429 0 9.6734-2.7145 9.6734-8.1928v-.098709c0-4.6887-4.2938-6.4161-8.0941-7.6006-3.06-.98709-5.8732-1.7768-5.8732-3.7016v-.098709c0-1.4806 1.3326-2.5664 3.6522-2.5664 1.8261 0 3.9977.69096 6.1199 1.7768.39484.19742.69096.29613 1.1845.29613 1.3819 0 2.4677-1.0364 2.4677-2.4184 0-1.0364-.59225-1.8261-1.4313-2.2703-2.5171-1.3326-5.429-2.1222-8.1928-2.1222-5.1822 0-9.2786 3.0106-9.2786 7.946v.098708c0 4.9848 4.2938 6.5641 8.1435 7.6499 3.06.93773 5.8238 1.6287 5.8238 3.6522v.098708c0 1.7274-1.4806 2.8132-4.0471 2.8132-2.369 0-4.9848-.83902-7.5019-2.5171-.34548-.19742-.78967-.34548-1.2832-.34548-1.3819 0-2.4184 1.0858-2.4184 2.4184 0 .98709.49354 1.7274 1.1351 2.0729 3.0106 2.0729 6.6135 3.1093 9.9202 3.1093zm31.291-3.2574v-28.724c0-1.7274 1.3326-3.06 3.06-3.06h10.562c8.0941 0 13.128 4.59 13.128 11.549v.098709c0 7.7486-6.2186 11.796-13.819 11.796h-6.8603v8.3409c0 1.678-1.3326 3.0106-3.0106 3.0106-1.7274 0-3.06-1.3326-3.06-3.0106zm6.0706-13.819h7.0577c4.59 0 7.4525-2.5664 7.4525-6.1693v-.098709c0-4.0471-2.9119-6.1693-7.4525-6.1693h-7.0577v12.437zm30.452 1.7274h13.375c-.39483-3.8496-2.6651-6.8603-6.6135-6.8603-3.6522 0-6.2186 2.8132-6.7615 6.8603zm16.83 11.993c-2.369 2.1222-5.3303 3.4548-9.3773 3.4548-7.5512 0-13.375-5.4783-13.375-13.523v-.098709c0-7.4525 5.2809-13.572 12.733-13.572 8.2915 0 12.388 6.8109 12.388 12.832 0 1.678-1.2832 2.8626-2.8132 2.8626h-16.336c.64161 4.2445 3.6522 6.6135 7.5019 6.6135 2.5171 0 4.4912-.88838 6.1693-2.2703.44419-.34548.83902-.5429 1.53-.5429 1.3326 0 2.369 1.0364 2.369 2.4184 0 .74032-.34548 1.3819-.78967 1.8261zm8.4889.14806c0 1.678 1.3326 2.9613 2.9613 2.9613 1.678 0 3.0106-1.3326 3.0106-2.9613v-7.6993c0-6.1693 2.9119-9.4267 7.1564-10.167 1.3326-.24677 2.369-1.2832 2.369-2.8626 0-1.7274-1.0858-2.9613-2.9613-2.9613-2.6158 0-5.1822 2.4677-6.5641 5.7251v-2.6651c0-1.678-1.3326-3.0106-3.0106-3.0106s-2.9613 1.3326-2.9613 3.0106v20.63zm21.716 0c0 1.6287 1.3326 2.9613 2.9613 2.9613 1.678 0 3.0106-1.3326 3.0106-2.9613v-18.212h4.5406c1.3819 0 2.5171-1.0858 2.5171-2.4677s-1.0858-2.4677-2.5171-2.4677h-4.6393v-1.4313c0-2.7145 1.1845-3.9483 3.4548-3.9483.39483 0 .88838.049355 1.2339.098709 1.3819.049354 2.5171-1.0858 2.5171-2.4677 0-1.3326-.98709-2.3197-2.0729-2.4677-.83902-.14806-1.8261-.24677-3.0106-.24677-2.5664 0-4.4912.69096-5.8732 2.0729-1.3819 1.3819-2.1222 3.5535-2.1222 6.4161v1.9248h-1.0364c-1.3819 0-2.5171 1.1352-2.5171 2.5171s1.1352 2.4677 2.5171 2.4677h1.0364v18.212zm29.119 3.3067c-7.946 0-13.819-6.0706-13.819-13.474v-.098709c0-7.4525 5.9225-13.622 13.918-13.622 7.9954 0 13.869 6.0706 13.869 13.523v.098708c0 7.4031-5.9225 13.572-13.967 13.572zm.098708-5.2316c4.8367 0 7.8967-3.7509 7.8967-8.2422v-.098709c0-4.59-3.3067-8.3902-7.9954-8.3902-4.7874 0-7.8473 3.7509-7.8473 8.2915v.098708c0 4.5406 3.3067 8.3409 7.946 8.3409zm19.939 1.9248c0 1.678 1.3326 2.9613 2.9613 2.9613 1.678 0 3.0106-1.3326 3.0106-2.9613v-7.6993c0-6.1693 2.9119-9.4267 7.1564-10.167 1.3326-.24677 2.369-1.2832 2.369-2.8626 0-1.7274-1.0858-2.9613-2.9613-2.9613-2.6158 0-5.1822 2.4677-6.5641 5.7251v-2.6651c0-1.678-1.3326-3.0106-3.0106-3.0106s-2.9613 1.3326-2.9613 3.0106v20.63zm20.383 0c0 1.678 1.3326 2.9613 2.9613 2.9613 1.678 0 3.0106-1.2832 3.0106-2.9613v-11.993c0-3.9977 2.2703-6.4654 5.577-6.4654s5.2809 2.2703 5.2809 6.3174v12.141c0 1.678 1.3326 2.9613 3.0106 2.9613 1.6287 0 2.9613-1.2832 2.9613-2.9613v-11.993c0-4.1951 2.3197-6.4654 5.577-6.4654 3.3561 0 5.2809 2.2209 5.2809 6.3667v12.092c0 1.678 1.3326 2.9613 3.0106 2.9613s2.9613-1.2832 2.9613-2.9613v-13.918c0-6.3667-3.4548-9.9696-9.1306-9.9696-3.9483 0-6.7122 1.8261-8.7851 4.59-1.3819-2.7638-4.0471-4.59-7.798-4.59-3.9977 0-6.268 2.1716-7.946 4.4912v-1.2339c0-1.678-1.3326-3.0106-3.0106-3.0106s-2.9613 1.3326-2.9613 3.0106v20.63zm54.388 3.2574c-4.8861 0-9.2293-2.8132-9.2293-8.0448v-.098708c0-5.6264 4.3925-8.3902 10.759-8.3902 2.9119 0 4.9848.44419 7.0083 1.0858v-.64161c0-3.7016-2.2703-5.6757-6.4654-5.6757-2.2703 0-4.1458.39484-5.7745 1.0364-.34548.098709-.64161.14806-.93773.14806-1.3819 0-2.5171-1.0858-2.5171-2.4677 0-1.0858.74032-2.0235 1.6287-2.369 2.4677-.93773 4.9848-1.53 8.3902-1.53 3.899 0 6.8109 1.0364 8.637 2.9119 1.9248 1.8755 2.8132 4.6393 2.8132 8.0448v12.832c0 1.6287-1.2832 2.8626-2.9119 2.8626-1.7274 0-2.9119-1.1845-2.9119-2.5171v-.98709c-1.7768 2.1222-4.4912 3.8003-8.4889 3.8003zm1.678-4.3432c3.9483 0 6.959-2.2703 6.959-5.577v-1.7768c-1.53-.59225-3.5535-1.0364-5.9225-1.0364-3.8496 0-6.1199 1.6287-6.1199 4.3432v.098709c0 2.5171 2.2209 3.9483 5.0835 3.9483zm19.791 1.0858c0 1.678 1.3326 2.9613 2.9613 2.9613 1.678 0 3.0106-1.2832 3.0106-2.9613v-11.993c0-4.0471 2.4184-6.4654 5.8732-6.4654 3.5535 0 5.577 2.3197 5.577 6.3667v12.092c0 1.678 1.3326 2.9613 3.0106 2.9613s2.9613-1.2832 2.9613-2.9613v-13.918c0-6.0212-3.4054-9.9696-9.2786-9.9696-4.0471 0-6.4654 2.1222-8.1435 4.5406v-1.2832c0-1.678-1.3326-3.0106-3.0106-3.0106s-2.9613 1.3326-2.9613 3.0106v20.63zm42.642 3.3067c4.3432 0 7.1564-1.4806 9.476-3.7016.5429-.44419.83902-1.0858.83902-1.8755 0-1.4313-1.1351-2.6158-2.5664-2.6158-.69096 0-1.2832.34548-1.6287.64161-1.6287 1.3819-3.4548 2.3197-5.8238 2.3197-4.59 0-7.798-3.7016-7.798-8.3409v-.098708c0-4.5406 3.208-8.2915 7.5512-8.2915 2.369 0 4.0471.93773 5.577 2.2209.39484.29613 1.0364.59225 1.7768.59225 1.53 0 2.7638-1.1845 2.7638-2.7145 0-.98709-.5429-1.7274-.93773-2.0729-2.2209-1.9248-5.0341-3.2574-9.1306-3.2574-7.8473 0-13.572 6.2186-13.572 13.622v.098709c0 7.4031 5.7251 13.474 13.474 13.474zm19.89-15.448h13.375c-.39484-3.8496-2.6651-6.8603-6.6135-6.8603-3.6522 0-6.2186 2.8132-6.7615 6.8603zm16.83 11.993c-2.369 2.1222-5.3303 3.4548-9.3773 3.4548-7.5512 0-13.375-5.4783-13.375-13.523v-.098709c0-7.4525 5.2809-13.572 12.733-13.572 8.2915 0 12.388 6.8109 12.388 12.832 0 1.678-1.2832 2.8626-2.8132 2.8626h-16.336c.64161 4.2445 3.6522 6.6135 7.5019 6.6135 2.5171 0 4.4912-.88838 6.1693-2.2703.44419-.34548.83902-.5429 1.53-.5429 1.3326 0 2.369 1.0364 2.369 2.4184 0 .74032-.34548 1.3819-.78967 1.8261z" fill="#757575"/></g></svg>