<svg width="729" height="85" viewBox="0 0 729 85" fill="none" xmlns="http://www.w3.org/2000/svg">
<path fill-rule="evenodd" clip-rule="evenodd" d="M23.6019 75.3106L6.708 45.3807L12.832 41.7202L11.0371 37.1984L0.161621 43.5504L21.8069 81.878L38.7008 71.9731C38.8064 70.2505 39.0176 68.5279 39.2287 66.8053L35.2164 68.4203L23.6019 75.3106Z" fill="#343A49"/>
<path fill-rule="evenodd" clip-rule="evenodd" d="M16.7392 31.2767L21.8073 29.3388L20.6459 24.7094L10.7207 28.5852L25.9252 69.389L39.8627 64.0059C40.3906 61.9603 41.2353 59.9147 42.1856 57.9768L28.6705 63.2523L16.7392 31.2767Z" fill="#343A49"/>
<path fill-rule="evenodd" clip-rule="evenodd" d="M43.347 17.4962L36.4839 46.7802L57.6013 42.3661C58.8683 41.7201 60.1353 41.1818 61.508 40.7512C63.0918 40.2128 64.6756 39.7822 66.2594 39.4592C68.1599 39.1362 70.1661 38.9209 72.1722 38.9209H72.2778H73.8616L78.4019 37.952L65.0979 25.8938L59.8186 32.5689L43.347 17.4962Z" fill="#343A49"/>
<path d="M68.7937 21.372C71.0679 21.372 72.9116 19.4921 72.9116 17.1732C72.9116 14.8542 71.0679 12.9744 68.7937 12.9744C66.5194 12.9744 64.6758 14.8542 64.6758 17.1732C64.6758 19.4921 66.5194 21.372 68.7937 21.372Z" fill="#343A49"/>
<path fill-rule="evenodd" clip-rule="evenodd" d="M44.613 53.7781C46.0912 51.5172 47.8862 49.5793 49.7868 47.749L33.632 51.0865L26.7688 17.2807L75.6555 7.05288L82.4131 40.5357C84.2081 41.1817 86.003 41.9353 87.6924 42.7966L79.3511 1.3468L21.2783 13.4049L30.042 56.7926L44.613 53.7781Z" fill="#343A49"/>
<path d="M71.8564 75.8489C73.2559 75.8489 74.3904 74.692 74.3904 73.265C74.3904 71.8379 73.2559 70.6811 71.8564 70.6811C70.4568 70.6811 69.3223 71.8379 69.3223 73.265C69.3223 74.692 70.4568 75.8489 71.8564 75.8489Z" fill="#00A8DC"/>
<path fill-rule="evenodd" clip-rule="evenodd" d="M72.3837 42.043C55.8066 42.043 42.2915 55.8237 42.2915 72.8342C42.2915 76.6024 42.925 80.1552 44.1921 83.4927H54.3284C52.8502 80.8012 51.8999 77.7867 51.5831 74.5568H48.31C47.3597 74.5568 46.7261 73.8032 46.7261 72.8342C46.7261 71.8653 47.4653 71.1116 48.31 71.1116H51.5831C51.8999 66.4822 53.6949 62.391 56.4401 59.0535L54.1172 56.685C53.4837 56.039 53.4837 54.9624 54.1172 54.3164C54.7507 53.6704 55.8066 53.6704 56.4401 54.3164L58.763 56.685C62.0362 53.8858 66.0485 52.0555 70.5888 51.7325V48.2874C70.5888 47.3184 71.3279 46.5648 72.1726 46.5648C73.1229 46.5648 73.862 47.3184 73.862 48.2874V51.7325C77.9799 52.0555 81.781 53.6704 84.9486 56.1467L86.7436 54.8547C87.6938 54.1011 88.9609 54.2087 89.8056 55.07C90.6503 55.9313 90.7559 57.3309 90.0167 58.1922L76.6072 77.5714C74.1787 80.0476 70.3776 80.1552 67.8435 77.7867C67.7379 77.679 67.7379 77.679 67.6323 77.5714C65.2038 75.0951 65.2038 70.8963 67.6323 68.4201C67.9491 68.0971 68.1603 67.8818 68.477 67.6665L81.781 58.4076C79.0357 56.4696 75.7625 55.393 72.1726 55.393C62.6698 55.393 55.0675 63.2523 55.0675 72.9419C55.0675 76.9254 56.3345 80.5859 58.5519 83.4927H85.8989C88.1162 80.5859 89.3832 76.9254 89.3832 72.9419C89.3832 70.681 88.9609 68.6354 88.2218 66.6975L90.6503 63.2523C91.9173 65.7286 92.6564 68.4201 92.8676 71.327H96.1408C97.0911 71.327 97.7246 72.0806 97.7246 73.0496C97.7246 74.0185 96.9855 74.7721 96.1408 74.7721H92.8676C92.6564 78.002 91.7061 81.0165 90.1223 83.7081H100.575C101.737 80.3706 102.476 76.8177 102.476 73.0496C102.37 55.8237 88.9609 42.043 72.3837 42.043Z" fill="#00A8DC"/>
<path fill-rule="evenodd" clip-rule="evenodd" d="M146.293 1.3468H135.523C134.362 1.3468 133.306 2.42342 133.306 3.6077V81.6625C133.306 82.8468 134.362 83.9234 135.523 83.9234H146.293C147.455 83.9234 148.511 82.8468 148.511 81.6625V3.6077C148.405 2.42342 147.349 1.3468 146.293 1.3468Z" fill="#343A49"/>
<path fill-rule="evenodd" clip-rule="evenodd" d="M264.024 1.88531C263.918 0.916352 263.179 0.16272 261.912 0.16272H260.012C258.956 0.16272 258.428 0.593367 258.006 1.347L232.559 57.0081H232.242L206.796 1.347C206.479 0.593367 205.74 0.16272 204.79 0.16272H202.889C201.622 0.16272 200.883 1.02401 200.778 1.88531L187.051 81.1244C186.84 82.7393 187.79 83.8159 189.269 83.8159H199.722C200.778 83.8159 201.728 82.8469 201.833 82.0933L208.591 37.4137H208.908L229.392 83.7082C229.708 84.4619 230.342 85.0002 231.398 85.0002H233.509C234.565 85.0002 235.199 84.4619 235.516 83.7082L255.788 37.4137H256.105L262.968 82.0933C263.179 82.9546 264.13 83.8159 265.186 83.8159H275.744C277.222 83.8159 278.173 82.7393 277.856 81.1244L264.024 1.88531Z" fill="#343A49"/>
<path fill-rule="evenodd" clip-rule="evenodd" d="M347.12 1.45466C346.803 0.701029 346.275 0.16272 345.113 0.16272H343.952C342.896 0.16272 342.368 0.701029 341.946 1.45466L305.941 80.8014C305.202 82.3086 306.152 83.8159 307.947 83.8159H317.978C319.878 83.8159 320.828 82.6316 321.356 81.4474L327.058 68.7433H361.691L367.392 81.4474C368.237 83.0623 368.976 83.8159 370.771 83.8159H380.802C382.491 83.8159 383.441 82.3086 382.808 80.8014L347.12 1.45466ZM332.865 55.6085L344.163 29.662H344.48L355.989 55.6085H332.865Z" fill="#343A49"/>
<path fill-rule="evenodd" clip-rule="evenodd" d="M479.102 42.9043H456.929C455.662 42.9043 454.712 43.8733 454.712 45.1652V54.4241C454.712 55.6084 455.662 56.5774 456.929 56.5774H466.221V66.5899C463.898 67.5589 458.935 69.4968 452.495 69.4968C437.924 69.4968 426.52 57.1157 426.52 42.4737C426.52 27.724 437.924 15.1276 452.389 15.1276C458.724 15.1276 464.848 17.4961 469.811 22.0179C470.867 22.9869 471.923 22.9869 472.767 22.0179L479.947 14.3739C480.897 13.405 480.792 12.0054 479.842 11.0364C472.028 4.14608 461.997 0.0549316 451.65 0.0549316C428.632 0.0549316 410.154 19.0034 410.154 42.5813C410.154 66.1593 428.632 84.7847 451.65 84.7847C468.438 84.7847 480.37 77.1407 480.37 77.1407C480.792 76.8178 481.32 76.1718 481.32 75.2028V45.0575C481.109 43.9809 480.264 42.9043 479.102 42.9043Z" fill="#343A49"/>
<path fill-rule="evenodd" clip-rule="evenodd" d="M534.22 1.3468H523.45C522.288 1.3468 521.232 2.42342 521.232 3.6077V81.6625C521.232 82.8468 522.288 83.9234 523.45 83.9234H534.22C535.381 83.9234 536.437 82.8468 536.437 81.6625V3.6077C536.437 2.42342 535.381 1.3468 534.22 1.3468Z" fill="#343A49"/>
<path fill-rule="evenodd" clip-rule="evenodd" d="M629.775 1.3468H582.683C581.416 1.3468 580.466 2.42342 580.466 3.6077V81.6625C580.466 82.8468 581.416 83.9234 582.683 83.9234H593.347C594.509 83.9234 595.565 82.8468 595.565 81.6625V51.8402H624.073C625.235 51.8402 626.291 50.7635 626.291 49.5793V39.8897C626.291 38.7054 625.235 37.6288 624.073 37.6288H595.565V15.4505H629.775C631.042 15.4505 631.992 14.3739 631.992 13.1896V3.50004C631.992 2.42342 631.148 1.3468 629.775 1.3468Z" fill="#343A49"/>
<path fill-rule="evenodd" clip-rule="evenodd" d="M726.388 1.3468H714.457C713.506 1.3468 712.979 1.88511 712.556 2.42342L694.078 29.5542L675.601 2.42342C675.284 1.99277 674.65 1.3468 673.7 1.3468H661.874C659.974 1.3468 659.129 3.28471 659.974 4.79198L686.371 44.1962V81.6625C686.371 82.8468 687.321 83.9234 688.588 83.9234H699.252C700.414 83.9234 701.47 82.8468 701.47 81.6625V43.9809L728.183 4.68432C729.133 3.17705 728.183 1.3468 726.388 1.3468Z" fill="#343A49"/>
</svg>
