<svg id="logo_1_" data-name="logo (1)" xmlns="http://www.w3.org/2000/svg" width="138.346" height="39.134" viewBox="0 0 138.346 39.134">
  <path id="Path_1" data-name="Path 1" d="M93.852,23.2V20.564h12.686V23.2H101.9V37.6H98.465V23.2ZM114.93,37.8a6.446,6.446,0,0,1-4.834-1.916,6.951,6.951,0,0,1-1.865-5.064,6.841,6.841,0,0,1,1.877-5.04,6.547,6.547,0,0,1,4.858-1.892,6.768,6.768,0,0,1,4.9,1.843,6.511,6.511,0,0,1,1.914,4.918,8.311,8.311,0,0,1-.1,1.318h-9.913a3.2,3.2,0,0,0,.981,2.123,3.066,3.066,0,0,0,2.184.805,2.861,2.861,0,0,0,2.65-1.464h3.73a5.937,5.937,0,0,1-2.282,3.149,6.821,6.821,0,0,1-4.1,1.22Zm2.27-10.2a3.256,3.256,0,0,0-2.221-.805,3.077,3.077,0,0,0-2.172.805,3.4,3.4,0,0,0-1.043,2.148h6.429a2.94,2.94,0,0,0-.994-2.148Zm10.76-3.515V26.47a4.313,4.313,0,0,1,3.975-2.587V27.4h-.859a3.2,3.2,0,0,0-2.331.769,3.627,3.627,0,0,0-.785,2.648V37.6H124.5V24.078Zm9.889,0V26.1a4.515,4.515,0,0,1,4.22-2.221,5.38,5.38,0,0,1,2.76.708,4.754,4.754,0,0,1,1.877,2.026,5.283,5.283,0,0,1,1.951-2,5.37,5.37,0,0,1,2.785-.732,5.236,5.236,0,0,1,3.914,1.513,5.807,5.807,0,0,1,1.484,4.247V37.6H153.4V30.131a3.367,3.367,0,0,0-.81-2.429,2.92,2.92,0,0,0-2.208-.842,2.961,2.961,0,0,0-2.221.842,3.336,3.336,0,0,0-.822,2.429V37.6h-3.435V30.131a3.367,3.367,0,0,0-.81-2.429,2.92,2.92,0,0,0-2.208-.842,2.961,2.961,0,0,0-2.221.842,3.336,3.336,0,0,0-.822,2.429V37.6h-3.46V24.078ZM160.4,37.6V19.539h3.46V37.6Zm10.8-.244-5.325-13.277h3.877l3.46,9.616,3.656-9.616h3.607l-8.49,19.916h-3.607Z" transform="translate(-42.123 -8.769)" fill="#1f1e33" fill-rule="evenodd"/>
  <path id="Path_2" data-name="Path 2" d="M20.039,0A19.807,19.807,0,0,1,40.078,19.567,19.807,19.807,0,0,1,20.039,39.134,19.807,19.807,0,0,1,0,19.567,19.807,19.807,0,0,1,20.039,0Zm8.833,10.577h-12V31.73l11.6-15.865H25Z" fill="#4672ff" fill-rule="evenodd"/>
</svg>
