<svg viewBox="0 0 163 44" xmlns="http://www.w3.org/2000/svg" xmlns:xlink="http://www.w3.org/1999/xlink"><linearGradient id="a" x1="50.138%" x2="50.138%" y1="100%" y2="32.535%"><stop offset="0" stop-color="#f56640"/><stop offset=".24386" stop-color="#f57840"/><stop offset="1" stop-color="#ffbe54"/></linearGradient><linearGradient id="b" x1="50.003%" x2="50.003%" y1="98.321%" y2="18.977%"><stop offset="0" stop-color="#f56640"/><stop offset=".18109" stop-color="#f57840"/><stop offset="1" stop-color="#ffbe54"/></linearGradient><linearGradient id="c" x1="50%" x2="50%" y1="110.43%" y2="-25.444%"><stop offset="0" stop-color="#f56640"/><stop offset=".083788" stop-color="#f57840"/><stop offset="1" stop-color="#ffbe54"/></linearGradient><linearGradient id="d" x1="50%" x2="50%" y1="84.378%"><stop offset="0" stop-color="#f56640"/><stop offset=".39108" stop-color="#f57840"/><stop offset="1" stop-color="#ffbe54"/></linearGradient><g fill="none" fill-rule="evenodd"><path d="m18.445 22.699c-.82358 0-1.5957-.47752-1.9732-1.2279l-.652-1.4496h-6.4685l-.652 1.4496c-.37747.75039-1.1496 1.2279-1.9732 1.2279h-.34316l2.7624 20.926c.13726.39225.39463.39225.54905 0l2.7453-6.6853 2.3849 6.6682c.13726.39225.39463.39225.54905 0l3.1914-20.891-.12011-.017054z" fill="url(#a)"/><path d="m15.562 19.442h-5.9366l-.90937 2.0295c-.30884.61395-.90937 1.0574-1.5614 1.1767l2.0933 12.91c.13726.23876.39463.23876.54905 0l2.6766-4.0419 2.4536 4.0248c.15442.23876.39463.23876.54905 0l2.3678-12.927c-.58337-.17054-1.0981-.57984-1.3726-1.1426l-.90937-2.0295z" fill="url(#b)"/><path d="m16.472 21.471-3.8948-8.6465-3.8777 8.6465c-.13726.25581-.30884.47752-.51474.66512l1.6128 8.5783c.085789.11938.30884.15349.46326 0l2.1619-2.8481 2.1619 2.831c.13726.17054.37747.13643.46326 0l1.7844-8.6806c-.13726-.17054-.25737-.34109-.36032-.54574" fill="url(#c)"/><path d="m16.472 21.471-3.8948-8.6465-3.8777 8.6465c-.13726.25581-.30884.47752-.51474.66512l1.6128 8.5783c.085789.11938.30884.15349.46326 0l2.1619-2.8481 2.1619 2.831c.13726.17054.37747.13643.46326 0l1.7844-8.6806c-.13726-.17054-.25737-.34109-.36032-.54574" fill="url(#d)" opacity=".5"/><g fill="#fff"><path d="m.15442 1.0574c-.12011-.4093.12011-.69922.53189-.69922h3.4144c.24021 0 .46326.20465.53189.4093l2.5051 9.8062h.12011l4.5125-10.181c.08579-.17054.25737-.32403.49758-.32403h.53189c.25737 0 .42895.13643.49758.32403l4.5125 10.181h.12011l2.5051-9.8062c.051474-.20465.29168-.4093.53189-.4093h3.4144c.41179 0 .63484.28992.53189.69922l-5.5077 19.442c-.051474.23876-.29168.4093-.53189.4093h-.46326c-.20589 0-.41179-.13643-.49758-.32403l-5.3361-11.836h-.085789l-5.3018 11.836c-.085789.17054-.29168.32403-.49758.32403h-.46326c-.24021 0-.46326-.17054-.53189-.4093l-5.542-19.442"/><path d="m27.95.90388c0-.28992.24021-.54574.54905-.54574h7.0176c3.586 0 6.52 2.8992 6.52 6.3953 0 3.5814-2.934 6.5147-6.4857 6.5147h-3.0541v6.8047c0 .28992-.25737.54574-.54905.54574h-3.4316c-.326 0-.54905-.25581-.54905-.54574v-19.169h-.017158zm7.3093 8.1349c1.2525 0 2.2992-.98915 2.2992-2.2853 0-1.2109-1.0466-2.1488-2.2992-2.1488h-2.7624v4.4341z"/><path d="m51.525.90388c0-.28992.24021-.54574.54905-.54574h8.6991c3.5002 0 6.3484 2.814 6.3484 6.2589 0 2.6605-1.7673 4.8093-4.3066 5.8155l3.9806 7.3504c.20589.37519 0 .83566-.49758.83566h-3.8777c-.24021 0-.41179-.13643-.46326-.25581l-3.8777-7.6744h-2.0075v7.3845c0 .28992-.25737.54574-.54905.54574h-3.4659c-.326 0-.54905-.25581-.54905-.54574l.017158-19.169zm8.8878 8.1008c1.2011 0 2.2134-1.0915 2.2134-2.3194 0-1.2109-1.0123-2.2-2.2134-2.2h-4.3066v4.5194z"/><path d="m80.007.068217c5.8165 0 10.483 4.6558 10.483 10.454 0 5.7984-4.6498 10.386-10.483 10.386-5.8165 0-10.449-4.6047-10.449-10.386 0-5.7814 4.6326-10.454 10.449-10.454m0 16.202c3.2085 0 5.8165-2.6093 5.8165-5.7643 0-3.1891-2.6252-5.8155-5.8165-5.8155-3.1742 0-5.7994 2.6264-5.7994 5.8155 0 3.155 2.6252 5.7643 5.7994 5.7643"/><path d="m103.03.068217c2.9168 0 5.0616.90388 7.0519 2.6946.25737.23876.25737.57984.034315.80155l-2.2648 2.3364c-.20589.20465-.53189.20465-.72063 0-1.0809-.95504-2.5051-1.4837-3.9292-1.4837-3.2943 0-5.7136 2.7287-5.7136 5.969 0 3.2062 2.4536 5.8837 5.7307 5.8837 1.3726 0 2.8482-.49457 3.8948-1.3814.2059-.17054.58337-.17054.75495.034108l2.2648 2.4047c.2059.20465.17158.57984-.034315.7845-1.9732 1.9101-4.4782 2.814-7.0691 2.814-5.8165 0-10.518-4.6047-10.518-10.386 0-5.7814 4.7013-10.471 10.518-10.471"/><path d="m113.6 1.0574c0-.37519.29168-.69922.70347-.69922h3.4144c.37747 0 .70347.32403.70347.69922v7.6062l6.4685-8.0155c.1201-.13643.37747-.28992.54905-.28992h3.6718c.54905 0 .84074.63101.5319 1.0744l-6.8117 8.476 7.4294 9.6016c.326.42636 0 1.0744-.54905 1.0744h-4.0149c-.2059 0-.46326-.11938-.5319-.20465l-6.7602-9.0899v8.6295c0 .37519-.326.69922-.70347.69922h-3.4144c-.41179 0-.70347-.32403-.70347-.69922l.017158-18.862z"/><path d="m133.2.90388c0-.28992.24021-.54574.54905-.54574h12.062c.326 0 .54905.25581.54905.54574v3.155c0 .28992-.24021.54574-.54905.54574h-8.0642v3.5814h6.6401c.29168 0 .54905.25581.54905.54574v3.155c0 .32403-.25737.54574-.54905.54574h-6.6401v3.9225h8.0642c.326 0 .54905.25581.54905.54574v3.155c0 .28992-.24021.54574-.54905.54574h-12.062c-.326 0-.54905-.25581-.54905-.54574v-19.152"/><path d="m152.88 4.6047h-4.1694c-.326 0-.54905-.25581-.54905-.54574v-3.155c0-.28992.24021-.54574.54905-.54574h12.92c.326 0 .54905.25581.54905.54574v3.155c0 .28992-.24021.54574-.54905.54574h-4.1694v15.451c0 .28992-.25737.54574-.54905.54574h-3.5002c-.29168 0-.54905-.25581-.54905-.54574l.017158-15.451z"/><path d="m24.221 35.491c1.2448 0 2.117-.65653 2.117-1.7592v-.016834c0-.97637-.64358-1.4225-1.8969-1.7255-1.1432-.26934-1.4142-.47135-1.4142-.92587v-.016834c0-.38718.35566-.69861.96537-.69861.46575 0 .90609.15151 1.3634.4461.084682.050502.16936.075753.27098.075753.27098 0 .49115-.21043.49115-.47977 0-.20201-.11009-.3451-.22864-.41243-.53349-.35351-1.1347-.54711-1.8799-.54711-1.1771 0-2.0239.69861-2.0239 1.7087v.016834c0 1.0858.71133 1.4561 1.9731 1.7592 1.1009.25251 1.338.47977 1.338.90062v.016834c0 .43768-.40647.7407-1.0501.7407s-1.1686-.21884-1.6598-.60603c-.067745-.050502-.1609-.092587-.30485-.092587-.27098 0-.49115.21043-.49115.47977 0 .16834.084682.31143.20324.3956.66052.48819 1.4227.7407 2.2271.7407zm7.1979-4.0654c0-.28618-.23711-.51344-.51656-.51344-.28792 0-.51656.22726-.51656.51344v2.0453c0 .6902-.41494 1.0942-1.0077 1.0942-.60971 0-.9569-.38718-.9569-1.0774v-2.0622c0-.28618-.22864-.51344-.51656-.51344-.27945 0-.50809.22726-.50809.51344v2.3652c0 1.0353.5843 1.7087 1.592 1.7087.69439 0 1.1093-.36193 1.3972-.78278v.22726c0 .28618.23711.50502.51656.50502.28792 0 .51656-.22726.51656-.50502v-3.5183zm1.2787 4.865v-4.865c0-.28618.22017-.51344.50809-.51344s.51656.22726.51656.51344v.27776c.33026-.46294.79601-.83328 1.5243-.83328 1.0501 0 2.0747.82487 2.0747 2.3063v.016834c0 1.473-1.0162 2.3063-2.0747 2.3063-.7452 0-1.2109-.37035-1.5243-.78278v1.574c0 .28618-.22864.50502-.51656.50502-.27945 0-.50809-.21884-.50809-.50502zm2.3033-1.675c.70286 0 1.2787-.54711 1.2787-1.4225v-.016834c0-.85854-.5843-1.4225-1.2787-1.4225-.69439 0-1.3041.57236-1.3041 1.4225v.016834c0 .85012.60971 1.4225 1.3041 1.4225zm4.1494-1.7423h2.2949c-.067745-.65653-.45728-1.17-1.1347-1.17-.62664 0-1.067.47977-1.1601 1.17zm2.8876 2.0453c-.40647.36193-.91456.58919-1.609.58919-1.2956 0-2.2949-.93429-2.2949-2.3063v-.016834c0-1.271.90609-2.3147 2.1848-2.3147 1.4227 0 2.1255 1.1615 2.1255 2.1884 0 .28618-.22017.48819-.48269.48819h-2.803c.11009.72386.62664 1.1279 1.2872 1.1279.43188 0 .7706-.15151 1.0585-.38718.076214-.058919.14396-.092587.26251-.092587.22864 0 .40647.17676.40647.41243 0 .12626-.059277.23568-.13549.31143zm1.4565.025251c0 .28618.22864.50502.50809.50502.28792 0 .51656-.22726.51656-.50502v-1.3131c0-1.0521.49962-1.6077 1.2279-1.7339.22864-.042085.40647-.21884.40647-.48819 0-.2946-.1863-.50502-.50809-.50502-.44881 0-.88916.42085-1.1263.97637v-.45452c0-.28618-.22864-.51344-.51656-.51344s-.50809.22726-.50809.51344v3.5183zm3.4804-5.126c0 .30301.25404.50502.5843.50502s.5843-.20201.5843-.50502v-.050502c0-.30301-.25404-.4966-.5843-.4966s-.5843.19359-.5843.4966zm.076214 5.126c0 .28618.22864.50502.50809.50502.28792 0 .51656-.21884.51656-.50502v-3.5183c0-.28618-.22864-.51344-.51656-.51344s-.50809.22726-.50809.51344zm4.4881.56394c-1.3634 0-2.3711-1.0353-2.3711-2.2978v-.016834c0-1.271 1.0162-2.3231 2.388-2.3231s2.3796 1.0353 2.3796 2.3063v.016834c0 1.2626-1.0162 2.3147-2.3965 2.3147zm.016936-.8922c.82988 0 1.3549-.63969 1.3549-1.4056v-.016834c0-.78278-.56737-1.4309-1.3718-1.4309-.82141 0-1.3464.63969-1.3464 1.4141v.016834c0 .77437.56737 1.4225 1.3634 1.4225zm3.4211.32826c0 .28618.22864.50502.50809.50502.28792 0 .51656-.22726.51656-.50502v-1.3131c0-1.0521.49962-1.6077 1.2279-1.7339.22864-.042085.40647-.21884.40647-.48819 0-.2946-.1863-.50502-.50809-.50502-.44881 0-.88916.42085-1.1263.97637v-.45452c0-.28618-.22864-.51344-.51656-.51344s-.50809.22726-.50809.51344v3.5183zm7.5451.11784c.10162.26934.28792.42927.54196.42927h.10162c.25404 0 .44881-.15992.54196-.42927l1.321-3.8466 1.321 3.8466c.09315.26934.27945.42927.53349.42927h.10162c.25404 0 .44881-.16834.54196-.42927l1.7529-4.8819c.025404-.058919.050809-.14309.050809-.21043 0-.27776-.23711-.4966-.51656-.4966-.25404 0-.43188.15992-.50809.37035l-1.3634 4.057-1.338-4.0318c-.076214-.24409-.26251-.41243-.52503-.41243h-.076214c-.26251 0-.44034.16834-.52503.41243l-1.338 4.0318-1.3634-4.0486c-.067745-.21884-.26251-.37877-.51656-.37877-.28792 0-.53349.21884-.53349.50502 0 .067336.016936.14309.042341.20201l1.7529 4.8819zm9.4928.4461c-1.3634 0-2.3711-1.0353-2.3711-2.2978v-.016834c0-1.271 1.0162-2.3231 2.388-2.3231s2.3796 1.0353 2.3796 2.3063v.016834c0 1.2626-1.0162 2.3147-2.3965 2.3147zm.016936-.8922c.82988 0 1.3549-.63969 1.3549-1.4056v-.016834c0-.78278-.56737-1.4309-1.3718-1.4309-.82141 0-1.3464.63969-1.3464 1.4141v.016834c0 .77437.56737 1.4225 1.3634 1.4225zm3.4211.32826c0 .28618.22864.50502.50809.50502.28792 0 .51656-.22726.51656-.50502v-1.3131c0-1.0521.49962-1.6077 1.2279-1.7339.22864-.042085.40647-.21884.40647-.48819 0-.2946-.1863-.50502-.50809-.50502-.44881 0-.88916.42085-1.1263.97637v-.45452c0-.28618-.22864-.51344-.51656-.51344s-.50809.22726-.50809.51344v3.5183zm7.7653-5.2186v5.2186c0 .28618-.22864.50502-.50809.50502-.28792 0-.51656-.21884-.51656-.50502v-.27776c-.33026.46294-.79601.83328-1.5243.83328-1.0501 0-2.0747-.83328-2.0747-2.3063v-.016834c0-1.473 1.0077-2.3063 2.0747-2.3063.73673 0 1.2025.36193 1.5243.78278v-1.9275c0-.28618.22864-.50502.50809-.50502.28792 0 .51656.21884.51656.50502zm-2.3033 2.0285c-.70286 0-1.2872.53869-1.2872 1.4225v.016834c0 .85854.59277 1.4225 1.2872 1.4225.68592 0 1.2956-.57236 1.2956-1.4225v-.016834c0-.85854-.60971-1.4225-1.2956-1.4225zm3.7091 3.1816v-4.8987c0-.2946.22864-.52186.52503-.52186h1.8122c1.3888 0 2.2525.78278 2.2525 1.9696v.016834c0 1.3215-1.067 2.0117-2.3711 2.0117h-1.1771v1.4225c0 .28618-.22864.51344-.51656.51344-.29639 0-.52503-.22726-.52503-.51344zm1.0416-2.3568h1.2109c.78754 0 1.2787-.43768 1.2787-1.0521v-.016834c0-.6902-.49962-1.0521-1.2787-1.0521h-1.2109v2.1211zm4.4966 2.3652c0 .28618.22864.50502.50809.50502.28792 0 .51656-.22726.51656-.50502v-1.3131c0-1.0521.49962-1.6077 1.2279-1.7339.22864-.042085.40647-.21884.40647-.48819 0-.2946-.1863-.50502-.50809-.50502-.44881 0-.88916.42085-1.1263.97637v-.45452c0-.28618-.22864-.51344-.51656-.51344s-.50809.22726-.50809.51344v3.5183zm4.1155-2.0706h2.2949c-.067745-.65653-.45728-1.17-1.1347-1.17-.62664 0-1.067.47977-1.1601 1.17zm2.8876 2.0453c-.40647.36193-.91456.58919-1.609.58919-1.2956 0-2.2949-.93429-2.2949-2.3063v-.016834c0-1.271.90609-2.3147 2.1848-2.3147 1.4227 0 2.1255 1.1615 2.1255 2.1884 0 .28618-.22017.48819-.48269.48819h-2.803c.11009.72386.62664 1.1279 1.2872 1.1279.43188 0 .7706-.15151 1.0585-.38718.076214-.058919.14396-.092587.26251-.092587.22864 0 .40647.17676.40647.41243 0 .12626-.059277.23568-.13549.31143zm2.9893.57236c.9315 0 1.6598-.46294 1.6598-1.3972v-.016834c0-.79962-.73673-1.0942-1.3888-1.2962-.52503-.16834-1.0077-.30301-1.0077-.63128v-.016834c0-.25251.22864-.43768.62664-.43768.31332 0 .68592.11784 1.0501.30301.067745.033668.11855.050502.20324.050502.23711 0 .42341-.17676.42341-.41243 0-.17676-.10162-.31143-.24558-.38718-.43188-.22726-.9315-.36193-1.4057-.36193-.88916 0-1.592.51344-1.592 1.3551v.016834c0 .85012.73673 1.1195 1.3972 1.3046.52503.15992.99924.27776.99924.62286v.016834c0 .2946-.25404.47977-.69439.47977-.40647 0-.85528-.14309-1.2872-.42927-.059277-.033668-.13549-.058919-.22017-.058919-.23711 0-.41494.18517-.41494.41243 0 .16834.084682.2946.19477.35351.51656.35351 1.1347.53027 1.7021.53027zm4.1579 0c.9315 0 1.6598-.46294 1.6598-1.3972v-.016834c0-.79962-.73673-1.0942-1.3888-1.2962-.52503-.16834-1.0077-.30301-1.0077-.63128v-.016834c0-.25251.22864-.43768.62664-.43768.31332 0 .68592.11784 1.0501.30301.067745.033668.11855.050502.20324.050502.23711 0 .42341-.17676.42341-.41243 0-.17676-.10162-.31143-.24558-.38718-.43188-.22726-.9315-.36193-1.4057-.36193-.88916 0-1.592.51344-1.592 1.3551v.016834c0 .85012.73673 1.1195 1.3972 1.3046.52503.15992.99924.27776.99924.62286v.016834c0 .2946-.25404.47977-.69439.47977-.40647 0-.85528-.14309-1.2872-.42927-.059277-.033668-.13549-.058919-.22017-.058919-.23711 0-.41494.18517-.41494.41243 0 .16834.084682.2946.19477.35351.51656.35351 1.1347.53027 1.7021.53027zm5.3688-.55552v-4.8987c0-.2946.22864-.52186.52503-.52186h1.8122c1.3888 0 2.2525.78278 2.2525 1.9696v.016834c0 1.3215-1.067 2.0117-2.3711 2.0117h-1.1771v1.4225c0 .28618-.22864.51344-.51656.51344-.29639 0-.52503-.22726-.52503-.51344zm1.0416-2.3568h1.2109c.78754 0 1.2787-.43768 1.2787-1.0521v-.016834c0-.6902-.49962-1.0521-1.2787-1.0521h-1.2109v2.1211zm5.2249.2946h2.2949c-.067746-.65653-.45728-1.17-1.1347-1.17-.62664 0-1.067.47977-1.1601 1.17zm2.8876 2.0453c-.40647.36193-.91456.58919-1.609.58919-1.2956 0-2.2949-.93429-2.2949-2.3063v-.016834c0-1.271.90609-2.3147 2.1848-2.3147 1.4227 0 2.1255 1.1615 2.1255 2.1884 0 .28618-.22017.48819-.48268.48819h-2.803c.11009.72386.62664 1.1279 1.2872 1.1279.43188 0 .7706-.15151 1.0585-.38718.076213-.058919.14396-.092587.26251-.092587.22864 0 .40647.17676.40647.41243 0 .12626-.059278.23568-.13549.31143zm1.4565.025251c0 .28618.22864.50502.50809.50502.28792 0 .51656-.22726.51656-.50502v-1.3131c0-1.0521.49962-1.6077 1.2279-1.7339.22864-.042085.40647-.21884.40647-.48819 0-.2946-.1863-.50502-.50809-.50502-.44881 0-.88916.42085-1.1263.97637v-.45452c0-.28618-.22864-.51344-.51656-.51344s-.50809.22726-.50809.51344v3.5183zm3.726 0c0 .27776.22864.50502.50809.50502.28792 0 .51656-.22726.51656-.50502v-3.1059h.77907c.23711 0 .43188-.18517.43188-.42085s-.1863-.42085-.43188-.42085h-.79601v-.24409c0-.46294.20324-.67336.59277-.67336.067745 0 .15243.008417.2117.016834.23711.008417.43188-.18517.43188-.42085 0-.22726-.16936-.3956-.35566-.42085-.14396-.025251-.31332-.042085-.51656-.042085-.44034 0-.7706.11784-1.0077.35351-.23711.23568-.36413.60603-.36413 1.0942v.32826h-.17783c-.23711 0-.43188.19359-.43188.42927s.19477.42085.43188.42085h.17783v3.1059zm4.9962.56394c-1.3634 0-2.3711-1.0353-2.3711-2.2978v-.016834c0-1.271 1.0162-2.3231 2.388-2.3231s2.3796 1.0353 2.3796 2.3063v.016834c0 1.2626-1.0162 2.3147-2.3965 2.3147zm.016936-.8922c.82988 0 1.3549-.63969 1.3549-1.4056v-.016834c0-.78278-.56737-1.4309-1.3718-1.4309-.82141 0-1.3464.63969-1.3464 1.4141v.016834c0 .77437.56737 1.4225 1.3634 1.4225zm3.4211.32826c0 .28618.22864.50502.50809.50502.28792 0 .51656-.22726.51656-.50502v-1.3131c0-1.0521.49962-1.6077 1.2279-1.7339.22864-.042085.40647-.21884.40647-.48819 0-.2946-.1863-.50502-.50809-.50502-.44881 0-.88916.42085-1.1263.97637v-.45452c0-.28618-.22864-.51344-.51656-.51344s-.50809.22726-.50809.51344v3.5183zm3.4974 0c0 .28618.22864.50502.50809.50502.28792 0 .51656-.21884.51656-.50502v-2.0453c0-.68178.38954-1.1026.9569-1.1026.56737 0 .90609.38718.90609 1.0774v2.0706c0 .28618.22864.50502.51656.50502.27945 0 .50809-.21884.50809-.50502v-2.0453c0-.71545.398-1.1026.9569-1.1026.57584 0 .90609.37877.90609 1.0858v2.0622c0 .28618.22864.50502.51656.50502s.50809-.21884.50809-.50502v-2.3736c0-1.0858-.59277-1.7002-1.5666-1.7002-.67745 0-1.1517.31143-1.5073.78278-.23711-.47135-.69439-.78278-1.338-.78278-.68592 0-1.0755.37035-1.3634.76595v-.21043c0-.28618-.22864-.51344-.51656-.51344s-.50809.22726-.50809.51344v3.5183zm9.3319.55552c-.83835 0-1.5835-.47977-1.5835-1.372v-.016834c0-.95954.75367-1.4309 1.8461-1.4309.49962 0 .85528.075753 1.2025.18517v-.10942c0-.63128-.38954-.96796-1.1093-.96796-.38954 0-.71133.067336-.99078.17676-.059277.016834-.11009.025251-.1609.025251-.23711 0-.43188-.18517-.43188-.42085 0-.18517.12702-.3451.27945-.40402.42341-.15992.85528-.26093 1.4396-.26093.66898 0 1.1686.17676 1.4819.4966.33026.31985.48268.7912.48268 1.372v2.1884c0 .27776-.22017.48819-.49962.48819-.29639 0-.49962-.20201-.49962-.42927v-.16834c-.30485.36193-.7706.64811-1.4565.64811zm.28792-.7407c.67745 0 1.194-.38718 1.194-.95112v-.30301c-.26251-.101-.60971-.17676-1.0162-.17676-.66052 0-1.0501.27776-1.0501.7407v.016834c0 .42927.38107.67336.87222.67336zm3.3957.18517c0 .28618.22864.50502.50809.50502.28792 0 .51656-.21884.51656-.50502v-2.0453c0-.6902.41494-1.1026 1.0077-1.1026.60971 0 .9569.3956.9569 1.0858v2.0622c0 .28618.22864.50502.51656.50502s.50809-.21884.50809-.50502v-2.3736c0-1.0269-.5843-1.7002-1.592-1.7002-.69439 0-1.1093.36193-1.3972.77437v-.21884c0-.28618-.22864-.51344-.51656-.51344s-.50809.22726-.50809.51344v3.5183zm7.3165.56394c.7452 0 1.2279-.25251 1.6259-.63128.09315-.075753.14396-.18517.14396-.31985 0-.24409-.19477-.4461-.44034-.4461-.11855 0-.22017.058919-.27945.10942-.27945.23568-.59277.3956-.99924.3956-.78754 0-1.338-.63128-1.338-1.4225v-.016834c0-.77437.55043-1.4141 1.2956-1.4141.40647 0 .69439.15992.9569.37877.067746.050502.17783.101.30485.101.26251 0 .47422-.20201.47422-.46294 0-.16834-.09315-.2946-.1609-.35351-.38107-.32826-.86375-.55552-1.5666-.55552-1.3464 0-2.3287 1.0605-2.3287 2.3231v.016834c0 1.2626.98231 2.2978 2.3118 2.2978zm3.4127-2.6345h2.2949c-.067746-.65653-.45728-1.17-1.1347-1.17-.62664 0-1.067.47977-1.1601 1.17zm2.8876 2.0453c-.40647.36193-.91456.58919-1.609.58919-1.2956 0-2.2949-.93429-2.2949-2.3063v-.016834c0-1.271.90609-2.3147 2.1848-2.3147 1.4227 0 2.1255 1.1615 2.1255 2.1884 0 .28618-.22017.48819-.48269.48819h-2.803c.11009.72386.62664 1.1279 1.2872 1.1279.43188 0 .7706-.15151 1.0585-.38718.076213-.058919.14396-.092587.26251-.092587.22864 0 .40647.17676.40647.41243 0 .12626-.059278.23568-.13549.31143z"/></g></g></svg>