<svg height="768" width="862.9" xmlns="http://www.w3.org/2000/svg" xmlns:xlink="http://www.w3.org/1999/xlink"><clipPath id="a"><circle cx="495.7" cy="398" r="285.2"/></clipPath><linearGradient id="b" gradientTransform="matrix(1 0 0 -1 0 5679.157)" gradientUnits="userSpaceOnUse" x1="382.961" x2="382.961" y1="5752.14" y2="5211.451"><stop offset=".049" stop-color="#a780a0"/><stop offset=".245" stop-color="#b490ac"/><stop offset=".627" stop-color="#d4bacd"/><stop offset=".661" stop-color="#d8bed1"/><stop offset=".935" stop-color="#eed5b9"/></linearGradient><clipPath id="c"><circle cx="495.7" cy="398" r="285.2"/></clipPath><linearGradient id="d" gradientTransform="matrix(1 0 0 -1 0 5679.157)" gradientUnits="userSpaceOnUse" x1="649.618" x2="383.995" y1="5974.32" y2="4768.263"><stop offset=".294" stop-color="#fff"/><stop offset=".864" stop-color="#fff" stop-opacity="0"/></linearGradient><clipPath id="e"><circle cx="495.7" cy="398" r="285.2"/></clipPath><clipPath id="f"><circle cx="495.7" cy="398" r="285.2"/></clipPath><clipPath id="g"><circle cx="495.7" cy="398" r="285.2"/></clipPath><clipPath id="h"><circle cx="495.7" cy="398" r="285.2"/></clipPath><clipPath id="i"><circle cx="495.7" cy="398" r="285.2"/></clipPath><clipPath id="j"><circle cx="495.7" cy="398" r="285.2"/></clipPath><clipPath id="k"><circle cx="495.7" cy="398" r="285.2"/></clipPath><clipPath id="l"><circle cx="495.7" cy="398" r="285.2"/></clipPath><linearGradient id="m"><stop offset=".129" stop-color="#e83e5c"/><stop offset=".405" stop-color="#c0202e"/></linearGradient><linearGradient id="n" gradientTransform="matrix(.97670225 .21459896 .21459896 -.97670225 -290.388721 4534.602818)" gradientUnits="userSpaceOnUse" x1="-150.652" x2="-369.304" xlink:href="#m" y1="3966.124" y2="4102.958"/><clipPath id="o"><circle cx="495.7" cy="398" r="285.2"/></clipPath><linearGradient id="p" gradientTransform="matrix(.97670225 .21459896 .21459896 -.97670225 -290.388721 4534.602818)" gradientUnits="userSpaceOnUse" x1="80.381" x2="-710.99" xlink:href="#m" y1="4057.749" y2="3915.273"/><clipPath id="q"><circle cx="495.7" cy="398" r="285.2"/></clipPath><linearGradient id="r" gradientTransform="matrix(.97670225 .21459896 .21459896 -.97670225 -290.388721 4534.602818)" gradientUnits="userSpaceOnUse" x1="31.413" x2="-171.713" y1="3963.8" y2="3705.661"><stop offset="0" stop-color="#e83e5c"/><stop offset=".405" stop-color="#c0202e"/></linearGradient><clipPath id="s"><circle cx="495.7" cy="398" r="285.2"/></clipPath><clipPath id="t"><circle cx="495.7" cy="398" r="285.2"/></clipPath><linearGradient id="u"><stop offset="0" stop-color="#d9eef6"/><stop offset="1" stop-color="#799acd"/></linearGradient><linearGradient id="v" gradientTransform="matrix(.97670225 .21459896 .21459896 -.97670225 -290.388721 4534.602818)" gradientUnits="userSpaceOnUse" x1="-210.923" x2="-116.255" xlink:href="#u" y1="3917.151" y2="3917.151"/><clipPath id="w"><circle cx="495.7" cy="398" r="285.2"/></clipPath><linearGradient id="x" gradientTransform="matrix(.97670225 .21459896 .21459896 -.97670225 -290.388721 4534.602818)" gradientUnits="userSpaceOnUse" x1="55.186" x2="111.422" xlink:href="#u" y1="3974.515" y2="3974.515"/><clipPath id="y"><circle cx="495.7" cy="398" r="285.2"/></clipPath><linearGradient id="z"><stop offset=".003" stop-color="#fffffb"/><stop offset=".17" stop-color="#d9eef6"/><stop offset=".201" stop-color="#d2e8f3"/><stop offset=".413" stop-color="#a3bddf"/><stop offset=".574" stop-color="#85a3d2"/><stop offset=".663" stop-color="#799acd"/></linearGradient><radialGradient id="A" cx="-168.992" cy="4018.788" gradientTransform="matrix(1.0205 .2241 .2241 -1.0205 -275.392 4764.088)" gradientUnits="userSpaceOnUse" r="323.123" xlink:href="#z"/><clipPath id="B"><circle cx="495.7" cy="398" r="285.2"/></clipPath><radialGradient id="C" cx="24.427" cy="3962.036" gradientTransform="matrix(1.0205 .2241 .2241 -1.0205 -275.392 4764.088)" gradientUnits="userSpaceOnUse" r="678.495" xlink:href="#z"/><clipPath id="D"><circle cx="495.7" cy="398" r="285.2"/></clipPath><clipPath id="E"><circle cx="495.7" cy="398" r="285.2"/></clipPath><clipPath id="F"><circle cx="495.7" cy="398" r="285.2"/></clipPath><clipPath id="G"><circle cx="495.7" cy="398" r="285.2"/></clipPath><clipPath id="H"><circle cx="495.7" cy="398" r="285.2"/></clipPath><linearGradient id="I" gradientTransform="matrix(.97670225 .21459896 .21459896 -.97670225 -290.388721 4534.602818)" gradientUnits="userSpaceOnUse" x1="34.17" x2="-260.248" xlink:href="#m" y1="4067.614" y2="3823.338"/><clipPath id="J"><circle cx="495.7" cy="398" r="285.2"/></clipPath><clipPath id="K"><circle cx="495.7" cy="398" r="285.2"/></clipPath><clipPath id="L"><circle cx="495.7" cy="398" r="285.2"/></clipPath><clipPath id="M"><circle cx="495.7" cy="398" r="285.2"/></clipPath><clipPath id="N"><circle cx="495.7" cy="398" r="285.2"/></clipPath><clipPath id="O"><circle cx="495.7" cy="398" r="285.2"/></clipPath><clipPath id="P"><circle cx="495.7" cy="398" r="285.2"/></clipPath><clipPath id="Q"><circle cx="495.7" cy="398" r="285.2"/></clipPath><clipPath id="R"><circle cx="495.7" cy="398" r="285.2"/></clipPath><clipPath id="S"><circle cx="495.7" cy="398" r="285.2"/></clipPath><clipPath id="T"><circle cx="495.7" cy="398" r="285.2"/></clipPath><clipPath id="U"><circle cx="495.7" cy="398" r="285.2"/></clipPath><clipPath id="V"><circle cx="495.7" cy="398" r="285.2"/></clipPath><clipPath id="W"><circle cx="495.7" cy="398" r="285.2"/></clipPath><linearGradient id="X" gradientTransform="matrix(.97670225 .21459896 .21459896 -.97670225 -290.388721 4534.602818)" gradientUnits="userSpaceOnUse" x1="-173.189" x2="-254.469" xlink:href="#u" y1="4639.47" y2="4371.092"/><linearGradient id="Y"><stop offset=".049" stop-color="#fffffb"/><stop offset=".282" stop-color="#d9eef6"/><stop offset="1" stop-color="#799acd"/></linearGradient><linearGradient id="Z" gradientTransform="matrix(.97670225 .21459896 .21459896 -.97670225 -290.388721 4534.602818)" gradientUnits="userSpaceOnUse" x1="-169.219" x2="-319.507" xlink:href="#Y" y1="4588.216" y2="4258.503"/><linearGradient id="aa" gradientTransform="matrix(.97670225 .21459896 .21459896 -.97670225 -290.388721 4534.602818)" gradientUnits="userSpaceOnUse" x1="33.382" x2="-136.868" xlink:href="#u" y1="4558.13" y2="4179.951"/><radialGradient id="ab" cx="-96.351" cy="4372.446" gradientTransform="matrix(1.0205 .2241 .2241 -1.0205 -275.392 4764.088)" gradientUnits="userSpaceOnUse" r="620.469" xlink:href="#z"/><linearGradient id="ac" gradientTransform="matrix(.7553 .1659 .2146 -.9767 864.617 4788.702)" gradientUnits="userSpaceOnUse" x1="-2100.671" x2="-2111.614" xlink:href="#u" y1="3996.463" y2="4724.177"/><linearGradient id="ad" gradientTransform="matrix(.7553 .1659 .2146 -.9767 864.617 4788.702)" gradientUnits="userSpaceOnUse" x1="-2086.966" x2="-2108.025" xlink:href="#Y" y1="4449.251" y2="4024.241"/><linearGradient id="ae" gradientTransform="matrix(.881 -.0844 -.0019 -.8835 215.39 5944.94)" gradientUnits="userSpaceOnUse" x1="477.994" x2="456.155" xlink:href="#u" y1="6196.806" y2="6387.912"/><linearGradient id="af" gradientTransform="matrix(1.1537 .2139 .2319 -1.0365 -1189.122 4652.587)" gradientUnits="userSpaceOnUse" x1="609.547" x2="592.122" xlink:href="#u" y1="4190.809" y2="4343.296"/><linearGradient id="ag" gradientTransform="matrix(.97670225 .21459896 .21459896 -.97670225 -290.388721 4534.602818)" gradientUnits="userSpaceOnUse" x1="-55.37" x2="-38.81" xlink:href="#u" y1="4149.19" y2="4203.907"/><path d="m494.9 33.4c-68.8 0-136.3 19.6-195.6 57.6-82 52.5-138.7 133.7-159.5 228.8-20.9 95.1-3.5 192.6 49 274.6s133.7 138.7 228.8 159.5c95.1 20.9 192.6 3.5 274.6-49s138.7-133.7 159.5-228.8c20.9-95.1 3.5-192.6-49-274.6-52.5-81.9-133.8-138.6-228.8-159.5-26.3-5.7-52.7-8.6-79-8.6zm1.3 651.7c-20.7 0-41.5-2.2-62.2-6.8-74.9-16.4-138.9-61.1-180.2-125.7s-55-141.4-38.6-216.3c34-154.6 187.4-252.7 341.9-218.8 154.7 34.1 252.9 187.5 218.9 342.1-16.4 74.9-61.1 138.9-125.7 180.2-46.7 29.9-99.9 45.3-154.1 45.3zm-.6-570.5c-130.1 0-247.6 90.4-276.7 222.6-16.2 73.9-2.7 149.7 38.1 213.5s104 107.8 177.9 124 149.7 2.7 213.5-38.1 107.8-104 124-177.9c33.5-152.6-63.4-304-215.9-337.5-20.4-4.4-40.8-6.6-60.9-6.6z" fill="#fff"/><path clip-path="url(#a)" d="m-16.8 73.3h799.5v687.8h-799.5z" fill="url(#b)"/><path clip-path="url(#c)" d="m875.8 653.8c-96.8 17.5-188.3 33.9-275 49.4-93.6 16.8-181.9 32.5-265.3 47.5-75.6 13.5-147.4 26.5-215.7 38.8-50.9 9.2-100 18.2-147.3 27.1-14.9 2.8-29.7 5.6-44.3 8.5-6.1 1.2-40.8 10.2-32.2-16.6 3.2-10.1 12.6-6.9 17-5 .4-15.4 8-14.7 13.2-15.4-2.9-4.3-10-1.4-10.9-9.9-1.3-11.1 8-20.4 11.8-23.6 9.2-7.8 29.5-9.8 30.5-37.8-4.8 4.9-13.7 5-11.7-11.5 1.7-13.5 8.9-9.4 13.2-7.7-5.9-16.7-14.1-26-10.8-52 1.4-10.8 6.4-28.8 12.3-34.1 3.4-3 6.4 1.5 9.1.1 4-2.2 4.7-6.7 7.5-11.8 5.7-10.4 8.6-13.3 10.1-27.3 1.8-16.7.7-28 10.3-38.6 7.3-8.1 20-12 28-12.8s11.7 9.7 18.9 10.2c14.9 1.2 12.1-45 29-33.9-2.9-7.3-4.5-18.6 1.2-26.1 5.1-6.8 13.1.5 19.2-2.3-4.7-28.1 9.4-29.8 21.4-35 4.8-19.4 18.5-9.6 23.9-1.4-7.8-15.5-7.3-44.5-.9-65.7 9.7-32.1 32.9-46.8 50.1-49.7 20.3-3.5 38 5 49.1 33.6 5.3 13.7 18.3 54 9 73.1 7.6-26.7 25.1-32.5 38-24.4 15.7 9.8 22.6 31.6 16.4 61.2 8.7-4 20.2 10.1 18.2 26.4 15.5-32.2 31.9-17.1 48.7-5.7.4-39.1 41.8-40.4 40.9-3 11.3-8.3 21.2-14.9 33.4-14.1 8.5.6 18.2 13.8 26.9 10.7 13.5-4.8 6.8-24.4 8.5-41 1.2-11 3.5-21.9 7.9-31.4 11.5-25.3 29.7-27.8 46.8-27.7 18.6.2 36.9 4.7 50 25.4 8.8 13.8 19.8 41.7 11.6 64.5 6.5-21.1 27.5 2.2 20.7 21.8 10.5-5 42.1 10.4 27 31.8 11.2 8 21.5-10.2 32.3-18 15.1-10.9 28.8-14.3 44.5-17.1 26.5-4.7 51 4.7 58.8 44.7 4.7-9.3 15.6-14.7 22.7-13.2 9.9 2 10.5 15 19.3 11.1 7.9-3.5 15.1-17.9 24.8-21 9.8-3.2 16.3.2 17.2 18.8.9 19.5-20.3 57.6 6.6 36.5 9.8-7.7 11.2-12.9 23.1-11.8 10.8.9 19 3.5 27.3 10.6 8-37.6 41.9-40.8 63.1-41.6" fill="url(#d)"/><path clip-path="url(#e)" d="m616.3 722.6c54-22.1 33.7-31.2 33.7-31.2l26.1-17.7c127.5-85.4-6.1-153.3-6.1-153.3-152.6-66.3-370 28.7-370 28.7-165.8 84 36.7 147.2 36.7 147.2 83.6 24.2 67.2 24.1 67.2 24.1m78.2 69.8c38.1-24.4 50.1-10 50.1-10m-110.1-149.7-28.9-4.8s-15.4-15.1-35.5 7.4l-30.6-4.4c1.8-3.1 62.2-43.6 93.8-43.7 0 0 10.8-11.7 5.3 29.2zm204.8-9.6-3-28.7s64.2 16.4 3 28.7z" fill="#c0202e"/><path clip-path="url(#f)" d="m394 711.4c-33.6-8.8-65.6-23.4-96.1-40-16.8-9.1-33.3-19.9-44.6-35.7-12.6-17.6-.2-34.1 12.6-46.8 39.4-39.2 107.1-57.2 161-60.2 17.1-.9 17.2-27.4 0-26.6-68.8 3.2-158.1 30.5-196.1 92.5-18.3 29.9 4.9 58.5 28.2 75.6 37.2 27.5 88.8 38.3 133.2 47.3 4.1.9 5.9-5 1.8-6.1z" fill="#811719"/><path clip-path="url(#g)" d="m673.3 675.3c24-5.3 39.8-22.7 53.6-42.1 18.6-26.2 18.8-48.4 3.4-76.2-25.8-46.9-93.5-70-144.1-67.8-12.1.5-16.1 20.2-3 22.1 39.8 5.7 80 13.4 111.9 39.8 24.1 20 34.3 45.2 17.6 73.8-11.3 19.4-25.2 32.5-40.7 48.1-.9 1 .1 2.5 1.3 2.3z" fill="#811719"/><path clip-path="url(#h)" d="m271.7 570.4s-108.7 60 61.1 126.4c0 0 11.8-.7 15.8-19 0 0-191.1-41.1-7.2-126.2.1.1.6-21.4-69.7 18.8z" fill="#a62026"/><path clip-path="url(#i)" d="m609.8 558c-2.2-2.3 126.6 29.8 51.6 70.3l-15.1-14.5s41-6.2-25.9-20.9c.1-.1 1.8-22-10.6-34.9z" fill="#a62026"/><path clip-path="url(#j)" d="m409.6 789.4s47.1-47.6 48.2-99.2c0 0 18.2-78.3-30.8-109.4" fill="#a62026"/><path clip-path="url(#k)" d="m532.3 780.2s-27.3-13.5-60.6 17.8c0 0 52.9-78.8 87.1-35.8" fill="#a62026"/><path clip-path="url(#l)" d="m314.2 618.6s39-64.1 106.9-61.6c0 0 41.3 10.1-4.3 19.8 0 0-51.2 6.4-102.6 41.8z" fill="url(#n)"/><path clip-path="url(#o)" d="m631.6 533.8c-3-1.2 151.5 28.1 56.9 104.8 0 0-8.6 10.6-17.7.3 0-.1 79.2-58.4-39.2-105.1z" fill="url(#p)"/><path clip-path="url(#q)" d="m612.7 613.6s-2.2 93.3-26.4 139.7c0 0-48.6-38.7-96.3-8.2 0 0 41.8-48 12.7-82.4 0 0 42.2 63.2 68.1 48.4 0 0 27.5-27.3 41.9-97.5z" fill="url(#r)"/><path clip-path="url(#s)" d="m252.1 582.1s62.1-41.2 160.4-32.7c0 0 262.6 29 199.5-48.4l-32.6-1.9-90.4 27.1s-102-46.8-236.9 55.9z" fill="#811719"/><g clip-path="url(#t)"><path d="m359.5 633s12.6-18.1 28-7.4c0 0 51.7-.3 51.8 32.9 0 0 .3 71.4-41.4 65.3 0 0-11.5 1.8-15-10.1l-46.3-15.7s33.6-27 22.9-65z" fill="url(#v)"/></g><g clip-path="url(#w)"><path d="m642.8 616.6s-18.9 5.7-19.7 18.6l-5.2 83.5s45.2-12.8 31.4-25.7l22.5-18.4s10.6-42.6-29-58z" fill="url(#x)"/></g><g clip-path="url(#y)"><path d="m385.3 638.4s41.8-11 42.1 19.3c0 0 4.2 33-7.6 43.7s-56 10.5-35.4-33.1c.1.1 13.8-23 .9-29.9z" fill="url(#A)"/></g><g clip-path="url(#B)"><path d="m649.8 633s28.1 14.2 9.8 33.4c0 0-23.4 19.1-26.9 30.4 0 0-16.1-45.9 17.1-63.8z" fill="url(#C)"/></g><path clip-path="url(#D)" d="m508.9 526.5c-11.9-7.3-21.9-12.7-35.8-15.1-12.7-2.2-26 0-38.8-1.4-6.2-.7-7.2 9.2-1.4 10.6 24.6 6.3 50.4 5.2 75.5 8 1.2.2 1.4-1.5.5-2.1z" fill="#587a9a"/><path clip-path="url(#E)" d="m615.5 721c10.1 3.3 22.8-3.1 31-8.5 6.3-4.2 18.7-13.9 12.5-22.7-5.2-7.3-15.4.6-9.7 7.5-2.1-2.5-.1-3.8-1.2-1.7-.7 1.3-1.7 2.4-2.7 3.5-2.4 2.7-5.3 4.9-8.2 7-5.2 3.7-13 9.9-20 8.8-4-.6-5.7 4.8-1.7 6.1z" fill="#587a9a"/><path clip-path="url(#F)" d="m623.2 598.3c8.1.7 17.3 3.6 23.6 8.9 1.3 1.1 4.5 4.7 4.5 4.6-1.6-2.1 5.7-8.7 2.2-7.4-2.3.9-4.9 1.1-7.3 1.5-10 1.4-7.7 18.8 2.4 17.7 6.5-.7 14.8-1.7 18.6-7.9 3.3-5.5 1.4-10.9-2.3-15.5-3.9-4.9-12.1-6.6-17.6-8.9-7.6-3.1-16-4.2-24.1-3.9-7.1.4-6.9 10.3 0 10.9z" fill="#811719"/><path clip-path="url(#G)" d="m649.6 610.5c-5 .7-10 1.7-14.9 3.1-1.4.4-2.8 1.1-4.2 1.6-.7.3-4.3.9-2.7.8-11 .8-8.6 17.2 2 14.7 8.3-2 15.5-8.6 23.1-12.3 4.9-2.4 1.1-8.5-3.3-7.9z" fill="#587a9a"/><g clip-path="url(#H)"><path d="m453.8 578.4c-1.4-3.3 82.3-38.8 153.7-7.2 0 0 6.4 60.1-59.3 107.9 0 .1-71.7-45.9-94.4-100.7z" fill="url(#I)"/></g><path clip-path="url(#J)" d="m472.6 584.3c-1.1-2.7 67.1-31.6 125.1-5.8 0 0 5.2 48.9-48.3 87.9 0 0-58.4-37.5-76.8-82.1z" fill="#fff"/><ellipse cx="563.2" cy="596.1" fill="#1e76bc" rx="16.4" ry="16" transform="matrix(.21459896 -.97670225 .97670225 .21459896 -139.837833 1018.297675)"/><circle clip-path="url(#K)" cx="538.2" cy="633.2" fill="#1e76bc" r="10.4"/><circle clip-path="url(#L)" cx="513" cy="595.7" fill="#1e76bc" r="7.4"/><g fill="#811719"><path clip-path="url(#M)" d="m537.1 787.8c1.4-.9.9-.7-1.5.7-2.1.3-4.1.6-6.2.9h.2c-2.8-2.2-5.5-4.4-8.2-6.5l.1-4.4c-.6 2.9-.9 5.5.9 8.1 1.6 2.4 4.3 3.7 7.1 4 5.9.6 13.8-3.7 15.1-10 .5-2.6.9-4.2.4-6.8-.9-4.2-4.6-5.7-8.2-6.5-3.8-.8-7.9 1.4-11 3.3-4.9 3.1-8.6 10.2-5 15.6 3.6 5.6 11.4 4.7 16.3 1.6z"/><path clip-path="url(#N)" d="m484.3 802.8c9.1-13.6 31.4-18.3 46.2-14.2 12 3.4 16.3-14 5.1-18.3-22.1-8.5-54 3.7-66.5 23.6-6.1 9.8 8.9 18.3 15.2 8.9z"/><path clip-path="url(#O)" d="m480.9 797.6c9.2 0 9.2-14.2 0-14.2-9.1 0-9.1 14.2 0 14.2z"/><path clip-path="url(#P)" d="m417.4 584.7c1.6 14.7-4.1 28.9-2.8 43.6.7 7.4 10.6 11.4 14.7 4 8-14.4 8.8-34 3.8-49.8-2.6-8.1-16.7-7.1-15.7 2.2z"/></g><path clip-path="url(#Q)" d="m645.6 692.6c8.3 2.2 17.2-1.2 23.5-6.8 8.2-7.2 11.3-16.1 7.4-26.5-.9-2.4-4.6-2.8-5.3 0-1.6 6.2-3.3 13.4-7.8 18.2-4.8 5.3-10.8 12.3-17.8 14.5-.2.2-.2.6 0 .6z" fill="#587a9a"/><path clip-path="url(#R)" d="m406.5 728.8c17.8 0 3.1-6.5-6.3-6.5-17.7 0-3 6.5 6.3 6.5z" fill="#811719"/><path clip-path="url(#S)" d="m360 632.3c-10.6-3.3-21.8-6.8-31.2-12.8.7 5.6 1.4 11.2 2.2 16.8 29.6-22.9 63.5-30.7 97.7-43.4 9.1-3.4 8.5-18.4-2.4-17.8-39.1 2.1-79.8 22.6-110.4 46.2-9.6 7.4 1.4 19.1 10.4 17.8 10.7-1.5 22.1-.1 32.9-.9 3.3-.4 4.1-4.9.8-5.9z" fill="#811719"/><path clip-path="url(#T)" d="m355.6 635.3c4.7 25-9.2 38.9-23.2 57.1-3.5 4.5 2.9 9 7 7 24-11.4 31.8-42.6 25.1-66.5-1.6-5.8-10-3.4-8.9 2.4z" fill="#587a9a"/><path clip-path="url(#U)" d="m644 617.9c18.1 8.9 31.2 32.5 25.2 52.5-1.9 6.4 7.8 9 10 2.8 8.4-24.1-10.6-51.7-33.3-59.5-2.6-.9-4.3 3-1.9 4.2z" fill="#587a9a"/><path clip-path="url(#V)" d="m358.1 636.3c4.7-2.9 9.4-7.3 14.7-8.9-1.7-.8-1.6-.8.3.1 1.3.4 2.5 0 3.8.3 3.6.7 7.2 2.5 10.8 3.3 5 1.2 8.1-4.6 4.9-8.4-4.4-5.1-13.9-11.1-21-7-6.6 3.9-11.6 10.7-17.1 15.8-2.5 2.4.7 6.5 3.6 4.8z" fill="#587a9a"/><path clip-path="url(#W)" d="m379 713.2c1 13.4 13.9 16.4 25.5 16 20.1-.6 34.4-15.8 38.4-34.6 3.7-17.1 8.1-44.9-4-59.8-12.3-15.1-36.4-17.9-54.5-14.4-9.4 1.8-6.4 15.1 2.1 15.7 9.9.7 19.5.3 29.2 2.6 16.2 3.9 15.1 21.9 14.5 34.9-.7 13.2-1.4 26-11 36-5 5.2-29.7 15.2-34.1 2.8-1.1-3.1-6.3-2.8-6.1.8z" fill="#587a9a"/><path d="m395.8 8.3s-118.6-10.4-61.3 43.1c0 0-1 18.6 115.6 59.9 0 0 102.6 47.7 95.8 121.5l22.1 6.4s20.3-70.9-37.9-141.8c-.1.1-52.3-83.6-134.3-89.1z" fill="url(#X)"/><path d="m450.7 29.8c-4-2.3-62.8-35.8-102-14.6 0 0-58.3 15.4 97.1 65.3 0 0 69.2 13.6 109.1 118.2l16.7 9.9c0 .1 11.9-104-120.9-178.8z" fill="url(#Z)"/><path d="m548.3 226.8c5.5-56.1-43.4-93-86.7-119.1-23.4-14.1-50.7-21.4-76-31.1-12.3-4.7-80.8-41-47.3-54.3 43-17 95.8 2.8 131.1 26.5 30.5 20.5 54 50.6 72.4 81.9 10.9 18.5 19.2 38 20.9 59.6 1.4 17.2-2.9 34.5-1.9 51.8.4 7.1 9.9 8.3 12.2 1.6 25.2-74.3-19.1-144.8-73.2-193.7-42.9-38.5-96.8-56.5-153.6-48-13.9 2.1-34.4 9.6-35.3 26.5-1.2 23.6 23.6 41.4 41.4 52.1 31.4 18.8 68.9 24.3 101.2 41.2 39.5 20.7 87.3 56.9 91.1 105 .2 2.4 3.5 2.4 3.7 0z" fill="#587a9a"/><path d="m476.7 151.1s-183.4 86.9-176.7 296.9c0 0 31.3 52.6 176.8 73.1 0 0 77 39.8 129.8-18.6 0 0 120.8-49.2 114.4-117.7 0 0-87.4-200.6-245.6-215.4.1 0-4.3-12.4 1.3-18.3z" fill="url(#aa)"/><path d="m453.2 193.1s-307.9 271.4 54.2 306.2c0 0 152.1 3.4 212-93.4 11.4-18.4-18.2-71.1-63.4-121.1-.1 0-139.5-165.4-202.8-91.7z" fill="url(#ab)"/><path d="m567 526.1c37.5-23.6 84.8-32.1 114.5-67.4 2.8-3.4-.7-8.3-4.7-6.2-38.4 20.6-81.5 38.7-111.9 70.8-1.4 1.5.4 3.9 2.1 2.8z" fill="#587a9a"/><path d="m476.8 142.4c-84.6 40.7-153.2 122.9-177.4 213.2-4.4 16.4-6.7 33.3-8.3 50.1-1.1 11.7-5.6 37.3.4 47.7 3.9 6.8 10.8 12.1 16.8 16.8 51.9 40.6 130 49.5 192.8 56.1 7.5.8 23.2-9.1 9.4-10.5-61.1-6.4-131-15.2-182.6-51.8-6.1-4.3-12.2-9.6-16.3-15.9-5.3-8.3-.1-35.4.6-45.3 1.4-20.4 5.8-40.6 11.6-60.2 23.6-80.4 89.1-156.1 165-192.6 12.5-6.1-5-11-12-7.6z" fill="#587a9a"/><path d="m390 257.2s1.3-140.5-190.1-156.6c0 0-109.3-6.7-171.8 64.8 0 0-31.1 32.7-15.6 53.4 0 0 9.4 9.5 76.5-.5 0 0 229.1-47.2 283.8 56.2.1-.1 16.2 4.7 17.2-17.3z" fill="url(#ac)"/><path d="m67.6 156.1s-35.2 48.1 61.7 34c0 0 147.8-41.5 235.8 37.7 6.5 5.8 9.3-2.5 5.3-13-52.7-139.5-254.2-133.1-302.8-58.7z" fill="url(#ad)"/><path d="m378.7 275.7c-22.5-60.6-94.7-73.2-151.7-76.7-40.4-2.5-81.1 3.5-120.9 8.8-17.6 2.4-35.3 5.1-53 7-6.2.6-12.3.7-18.5.6-19.3-.2-16.8-16.4-9.7-28.3 37.2-62.3 125-80.6 191.6-75 40.6 3.4 81.6 19.5 113.8 44.5 34.4 26.6 46.2 62.7 52.4 104 1.6 10.4 18.7 7.9 18.3-2.5-7.7-175.1-263.8-209.7-370.7-104.7-16.9 16.6-39.4 43.2-26.3 67.8 11.2 21 55 10.7 72.6 8.1 99.8-14.7 223.3-35.7 297.7 49 1.7 2 5.4-.1 4.4-2.6z" fill="#587a9a"/><path d="m480.3 141.9c-7.8 6.8-16.6 18.1-15.4 29.1 1.5 13.3 20.7 11.7 29.9 13 28.9 4.1 56.3 20.3 79.7 36.7 25.1 17.6 47.1 39.6 66.9 62.9 12.3 14.5 23.4 29.9 34 45.7 6.9 10.2 13.2 20.8 19.5 31.4 4.9 8.3 17.9 24.3 18.8 33.7 4 44.5-71 79.4-103.1 93.6-7 3.1-16.4 26.2-6.8 21.9 47.9-21.2 103.4-52.2 122.5-104.8 3-8.2 5.3-17.2 4.7-26-.9-13.6-17.8-34-24.7-45.7-11.7-19.8-24.9-38.7-39-56.9-32.7-42.4-73.9-80.6-123-102.9-11.3-5.1-55.8-20.7-62.1-15.2 6.7-5.7 10.7-27.4-1.9-16.5z" fill="#587a9a"/><path d="m636.3 362.9c2.4 20.5-4.1 39.7-14 43.7-9.6 3.8-19.6-7.8-22.7-26.7-3.2-19.8 2.1-40.9 12.4-46.3 10.7-5.8 21.8 7.8 24.3 29.3z" fill="url(#ae)"/><path d="m634.5 377.2c1.3 17.7-5.4 32.5-14.7 33.5-9.1 1-17.7-11.6-19.5-28.5-1.9-17.5 4.2-33.6 13.8-35.4 9.8-1.9 19 12 20.4 30.4z" fill="#3f3166"/><path d="m628.6 361.3c2.2 8.8-.7 18-6.5 20.6-5.7 2.5-12-2.3-14.3-10.8-2.3-8.6.3-18 6.1-20.8 5.7-3 12.4 2 14.7 11z" fill="#7b75aa"/><path d="m623.6 401c-.4 2.8-2.6 5.1-4.9 5s-3.9-2.4-3.6-5.2c.4-2.8 2.5-5.1 4.9-5 2.4 0 4 2.4 3.6 5.2z" fill="#7b75aa"/><path d="m521.1 374.4c1.7 24.2-7.7 43.2-20.6 43.6-12.5.4-35.4-22.9-38.1-45.5 1.2-26.9 8.1-30.8 28.3-27 13.8 5.1 28.6 3.5 30.4 28.9z" fill="url(#af)"/><path d="m512.8 387.4c.7 19.1-6.9 33.1-16.7 31.9-9.6-1.1-18.4-16.4-19.8-34.9-1.5-19.2 5.5-35 15.8-34.6 10.6.5 20 17.7 20.7 37.6z" fill="#3f3166"/><path d="m507.1 369c2.1 10-1.4 19-7.6 20.4-6.1 1.3-12.7-5.4-14.9-15-2.2-9.8.9-19.2 7.1-20.8 6.4-1.8 13.3 5.2 15.4 15.4z" fill="#7b75aa"/><path d="m500.6 410c-.5 2.9-2.9 4.7-5.4 4.1s-4.1-3.5-3.6-6.4 2.8-4.8 5.3-4.2c2.5.7 4.2 3.6 3.7 6.5z" fill="#7b75aa"/><path d="m549.8 417.5s-15.6 20.8 14.4 26.3c8.9 1.6 39.2-10.5 27.3-20.3.1.1-23.3-16-41.7-6z" fill="url(#ag)"/><path d="m597.1 424.5c-1 6-17.6 16-31.1 14.2-13.1-1.7-19.2-14.2-18.7-19.9.6-5.8 11.9-9.5 25.6-8.1 14.2 1.5 25.2 7.7 24.2 13.8z" fill="#eb5b99"/><path d="m591.2 421.3c-.6 2.7-8.7 3.5-18.1 2-9.2-1.5-16.2-4.8-15.8-7.4s8.2-3.6 17.6-2.1c9.4 1.4 16.8 4.9 16.3 7.5z" fill="#f197bf"/><path d="m567.1 439.6-3.5 38.5s12.1-15.1 3.5-38.5z" fill="#587a9a"/><path d="m463 351.5c.9-1 47.6 6.4 47.6 6.4s10.5-5.6 8.5-17c0 0-6.6 9.5-9.3 8.5 0 0 4.6-4.2 4-7.4l-7.9 2.4s-37.4-7.1-38.5-7-14.1 21-14.1 21-2 5.2 9.7-6.9z" fill="#3f3166"/></svg>