<svg enable-background="new 0 0 630 101.9" viewBox="0 0 630 101.9" xmlns="http://www.w3.org/2000/svg"><path d="m235.3 89.2-12-17.2c-.8.1-1.5.1-2.3.1h-13.3v17.1h-10.9v-58.8h24.2c15.5 0 25.1 7.9 25.1 20.9 0 8.9-4.5 15.5-12.5 18.6l13.6 19.3zm-14.8-49.6h-12.8v23.5h12.8c9.6 0 14.5-4.4 14.5-11.8s-4.9-11.7-14.5-11.7z" fill="#6666c3"/><path d="m294.4 62.9v26.3h-9.9v-5.5c-2.5 3.9-7.4 6.1-14.1 6.1-10.2 0-16.7-5.6-16.7-13.4 0-7.5 5.1-13.4 18.7-13.4h11.6v-.7c0-6.1-3.7-9.8-11.2-9.8-5 0-10.2 1.7-13.6 4.5l-4.1-7.6c4.8-3.7 11.8-5.5 19-5.5 12.8-.1 20.3 6.1 20.3 19zm-10.5 12.3v-5.2h-10.8c-7.1 0-9.1 2.7-9.1 6 0 3.8 3.2 6.2 8.6 6.2 5.1-.1 9.5-2.4 11.3-7z" fill="#6666c3"/><path d="m352.1 63.5v25.7h-10.5v-24.4c0-8-4-11.9-10.7-11.9-7.5 0-12.5 4.5-12.5 13.5v22.7h-10.5v-44.8h10v5.8c3.5-4.1 8.9-6.3 15.5-6.3 10.7 0 18.7 6.2 18.7 19.7z" fill="#6666c3"/><path d="m383.8 70-7.8 7.4v11.8h-10.5v-62.4h10.5v37.7l21.8-20.2h12.6l-18.8 18.8 20.5 26h-12.8z" fill="#6666c3"/><g fill="#334e68"><path d="m473.9 89.2-.1-39-19.3 32.3h-4.9l-19.3-31.8v38.5h-10.4v-58.8h9l23.4 39 23-39h9l.1 58.8z"/><path d="m536.7 62.9v26.3h-9.9v-5.5c-2.5 3.9-7.4 6.1-14.1 6.1-10.2 0-16.7-5.6-16.7-13.4 0-7.5 5.1-13.3 18.7-13.3h11.6v-.7c0-6.1-3.7-9.8-11.2-9.8-5 0-10.2 1.7-13.6 4.5l-4.1-7.7c4.8-3.7 11.8-5.5 19-5.5 12.8-.1 20.3 6.1 20.3 19zm-10.5 12.3v-5.2h-10.8c-7.1 0-9.1 2.7-9.1 6 0 3.8 3.2 6.2 8.6 6.2 5.1-.1 9.5-2.4 11.3-7z"/><path d="m577.1 86.8c-2.5 2-6.3 3-10.1 3-9.8 0-15.5-5.2-15.5-15.1v-21.6h-7.4v-8.4h7.4v-10.3h10.5v10.2h12v8.4h-12v21.4c0 4.4 2.2 6.7 6.2 6.7 2.1.1 4.2-.6 5.9-1.8z"/><path d="m630 63.5v25.7h-10.5v-24.4c0-8-4-11.9-10.7-11.9-7.5 0-12.5 4.5-12.5 13.5v22.7h-10.5v-62.3h10.5v22.7c3.5-3.7 8.8-5.7 15-5.7 10.7 0 18.7 6.2 18.7 19.7z"/><path d="m166 52.3-27.4 1.2 4.8 7.5-45.6 29.2-45.2-19-52.6 21.9 3.6 8.8 48.9-20.4 46.2 19.4 49.8-31.8 4.8 7.6z"/></g><path d="m19.4 80.3 33.1-13.8 1.6.7v-19.6h-34.7zm75.8-80.3v84.4l2.6 1.1 32.1-20.5v-65zm-37.9 68.5 34.7 14.6v-59.3h-34.7z" fill="#6666c3"/></svg>