<?xml version="1.0" encoding="UTF-8"?>
<svg version="1.1" viewBox="0 0 246 35" xmlns="http://www.w3.org/2000/svg">
<title>Logo cloudflare</title>
<g transform="translate(-433 -86)" fill="none" fill-rule="evenodd">
<g transform="translate(433 86)" fill-rule="nonzero">
<g transform="translate(83 21)" fill="#404041">
<path d="m161.53 3.43c-0.76972 0-1.381-0.63-1.381-1.4233 0-0.77 0.61125-1.4233 1.381-1.4233 0.74708 0 1.381 0.63 1.381 1.4233 0 0.79333-0.63389 1.4233-1.381 1.4233zm0-2.5667c-0.61125 0-1.1093 0.51333-1.1093 1.1433s0.49806 1.1433 1.1093 1.1433 1.1093-0.51333 1.1093-1.1433-0.49806-1.1433-1.1093-1.1433zm0.70181 1.89h-0.31694l-0.27167-0.53667h-0.36222v0.53667h-0.2943v-1.5633h0.72444c0.31694 0 0.5207 0.21 0.5207 0.51333 0 0.23333-0.13583 0.39667-0.31694 0.46667l0.31694 0.58333zm-0.54333-0.81667c0.1132 0 0.22639-0.07 0.22639-0.23333 0-0.18667-0.090555-0.23333-0.22639-0.23333h-0.45278v0.46667h0.45278z"/>
<polygon points="17.658 0.44333 21.19 0.44333 21.19 10.36 27.325 10.36 27.325 13.533 17.658 13.533"/>
<path d="m30.97 7.0233v-0.023333c0-3.7567 2.9431-6.8133 6.8596-6.8133 3.9165 0 6.8143 3.01 6.8143 6.7667v0.046667c0 3.7567-2.9431 6.8133-6.8596 6.8133-3.8939-0.023333-6.8143-3.0333-6.8143-6.79m10.097 0v-0.023333c0-1.89-1.3131-3.5233-3.26-3.5233-1.9243 0-3.2147 1.61-3.2147 3.5v0.046667c0 1.89 1.3131 3.5233 3.2374 3.5233 1.9469-0.023333 3.2374-1.6333 3.2374-3.5233"/>
<path d="m48.968 7.7933v-7.35h3.5769v7.28c0 1.89 0.92819 2.7767 2.3318 2.7767s2.3318-0.86333 2.3318-2.6833v-7.3733h3.5769v7.2567c0 4.2233-2.3318 6.0667-5.954 6.0667-3.5996 0.023333-5.8635-1.8667-5.8635-5.9733"/>
<path d="m66.173 0.44333h4.9126c4.5278 0 7.1765 2.6833 7.1765 6.4633v0.046667c0 3.78-2.6714 6.58-7.2444 6.58h-4.8221l-0.022639-13.09zm4.9579 9.87c2.1054 0 3.509-1.19 3.509-3.3133v-0.046667c0-2.1-1.4036-3.3133-3.509-3.3133h-1.4262v6.65l1.4262 0.023333z"/>
<polygon points="83.356 0.44333 93.521 0.44333 93.521 3.64 86.865 3.64 86.865 5.8567 92.887 5.8567 92.887 8.8667 86.865 8.8667 86.865 13.533 83.356 13.533"/>
<polygon points="98.411 0.44333 101.92 0.44333 101.92 10.36 108.08 10.36 108.08 13.533 98.411 13.533"/>
<path d="m117.27 0.35h3.3958l5.4107 13.183h-3.7807l-0.9282-2.3333h-4.89l-0.90556 2.3333h-3.6901l5.3881-13.183zm3.1015 8.0267l-1.4036-3.71-1.4262 3.71h2.8299z"/>
<path d="m130.6 0.44333h5.9993c1.9469 0 3.2826 0.51333 4.1429 1.4233 0.74708 0.74667 1.1319 1.75 1.1319 3.0567v0.046667c0 2.0067-1.0414 3.3367-2.6035 4.0133l3.0336 4.5733h-4.075l-2.5582-3.9667h-1.5394v3.9667h-3.509l-0.022639-13.113zm5.8408 6.3c1.1999 0 1.879-0.60667 1.879-1.54v-0.07c0-1.0267-0.72444-1.54-1.9017-1.54h-2.3092v3.15h2.3318z"/>
<polygon points="146.95 0.44333 157.16 0.44333 157.16 3.5467 150.44 3.5467 150.44 5.5067 156.53 5.5067 156.53 8.3767 150.44 8.3767 150.44 10.453 157.25 10.453 157.25 13.533 146.95 13.533"/>
<path d="m9.9611 8.5633c-0.49806 1.1433-1.5394 1.96-2.8978 1.96-1.9243 0-3.2374-1.6567-3.2374-3.5233v-0.046667c0-1.89 1.2904-3.5 3.2147-3.5 1.4489 0 2.5582 0.91 3.011 2.17h3.7128c-0.58861-3.1267-3.26-5.4367-6.7011-5.4367-3.9165 0-6.8596 3.0567-6.8596 6.8133v0.046667c0 3.7567 2.8978 6.7667 6.8143 6.7667 3.3506 0 5.9767-2.24 6.6558-5.2267l-3.7128-0.023333z"/>
</g>
<polygon points="70.493 20.684 60.835 15.129 59.168 14.406 19.655 14.7 19.655 34.797 70.493 34.819" fill="#fff"/>
<path d="m52.909 32.968c0.47281-1.6258 0.29269-3.1161-0.49532-4.2226-0.72047-1.0161-1.9363-1.6032-3.3997-1.671l-27.715-0.36129c-0.18012 0-0.33772-0.090323-0.42778-0.22581-0.090058-0.13548-0.11257-0.31613-0.067544-0.49677 0.090058-0.27097 0.36023-0.47419 0.65292-0.49677l27.963-0.36129c3.3096-0.15806 6.912-2.8452 8.1728-6.1419l1.5985-4.1774c0.067544-0.18065 0.090058-0.36129 0.045029-0.54194-1.8012-8.1742-9.0734-14.271-17.764-14.271-8.0152 0-14.815 5.1935-17.246 12.397-1.576-1.1742-3.5798-1.8065-5.7412-1.6032-3.85 0.38387-6.9345 3.4774-7.3173 7.3387-0.090058 0.99355-0.022515 1.9645 0.20263 2.8677-6.2816 0.18065-11.302 5.329-11.302 11.674 0 0.56452 0.045029 1.129 0.11257 1.6935 0.045029 0.27097 0.27018 0.47419 0.54035 0.47419h51.153c0.29269 0 0.56287-0.20323 0.65292-0.49677l0.38275-1.3774z" fill="#F38020"/>
<path d="m61.735 15.106c-0.24766 0-0.51784 0-0.7655 0.022581-0.18012 0-0.33772 0.13548-0.40526 0.31613l-1.0807 3.771c-0.47281 1.6258-0.29269 3.1161 0.49532 4.2226 0.72047 1.0161 1.9363 1.6032 3.3997 1.671l5.8988 0.36129c0.18012 0 0.33772 0.090323 0.42778 0.22581 0.090058 0.13548 0.11257 0.33871 0.067544 0.49677-0.090058 0.27097-0.36023 0.47419-0.65292 0.49677l-6.1465 0.36129c-3.3322 0.15806-6.912 2.8452-8.1728 6.1419l-0.45029 1.1516c-0.090058 0.22581 0.067544 0.45161 0.3152 0.45161h21.119c0.24766 0 0.47281-0.15806 0.54035-0.40645 0.36023-1.3097 0.56287-2.6871 0.56287-4.1097 0-8.3774-6.7769-15.174-15.152-15.174" fill="#FAAE40"/>
</g>
</g>
</svg>
