<svg id="Layer_1" data-name="Layer 1" xmlns="http://www.w3.org/2000/svg" viewBox="0 0 114 114"><defs><style>.cls-1{fill:#4267b2;}.cls-2{fill:#fff;}</style></defs><title>flogo_RGB_HEX-114</title><path class="cls-1" d="M107.71,0H6.29A6.29,6.29,0,0,0,0,6.29V107.71A6.29,6.29,0,0,0,6.29,114H60.9V69.91H46.09V52.66H60.9V40c0-14.73,9-22.74,22.12-22.74a125.3,125.3,0,0,1,13.28.67V33.28H87.24c-7.15,0-8.53,3.39-8.53,8.38v11H95.8L93.57,69.91H78.71V114h29a6.29,6.29,0,0,0,6.29-6.29V6.29A6.29,6.29,0,0,0,107.71,0Z"/><path id="f" class="cls-2" d="M78.71,114V69.91H93.57L95.8,52.66H78.71v-11c0-5,1.38-8.38,8.53-8.38H96.3V17.89A125.3,125.3,0,0,0,83,17.22c-13.13,0-22.12,8-22.12,22.74v12.7H46.09V69.91H60.9V114Z"/></svg>