<?xml version="1.0" encoding="UTF-8" standalone="no"?>
<!-- Generator: Adobe Illustrator 19.0.0, SVG Export Plug-In . SVG Version: 6.00 Build 0)  -->

<svg
   xmlns:dc="http://purl.org/dc/elements/1.1/"
   xmlns:cc="http://creativecommons.org/ns#"
   xmlns:rdf="http://www.w3.org/1999/02/22-rdf-syntax-ns#"
   xmlns:svg="http://www.w3.org/2000/svg"
   xmlns="http://www.w3.org/2000/svg"
   xmlns:sodipodi="http://sodipodi.sourceforge.net/DTD/sodipodi-0.dtd"
   xmlns:inkscape="http://www.inkscape.org/namespaces/inkscape"
   version="1.1"
   id="Layer_1"
   x="0px"
   y="0px"
   viewBox="26 -29 256 186.35493"
   xml:space="preserve"
   inkscape:version="0.91 r13725"
   sodipodi:docname="google_analytics-official.svg"
   width="256"
   height="186.35493"><metadata
     id="metadata4396"><rdf:RDF><cc:Work
         rdf:about=""><dc:format>image/svg+xml</dc:format><dc:type
           rdf:resource="http://purl.org/dc/dcmitype/StillImage" /><dc:title></dc:title></cc:Work></rdf:RDF></metadata><defs
     id="defs4394" /><sodipodi:namedview
     pagecolor="#ffffff"
     bordercolor="#666666"
     borderopacity="1"
     objecttolerance="10"
     gridtolerance="10"
     guidetolerance="10"
     inkscape:pageopacity="0"
     inkscape:pageshadow="2"
     inkscape:window-width="1562"
     inkscape:window-height="789"
     id="namedview4392"
     showgrid="false"
     fit-margin-top="0"
     fit-margin-left="0"
     fit-margin-right="0"
     fit-margin-bottom="0"
     inkscape:zoom="1.6164384"
     inkscape:cx="69.999996"
     inkscape:cy="73.000001"
     inkscape:window-x="65"
     inkscape:window-y="24"
     inkscape:window-maximized="0"
     inkscape:current-layer="Layer_1" /><style
     type="text/css"
     id="style4345">
	.st0{fill:#F9F9F9;stroke:#EAEAEA;stroke-width:3.9933;stroke-miterlimit:10;}
	.st1{fill:#757575;}
	.st2{fill-rule:evenodd;clip-rule:evenodd;fill:#757575;}
	.st3{fill-rule:evenodd;clip-rule:evenodd;fill:#FFC517;}
	.st4{fill-rule:evenodd;clip-rule:evenodd;fill:#F57E02;}
	.st5{fill-rule:evenodd;clip-rule:evenodd;fill:url(#SVGID_1_);}
</style><linearGradient
     id="SVGID_1_"
     gradientUnits="userSpaceOnUse"
     x1="103.2525"
     y1="39.1007"
     x2="119.0151"
     y2="39.1007"><stop
       offset="0"
       style="stop-color:#E96F0B"
       id="stop4386" /><stop
       offset="1"
       style="stop-color:#F37901"
       id="stop4388" /></linearGradient><g
     id="g4398"
     transform="matrix(2.7205101,0,0,2.7205101,-107.03294,-52.668438)"><path
       id="path4349"
       d="m 97.5,66.4 0,0 1.6,4.2 -3.1,0 1.5,-4.2 z m -0.6,-1.4 -3.5,9.2 1.3,0 0.9,-2.5 3.9,0 0.9,2.5 1.3,0 -3.5,-9.2 -1.3,0 z"
       class="st1"
       inkscape:connector-curvature="0"
       style="fill:#757575" /><path
       id="path4351"
       d="m 115.8,74.2 1.2,0 0,-9.2 -1.2,0 0,9.2 z"
       class="st1"
       inkscape:connector-curvature="0"
       style="fill:#757575" /><path
       id="path4353"
       d="m 103.5,68.8 0,0 c 0.4,-0.6 1.2,-1.1 2,-1.1 1.6,0 2.4,1.1 2.4,2.7 l 0,3.9 -1.2,0 0,-3.7 c 0,-1.3 -0.7,-1.8 -1.6,-1.8 -1,0 -1.7,1 -1.7,1.9 l 0,3.5 -1.2,0 0,-6.4 1.2,0 0.1,1 z"
       class="st1"
       inkscape:connector-curvature="0"
       style="fill:#757575" /><path
       id="path4355"
       d="m 108.9,72.3 c 0,-1.4 1.3,-2.2 2.8,-2.2 0.9,0 1.5,0.2 1.7,0.4 l 0,-0.2 c 0,-1 -0.8,-1.5 -1.6,-1.5 -0.7,0 -1.3,0.3 -1.5,0.9 l -1.1,-0.5 c 0.2,-0.6 1,-1.5 2.6,-1.5 1.5,0 2.8,0.9 2.8,2.7 l 0,3.8 -1.1,0 0,-0.9 -0.1,0 c -0.3,0.5 -1,1.1 -2.1,1.1 -1.3,0 -2.4,-0.8 -2.4,-2.1 m 4.5,-0.8 c 0,0 -0.5,-0.4 -1.5,-0.4 -1.2,0 -1.7,0.7 -1.7,1.2 0,0.7 0.7,1 1.3,1 0.9,0 1.9,-0.8 1.9,-1.8"
       class="st1"
       inkscape:connector-curvature="0"
       style="fill:#757575" /><path
       id="path4357"
       d="m 118.7,77 0,0 1.4,-3.3 -2.5,-5.8 1.2,0 1.9,4.4 1.9,-4.4 1.2,0 -3.9,9.1 -1.2,0 0,0 z"
       class="st2"
       inkscape:connector-curvature="0"
       style="clip-rule:evenodd;fill:#757575;fill-rule:evenodd" /><path
       id="path4359"
       d="m 136.3,70 c -0.3,-0.8 -1,-1.3 -1.7,-1.3 -1,0 -1.9,0.9 -1.9,2.2 0,1.3 0.9,2.2 1.9,2.2 0.7,0 1.4,-0.5 1.7,-1.2 l 1,0.6 c -0.5,1.1 -1.5,1.8 -2.7,1.8 -1.7,0 -3.1,-1.5 -3.1,-3.4 0,-2 1.4,-3.4 3.1,-3.4 1.2,0 2.2,0.7 2.7,1.8 l -1,0.7 z"
       class="st2"
       inkscape:connector-curvature="0"
       style="clip-rule:evenodd;fill:#757575;fill-rule:evenodd" /><path
       id="path4361"
       d="m 140.6,74.4 c 1.6,0 2.4,-0.9 2.4,-2 0,-2.4 -3.5,-1.5 -3.5,-2.9 0,-0.5 0.4,-0.8 1.1,-0.8 0.7,0 1.4,0.3 1.7,0.8 l 0.7,-0.7 c -0.4,-0.5 -1.5,-1.2 -2.5,-1.2 -1.5,0 -2.3,0.9 -2.3,2 0,2.3 3.6,1.5 3.6,2.7 0,0.6 -0.4,1 -1.2,1 -0.8,0 -1.2,-0.5 -1.6,-1 l -0.9,0.7 c 0.6,0.6 1.5,1.4 2.5,1.4 z"
       class="st1"
       inkscape:connector-curvature="0"
       style="fill:#757575" /><path
       id="path4363"
       d="m 129.2,74.2 1.2,0 0,-6.4 -1.2,0 0,6.4 z"
       class="st1"
       inkscape:connector-curvature="0"
       style="fill:#757575" /><path
       id="path4365"
       d="m 129.7,64.7 c 0.5,0 0.8,0.4 0.8,0.8 0,0.5 -0.4,0.8 -0.8,0.8 -0.4,0 -0.8,-0.4 -0.8,-0.8 0,-0.4 0.4,-0.8 0.8,-0.8 z"
       class="st2"
       inkscape:connector-curvature="0"
       style="clip-rule:evenodd;fill:#757575;fill-rule:evenodd" /><path
       id="path4367"
       d="m 128,73.2 0.2,0.9 c -0.4,0 -0.8,0 -1.2,0 -1.1,0 -1.6,-0.8 -1.6,-2 l 0,-3.1 -1.2,0 0,-1.2 1.2,0 0,-1.9 1.2,0 0,1.9 1.4,0 0,1.2 -1.4,0 0,3.3 c 0,0.9 0.7,0.9 1.4,0.9 z"
       class="st2"
       inkscape:connector-curvature="0"
       style="clip-rule:evenodd;fill:#757575;fill-rule:evenodd" /><path
       id="path4369"
       d="m 54.3,68.7 0,1.5 3.5,0 C 57.7,71 57.4,71.6 57,72 c -0.5,0.5 -1.3,1.1 -2.7,1.1 -2.1,0 -3.8,-1.7 -3.8,-3.9 0,-2.1 1.7,-3.9 3.8,-3.9 1.2,0 2,0.5 2.6,1 l 1,-1 c -0.9,-0.8 -2,-1.5 -3.6,-1.5 -2.9,0 -5.4,2.4 -5.4,5.3 0,2.9 2.5,5.3 5.4,5.3 1.6,0 2.8,-0.5 3.7,-1.5 1,-1 1.3,-2.3 1.3,-3.4 0,-0.3 0,-0.7 -0.1,-0.9 l -4.9,0 z"
       class="st1"
       inkscape:connector-curvature="0"
       style="fill:#757575" /><path
       id="path4371"
       d="m 63.2,67.5 c -1.9,0 -3.4,1.4 -3.4,3.4 0,2 1.5,3.4 3.4,3.4 1.9,0 3.4,-1.5 3.4,-3.4 0,-2 -1.5,-3.4 -3.4,-3.4 z m 0,5.5 c -1,0 -1.9,-0.9 -1.9,-2.1 0,-1.2 0.9,-2.1 1.9,-2.1 1,0 1.9,0.8 1.9,2.1 0,1.3 -0.9,2.1 -1.9,2.1 z"
       class="st1"
       inkscape:connector-curvature="0"
       style="fill:#757575" /><path
       id="path4373"
       d="m 79.6,68.2 0,0 c -0.4,-0.4 -1,-0.8 -1.9,-0.8 -1.7,0 -3.2,1.5 -3.2,3.4 0,1.9 1.5,3.4 3.2,3.4 0.8,0 1.5,-0.4 1.8,-0.8 l 0.1,0 0,0.5 c 0,1.3 -0.7,2 -1.8,2 -0.9,0 -1.5,-0.7 -1.7,-1.2 l -1.3,0.5 c 0.4,0.9 1.4,2 3,2 1.8,0 3.3,-1 3.3,-3.6 l 0,-6.2 -1.4,0 0,0.8 z M 77.9,73 c -1,0 -1.8,-0.9 -1.8,-2.1 0,-1.2 0.8,-2.1 1.8,-2.1 1,0 1.8,0.9 1.8,2.1 0,1.2 -0.8,2.1 -1.8,2.1 z"
       class="st1"
       inkscape:connector-curvature="0"
       style="fill:#757575" /><path
       id="path4375"
       d="m 70.6,67.5 c -1.9,0 -3.4,1.4 -3.4,3.4 0,2 1.5,3.4 3.4,3.4 1.9,0 3.4,-1.5 3.4,-3.4 0.1,-2 -1.5,-3.4 -3.4,-3.4 z m 0,5.5 c -1,0 -1.9,-0.9 -1.9,-2.1 0,-1.2 0.9,-2.1 1.9,-2.1 1,0 1.9,0.8 1.9,2.1 0,1.3 -0.9,2.1 -1.9,2.1 z"
       class="st1"
       inkscape:connector-curvature="0"
       style="fill:#757575" /><path
       id="path4377"
       d="m 82.2,63.9 1.5,0 0,10.4 -1.5,0 0,-10.4 z"
       class="st1"
       inkscape:connector-curvature="0"
       style="fill:#757575" /><path
       id="path4379"
       d="M 87.8,73 C 87,73 86.5,72.6 86.1,72 l 4.6,-1.9 -0.2,-0.4 c -0.3,-0.8 -1.2,-2.2 -2.9,-2.2 -1.8,0 -3.2,1.4 -3.2,3.4 0,1.9 1.5,3.4 3.4,3.4 1.6,0 2.5,-1 2.9,-1.5 L 89.5,72 c -0.4,0.6 -0.9,1 -1.7,1 l 0,0 z m -0.1,-4.2 c 0.6,0 1.1,0.3 1.3,0.8 l -3.1,1.3 c 0,-1.5 1,-2.1 1.8,-2.1 z"
       class="st1"
       inkscape:connector-curvature="0"
       style="fill:#757575" /><path
       id="path4381"
       d="m 93.8,54.9 -2.6,0 -14.5,0 c -2.1,0 -3.8,-1.7 -3.8,-3.8 l 0,-8.2 c 0,-2.1 1.7,-3.8 3.8,-3.8 l 10.8,0 0,-12 c 0,-2.1 1.7,-3.8 3.8,-3.8 l 12,0 0,31.5 -9.5,0 z"
       class="st3"
       inkscape:connector-curvature="0"
       style="clip-rule:evenodd;fill:#ffc517;fill-rule:evenodd" /><path
       id="path4383"
       d="m 115.3,54.9 -12,0 0,-42.4 c 0,-2.1 1.7,-3.8 3.8,-3.8 l 8.2,0 c 2.1,0 3.8,1.7 3.8,3.8 l 0,38.6 c -0.1,2.1 -1.8,3.8 -3.8,3.8 z"
       class="st4"
       inkscape:connector-curvature="0"
       style="clip-rule:evenodd;fill:#f57e02;fill-rule:evenodd" /><path
       id="path4390"
       d="m 119,39.1 0,12 c 0,2.1 -1.7,3.8 -3.8,3.8 l -12,0 0,-31.6 15.8,15.8 z"
       class="st5"
       style="clip-rule:evenodd;fill:url(#SVGID_1_);fill-rule:evenodd"
       inkscape:connector-curvature="0" /></g></svg>