<svg width="162" height="20" viewBox="0 0 162 20" fill="none" xmlns="http://www.w3.org/2000/svg">
<path fill-rule="evenodd" clip-rule="evenodd" d="M77.2324 12.4999C79.313 12.4999 80.9994 14.1789 80.9994 16.25C80.9994 18.3215 79.313 20 77.2324 20C75.1512 20 73.4648 18.3215 73.4648 16.25C73.4648 14.1789 75.1512 12.4999 77.2324 12.4999" fill="#76B82A"/>
<path d="M157.605 19.9997H162V8.74998C162 3.91757 158.065 -0.000366211 153.21 -0.000366211C150.584 -0.000366211 148.227 1.14552 146.616 2.96186C145.005 1.14552 142.649 -0.000366211 140.023 -0.000366211C135.168 -0.000366211 131.233 3.91757 131.233 8.74998V19.9997H135.628V8.74998L135.631 8.5991C135.71 6.253 137.646 4.37456 140.023 4.37456C142.451 4.37456 144.419 6.33402 144.419 8.74998V19.9997H148.814V8.74998L148.817 8.5991C148.896 6.253 150.833 4.37456 153.21 4.37456C155.637 4.37456 157.605 6.33402 157.605 8.74998V19.9997Z" fill="#3C3C3C"/>
<path fill-rule="evenodd" clip-rule="evenodd" d="M106.744 9.99988C106.744 4.47712 111.242 -0.000171661 116.791 -0.000171661C122.339 -0.000171661 126.837 4.47712 126.837 9.99988C126.837 15.5226 122.339 19.9999 116.791 19.9999C111.242 19.9999 106.744 15.5226 106.744 9.99988ZM111.139 9.99988C111.139 13.1067 113.669 15.625 116.791 15.625C119.912 15.625 122.442 13.1067 122.442 9.99988C122.442 6.89309 119.912 4.37476 116.791 4.37476C113.669 4.37476 111.139 6.89309 111.139 9.99988Z" fill="#3C3C3C"/>
<path d="M95.4503 15.625C92.329 15.625 89.799 13.1067 89.799 9.99988C89.799 6.89308 92.329 4.37476 95.4503 4.37476C97.0645 4.37476 98.516 5.05152 99.5458 6.13142L102.654 3.03773C100.828 1.16657 98.2776 -0.000171661 95.4503 -0.000171661C89.9019 -0.000171661 85.4037 4.47712 85.4037 9.99988C85.4037 15.5226 89.9019 19.9999 95.4503 19.9999C98.2776 19.9999 100.828 18.8332 102.654 16.962L99.5458 13.8688C98.516 14.9482 97.0645 15.625 95.4503 15.625Z" fill="#3C3C3C"/>
<path fill-rule="evenodd" clip-rule="evenodd" d="M69.0698 9.99988C69.0698 4.47712 64.5716 -0.000171661 59.0232 -0.000171661C53.4748 -0.000171661 48.9767 4.47712 48.9767 9.99988C48.9767 15.5226 53.4748 19.9999 59.0232 19.9999C63.1187 19.9999 66.6416 17.5607 68.2061 14.0624L62.9316 14.0629C61.9168 15.0302 60.5395 15.625 59.0232 15.625C56.4469 15.625 54.2736 13.9091 53.5932 11.563H68.9479C69.0278 11.0536 69.0698 10.5316 69.0698 9.99988ZM53.6936 8.12532C54.4691 5.94028 56.5624 4.37476 59.0232 4.37476C61.484 4.37476 63.5774 5.94028 64.3528 8.12532H53.6936Z" fill="#3C3C3C"/>
<path d="M44.5795 9.80291C44.4742 4.37088 40.0175 -0.000171661 34.5349 -0.000171661C28.986 -0.000171661 24.4883 4.47712 24.4883 9.99988V19.9999H28.8836V9.99988L28.886 9.83396C28.9743 6.8043 31.4692 4.37476 34.5349 4.37476C37.6556 4.37476 40.1861 6.89308 40.1861 9.99988V19.9999H44.5814V9.99988L44.5795 9.80291Z" fill="#3C3C3C"/>
<path fill-rule="evenodd" clip-rule="evenodd" d="M20.0931 9.99988C20.0931 4.47712 15.595 -0.000171661 10.0465 -0.000171661C4.49762 -0.000171661 0 4.47712 0 9.99988C0 15.5226 4.49762 19.9999 10.0465 19.9999C15.595 19.9999 20.0931 15.5226 20.0931 9.99988ZM4.39527 9.99988C4.39527 6.89309 6.9253 4.37476 10.0465 4.37476C13.1673 4.37476 15.6973 6.89309 15.6973 9.99988C15.6973 13.1067 13.1673 15.625 10.0465 15.625C6.9253 15.625 4.39527 13.1067 4.39527 9.99988Z" fill="#3C3C3C"/>
</svg>
