<svg enable-background="new 103.4 123.5 76 134.4" viewBox="103.4 123.5 76 134.4" xmlns="http://www.w3.org/2000/svg" xmlns:xlink="http://www.w3.org/1999/xlink"><linearGradient id="a" gradientTransform="matrix(37.3684 0 0 73.3058 19.5795 243.9274)" gradientUnits="userSpaceOnUse" x1="3.2546" x2="3.2546" y1=".1906" y2="-.484"><stop offset="0" stop-color="#f56640"/><stop offset=".2439" stop-color="#f57840"/><stop offset="1" stop-color="#ffbe54"/></linearGradient><linearGradient id="b" gradientTransform="matrix(32.7896 0 0 49.9855 21.9466 242.1502)" gradientUnits="userSpaceOnUse" x1="3.64" x2="3.64" y1="-.2038" y2="-.9973"><stop offset="0" stop-color="#f56640"/><stop offset=".1811" stop-color="#f57840"/><stop offset="1" stop-color="#ffbe54"/></linearGradient><linearGradient id="c" gradientTransform="matrix(26.5261 0 0 55.1922 25.1065 221.8337)" gradientUnits="userSpaceOnUse" x1="4.3803" x2="4.3803" y1=".029297" y2="-1.3295"><stop offset="0" stop-color="#f56640"/><stop offset=".08378801" stop-color="#f57840"/><stop offset="1" stop-color="#ffbe54"/></linearGradient><linearGradient id="d" gradientTransform="matrix(26.5261 0 0 55.1922 25.1065 221.8337)" gradientUnits="userSpaceOnUse" x1="4.3803" x2="4.3803" y1="-.2313" y2="-1.075"><stop offset="0" stop-color="#f56640"/><stop offset=".3911" stop-color="#f57840"/><stop offset="1" stop-color="#ffbe54"/></linearGradient><g><path d="m159.6 192.8c-2.5 0-4.9-1.5-6.1-3.8l-2-4.4h-19.8l-2 4.4c-1.2 2.3-3.5 3.8-6.1 3.8h-1.1l8.5 64.2c.4 1.2 1.2 1.2 1.7 0l8.4-20.5 7.3 20.5c.4 1.2 1.2 1.2 1.7 0l9.8-64.1z" fill="url(#a)"/><path d="m150.7 182.8h-18.2l-2.8 6.2c-.9 1.9-2.8 3.2-4.8 3.6l6.4 39.6c.4.7 1.2.7 1.7 0l8.2-12.4 7.5 12.3c.5.7 1.2.7 1.7 0l7.3-39.7c-1.8-.5-3.4-1.8-4.2-3.5z" fill="url(#b)"/><path d="m153.5 189-11.9-26.5-11.9 26.5c-.4.8-.9 1.5-1.6 2l4.9 26.3c.3.4.9.5 1.4 0l6.6-8.7 6.6 8.7c.4.5 1.2.4 1.4 0l5.5-26.6c-.3-.5-.7-1-1-1.7" fill="url(#c)"/><path d="m153.5 189-11.9-26.5-11.9 26.5c-.4.8-.9 1.5-1.6 2l4.9 26.3c.3.4.9.5 1.4 0l6.6-8.7 6.6 8.7c.4.5 1.2.4 1.4 0l5.5-26.6c-.3-.5-.7-1-1-1.7" fill="url(#d)" opacity=".5"/><path d="m103.5 126.4c-.4-1.3.4-2.1 1.6-2.1h10.5c.7 0 1.4.6 1.6 1.3l7.7 30.1h.4l13.8-31.2c.3-.5.8-1 1.5-1h1.6c.8 0 1.3.4 1.5 1l13.8 31.2h.4l7.7-30.1c.2-.6.9-1.3 1.6-1.3h10.5c1.3 0 1.9.9 1.6 2.1l-16.9 59.6c-.2.7-.9 1.3-1.6 1.3h-1.4c-.6 0-1.3-.4-1.5-1l-16.3-36.3h-.3l-16.3 36.3c-.3.5-.9 1-1.5 1h-1.4c-.7 0-1.4-.5-1.6-1.3z" fill="#fff"/></g></svg>