<svg height="45" viewBox="0 0 25 45" width="25" xmlns="http://www.w3.org/2000/svg" xmlns:xlink="http://www.w3.org/1999/xlink"><linearGradient id="a" x1="50.138384%" x2="50.138384%" y1="100%" y2="32.534707%"><stop offset="0" stop-color="#f56640"/><stop offset=".243858064" stop-color="#f57840"/><stop offset="1" stop-color="#ffbe54"/></linearGradient><linearGradient id="b" x1="50.002945%" x2="50.002945%" y1="98.320578%" y2="18.977303%"><stop offset="0" stop-color="#f56640"/><stop offset=".181093204" stop-color="#f57840"/><stop offset="1" stop-color="#ffbe54"/></linearGradient><linearGradient id="c" x1="50.000006%" x2="50%" y1="110.433207%" y2="-25.444358%"><stop offset="0" stop-color="#f56640"/><stop offset=".0837881088" stop-color="#f57840"/><stop offset="1" stop-color="#ffbe54"/></linearGradient><linearGradient id="d" x1="50.000006%" x2="50.000006%" y1="84.377953%" y2="0%"><stop offset="0" stop-color="#f56640"/><stop offset=".391082657" stop-color="#f57840"/><stop offset="1" stop-color="#ffbe54"/></linearGradient><g fill="none" fill-rule="evenodd"><path d="m18.4447368 22.8371579c-.8235789 0-1.5956842-.4804211-1.9731579-1.2353684l-.652-1.4584211h-6.46852627l-.652 1.4584211c-.37747368.7549473-1.14957895 1.2353684-1.97315789 1.2353684h-.3431579l2.76242105 21.0527368c.13726316.3946316.39463158.3946316.54905264 0l2.74526317-6.7258947 2.3849474 6.7087368c.1372631.3946316.3946315.3946316.5490526 0l3.1913684-21.018421z" fill="url(#a)"/><path d="m15.5622105 19.56h-5.93663155l-.90936842 2.0417895c-.30884211.6176842-.90936842 1.0637894-1.56136842 1.1838947l2.09326315 12.9885263c.13726316.2402106.39463158.2402106.54905263 0l2.67663161-4.066421 2.4535789 4.0492631c.1544211.2402106.3946316.2402106.5490527 0l2.3677894-13.0056842c-.5833684-.1715789-1.0981052-.5833684-1.3726316-1.1495789z" fill="url(#b)"/><path d="m16.4715789 21.6017895-3.8948421-8.6990527-3.87768417 8.6990527c-.13726316.2573684-.3088421.480421-.51473684.6691579l1.6128421 8.630421c.08578948.1201053.30884211.1544211.46326321 0l2.1618947-2.8653684 2.1618947 2.8482105c.1372632.171579.3774737.1372632.4632632 0l1.784421-8.7333684c-.1372631-.1715789-.2573684-.3431579-.3603158-.5490526" fill="url(#c)"/><path d="m16.4715789 21.6017895-3.8948421-8.6990527-3.87768417 8.6990527c-.13726316.2573684-.3088421.480421-.51473684.6691579l1.6128421 8.630421c.08578948.1201053.30884211.1544211.46326321 0l2.1618947-2.8653684 2.1618947 2.8482105c.1372632.171579.3774737.1372632.4632632 0l1.784421-8.7333684c-.1372631-.1715789-.2573684-.3431579-.3603158-.5490526" fill="url(#d)" opacity=".5"/><path d="m.15442105 1.06378947c-.12010526-.41178947.12010527-.70347368.53189474-.70347368h3.41442105c.24021053 0 .46326316.20589474.53189474.41178947l2.50505263 9.86578944h.12010526l4.51252633-10.24326312c.0857895-.17157895.2573684-.326.4975789-.326h.5318948c.2573684 0 .4289473.13726316.4975789.326l4.5125263 10.24326312h.1201053l2.5050526-9.86578944c.0514737-.20589473.2916842-.41178947.5318948-.41178947h3.414421c.4117895 0 .6348421.29168421.5318948.70347368l-5.5076843 19.56000003c-.0514736.2402105-.2916842.4117894-.5318947.4117894h-.4632631c-.2058948 0-.4117895-.1372631-.497579-.326l-5.3361053-11.9075789h-.0857894l-5.30178951 11.9075789c-.08578947.171579-.29168421.326-.49757894.326h-.46326316c-.24021053 0-.46326316-.1715789-.53189474-.4117894z" fill="#f56640"/></g></svg>