
<svg height="20" viewBox="0 0 20 20" width="20" xmlns="http://www.w3.org/2000/svg"><path stroke="#F56640" d="m7.5 15c-.076 0-.153-.017-.224-.053-.169-.085-.276-.258-.276-.447v-9c0-.189.107-.363.276-.447s.372-.066.524.047l6 4.5c.126.094.2.243.2.4s-.074.306-.2.4l-6 4.5c-.088.066-.194.1-.3.1zm.5-8.5v7l4.667-3.5z"/><path stroke="#F56640" d="m19.5 2h-19c-.276 0-.5.224-.5.5v15c0 .276.224.5.5.5h19c.276 0 .5-.224.5-.5v-15c0-.276-.224-.5-.5-.5zm-16.5 9h-2v-2h2zm0-3h-2v-2h2zm-2 4h2v2h-2zm3-9h12v14h-12zm13 6h2v2h-2zm0-1v-2h2v2zm0 4h2v2h-2zm2-7h-2v-2h2zm-16-2v2h-2v-2zm-2 12h2v2h-2zm16 2v-2h2v2z"/></svg>