<svg width="63" height="48" viewBox="0 0 63 48" fill="none" xmlns="http://www.w3.org/2000/svg">
<g clip-path="url(#clip0)">
<path d="M55.3556 46.0004H22.0048C18.4156 46.0004 16.2 42.0835 18.0489 39.0073L34.8315 11.0857C36.6308 8.0922 40.9743 8.10449 42.7565 11.1081L59.3248 39.0297C61.1504 42.1063 58.9331 46.0004 55.3556 46.0004Z" fill="#FFFFFF"/>
<path d="M46.0883 46H8.1967C4.59945 46 2.38498 42.0672 4.25029 38.9914L23.3178 7.54943C25.1206 4.57673 29.4383 4.58899 31.2242 7.57188L50.0482 39.0138C51.89 42.0902 49.6738 46 46.0883 46Z" fill="#F56F46"/>
<path fill-rule="evenodd" clip-rule="evenodd" d="M22.0053 45.9997H46.0884C49.6739 45.9997 51.8901 42.0898 50.0483 39.0135L34.0784 12.3389L18.0495 39.0066C16.2005 42.0828 18.4162 45.9997 22.0053 45.9997Z" fill="#172153"/>
<rect width="15.4682" height="4.13549" rx="2.06775" transform="matrix(1.31134e-07 -1 -1 -1.31134e-07 28.3662 32.6211)" fill="white"/>
<rect width="4.15592" height="4.13549" rx="2.06775" transform="matrix(1.31134e-07 -1 -1 -1.31134e-07 28.3662 38.8672)" fill="white"/>
</g>
<defs>
<clipPath id="clip0">
<rect width="63" height="48" fill="white"/>
</clipPath>
</defs>
</svg>
