<svg fill="none" height="48" viewBox="0 0 63 48" width="63" xmlns="http://www.w3.org/2000/svg" xmlns:xlink="http://www.w3.org/1999/xlink"><clipPath id="a"><path d="m0 0h63v48h-63z"/></clipPath><g clip-path="url(#a)"><path d="m55.3556 46.0004h-33.3508c-3.5892 0-5.8048-3.9169-3.9559-6.9931l16.7826-27.9216c1.7993-2.9935 6.1428-2.98121 7.925.0224l16.5683 27.9216c1.8256 3.0766-.3917 6.9707-3.9692 6.9707z" fill="#fff"/><path d="m46.0883 46h-37.8916c-3.59725 0-5.81172-3.9328-3.94641-7.0086l19.06751-31.44197c1.8028-2.9727 6.1205-2.96044 7.9064.02245l18.824 31.44192c1.8418 3.0764-.3744 6.9862-3.9599 6.9862z" fill="#f56f46"/><path clip-rule="evenodd" d="m22.0053 45.9997h24.0831c3.5855 0 5.8017-3.9099 3.9599-6.9862l-15.9699-26.6746-16.0289 26.6677c-1.849 3.0762.3667 6.9931 3.9558 6.9931z" fill="#172153" fill-rule="evenodd"/><g fill="#fff"><rect height="4.13549" rx="2.06775" transform="matrix(.00000013 -1 -1 -.00000013 28.3662 32.6211)" width="15.4682"/><rect height="4.13549" rx="2.06775" transform="matrix(.00000013 -1 -1 -.00000013 28.3662 38.8672)" width="4.15592"/></g></g></svg>